<?xml version="1.0" encoding="utf-8"?>
<!-- Generator: Adobe Illustrator 24.2.3, SVG Export Plug-In . SVG Version: 6.00 Build 0)  -->
<svg version="1.1" id="Layer_1" xmlns="http://www.w3.org/2000/svg" xmlns:xlink="http://www.w3.org/1999/xlink" x="0px" y="0px"
	 viewBox="0 0 300 300" style="enable-background:new 0 0 300 300;" xml:space="preserve">
<g>
	<path d="M218.6,198.5l-59-108.1c-2-3.5-5.6-5.6-9.7-5.6c0,0,0,0,0,0c-4,0-7.6,2.1-9.7,5.6l-58.9,108c-2,3.5-2,7.7,0,11.1
		c2,3.5,5.6,5.6,9.7,5.6h117.9c4,0,7.6-2.1,9.7-5.6C220.6,206.1,220.6,202,218.6,198.5z M213.4,206.6c-0.9,1.6-2.6,2.6-4.5,2.6H91.1
		c-1.9,0-3.5-1-4.5-2.6c-0.9-1.6-0.9-3.5,0-5.2l58.9-108c0.9-1.6,2.6-2.6,4.5-2.6c1.9,0,3.5,1,4.4,2.5l59,108.1
		C214.3,203.1,214.3,205,213.4,206.6z"/>
	<path d="M151,171c1.7,0,3-1.3,3-3v-33.5c0-1.7-1.3-3-3-3c-1.7,0-3,1.3-3,3V168C148,169.6,149.3,171,151,171z"/>
	<ellipse transform="matrix(0.9732 -0.2298 0.2298 0.9732 -38.3966 39.6335)" cx="151" cy="184.7" rx="4.8" ry="4.8"/>
</g>
</svg>
