<?xml version="1.0" encoding="utf-8"?>
<!-- Generator: Adobe Illustrator 24.2.3, SVG Export Plug-In . SVG Version: 6.00 Build 0)  -->
<svg version="1.1" id="Layer_1" xmlns="http://www.w3.org/2000/svg" xmlns:xlink="http://www.w3.org/1999/xlink" x="0px" y="0px"
	 viewBox="0 0 300 300" style="enable-background:new 0 0 300 300;" xml:space="preserve">
<g>
	<path d="M150,126.5c-13,0-23.5,10.6-23.5,23.5c0,13,10.6,23.5,23.5,23.5c13,0,23.5-10.6,23.5-23.5C173.5,137,163,126.5,150,126.5z
		 M150,167.5c-9.7,0-17.5-7.9-17.5-17.5c0-9.7,7.9-17.5,17.5-17.5c9.7,0,17.5,7.9,17.5,17.5C167.5,159.7,159.7,167.5,150,167.5z"/>
	<path d="M150,116.8c1.7,0,3-1.3,3-3V87.3c0-1.7-1.3-3-3-3c-1.7,0-3,1.3-3,3v26.5C147,115.5,148.3,116.8,150,116.8z"/>
	<path d="M150,183.2c-1.7,0-3,1.3-3,3v26.5c0,1.7,1.3,3,3,3c1.7,0,3-1.3,3-3v-26.5C153,184.5,151.7,183.2,150,183.2z"/>
	<path d="M212.7,147h-26.5c-1.7,0-3,1.3-3,3c0,1.7,1.3,3,3,3h26.5c1.7,0,3-1.3,3-3C215.7,148.3,214.3,147,212.7,147z"/>
	<path d="M116.8,150c0-1.7-1.3-3-3-3H87.3c-1.7,0-3,1.3-3,3c0,1.7,1.3,3,3,3h26.5C115.5,153,116.8,151.7,116.8,150z"/>
	<path d="M180.7,176.4c-1.2-1.2-3.1-1.2-4.2,0c-1.2,1.2-1.2,3.1,0,4.2l15.4,15.4c0.6,0.6,1.4,0.9,2.1,0.9s1.5-0.3,2.1-0.9
		c1.2-1.2,1.2-3.1,0-4.2L180.7,176.4z"/>
	<path d="M119.3,123.6c0.6,0.6,1.4,0.9,2.1,0.9s1.5-0.3,2.1-0.9c1.2-1.2,1.2-3.1,0-4.2l-15.4-15.4c-1.2-1.2-3.1-1.2-4.2,0
		c-1.2,1.2-1.2,3.1,0,4.2L119.3,123.6z"/>
	<path d="M119.3,176.4l-15.4,15.4c-1.2,1.2-1.2,3.1,0,4.2c0.6,0.6,1.4,0.9,2.1,0.9s1.5-0.3,2.1-0.9l15.4-15.4c1.2-1.2,1.2-3.1,0-4.2
		C122.4,175.2,120.5,175.2,119.3,176.4z"/>
	<path d="M178.5,124.5c0.8,0,1.5-0.3,2.1-0.9l15.4-15.4c1.2-1.2,1.2-3.1,0-4.2c-1.2-1.2-3.1-1.2-4.2,0l-15.4,15.4
		c-1.2,1.2-1.2,3.1,0,4.2C177,124.2,177.8,124.5,178.5,124.5z"/>
</g>
</svg>
