<?xml version="1.0" encoding="utf-8"?>
<!-- Generator: Adobe Illustrator 21.1.0, SVG Export Plug-In . SVG Version: 6.00 Build 0)  -->
<svg version="1.1" id="Layer_1" xmlns="http://www.w3.org/2000/svg" xmlns:xlink="http://www.w3.org/1999/xlink" x="0px" y="0px"
	 viewBox="0 0 200 200" style="enable-background:new 0 0 200 200;" xml:space="preserve">
<style type="text/css">
	.st0{fill:#404040;}
</style>
<path class="st0" d="M113.1,70.7c-5.9,0-9.4,2.4-11.3,4.4l-0.4-2c1.9-0.6,3.3-2.4,3.3-4.5c0-2.6-2.1-4.8-4.8-4.8
	c-2.6,0-4.8,2.1-4.8,4.8c0,2,1.3,3.8,3.1,4.4L98,74.9c-1.9-1.9-5.4-4.2-11.1-4.2c-10,0-23.2,0-23.2,0s1.6,14.2,12.7,14.2
	c8.1,0,17,0,21.1,0l0.4,14c-9.8-0.3-12.1-2.8-12.1-4.3c0-1.1,0.8-2.2,2.2-2.2c0.6,0,1.2,0.1,1.7,0.2c0.4,1.5,1.8,2.7,3.5,2.7
	c2,0,3.6-1.6,3.6-3.6c0-2-1.6-3.6-3.6-3.6c0,0-10.9,0-10.9,6.8c0,3.8,4.9,5.7,9.5,6.5c-1.6,1.5-2.1,3.3-2.1,4.4
	c0,3.6,3.6,5.6,7.1,7.3c-2.1,1.4-3.7,3.2-3.7,5.9c0,2.7,2.2,4.3,4.6,5.7c-1.5,1.3-2.7,2.8-2.7,5c0,4.6,4.1,6.4,4.1,6.4l0.1-0.1l0,0
	h1.5l0,0c0.2-0.1,4-1.9,4-6.4c0-2.2-1.2-3.7-2.7-5c2.3-1.4,4.6-3,4.6-5.7c0-2.8-1.6-4.6-3.7-5.9c3.5-1.7,7.1-3.6,7.1-7.3
	c0-1.2-0.5-3-2.1-4.4c4.6-0.9,9.5-2.7,9.5-6.5c0-6.8-10.9-6.8-10.9-6.8c-2,0-3.6,1.6-3.6,3.6c0,2,1.6,3.6,3.6,3.6
	c1.7,0,3.1-1.1,3.5-2.7c0.5-0.1,1.1-0.2,1.7-0.2c1.4,0,2.2,1,2.2,2.2c0,1.4-2.3,4-12,4.3l0.4-14c4.1,0,13.1,0,21.4,0
	c11.1,0,12.7-14.2,12.7-14.2S123.1,70.7,113.1,70.7z M92.8,105.9c0-2.3,3-3.2,5.3-3.5l0.3,8.5C95.4,109.5,92.8,108.3,92.8,105.9z
	 M95.9,118.9c0-1.5,1.1-2.6,2.6-3.6l0.2,7.1C97.2,121.4,95.9,120.3,95.9,118.9z M96.7,129.8c0-1.2,0.9-2.2,2.1-3.1l0.2,7.5
	C98.1,133.5,96.7,132,96.7,129.8z M102.9,129.8c0,2.2-1.3,3.6-2.3,4.4l0.2-7.4C102.1,127.6,102.9,128.6,102.9,129.8z M101,122.4
	l0.2-7c1.5,1,2.5,2.1,2.5,3.5C103.8,120.3,102.6,121.4,101,122.4z M101.4,110.8l0.3-8.5c2.3,0.3,5.2,1.2,5.2,3.5
	C106.9,108.2,104.3,109.5,101.4,110.8z"/>
</svg>
