<?xml version="1.0" encoding="utf-8"?>
<!-- Generator: Adobe Illustrator 24.2.3, SVG Export Plug-In . SVG Version: 6.00 Build 0)  -->
<svg version="1.1" id="Layer_1" xmlns="http://www.w3.org/2000/svg" xmlns:xlink="http://www.w3.org/1999/xlink" x="0px" y="0px"
	 viewBox="0 0 300 300" style="enable-background:new 0 0 300 300;" xml:space="preserve">
<g>
	<path d="M121.7,145.4h-5.2c-5,0-9,4-9,9v5.2c0,5,4,9,9,9h5.2c5,0,9-4,9-9v-5.2C130.7,149.5,126.7,145.4,121.7,145.4z M124.7,159.7
		c0,1.7-1.3,3-3,3h-5.2c-1.7,0-3-1.3-3-3v-5.2c0-1.7,1.3-3,3-3h5.2c1.7,0,3,1.3,3,3V159.7z"/>
	<path d="M183,145.4h-5.2c-5,0-9,4-9,9v5.2c0,5,4,9,9,9h5.2c5,0,9-4,9-9v-5.2C192,149.5,188,145.4,183,145.4z M186,159.7
		c0,1.7-1.3,3-3,3h-5.2c-1.7,0-3-1.3-3-3v-5.2c0-1.7,1.3-3,3-3h5.2c1.7,0,3,1.3,3,3V159.7z"/>
	<path d="M152.4,145.4h-5.2c-5,0-9,4-9,9v5.2c0,5,4,9,9,9h5.2c5,0,9-4,9-9v-5.2C161.4,149.5,157.3,145.4,152.4,145.4z M155.4,159.7
		c0,1.7-1.3,3-3,3h-5.2c-1.7,0-3-1.3-3-3v-5.2c0-1.7,1.3-3,3-3h5.2c1.7,0,3,1.3,3,3V159.7z"/>
	<path d="M121.7,174.1h-5.2c-5,0-9,4-9,9v5.2c0,5,4,9,9,9h5.2c5,0,9-4,9-9v-5.2C130.7,178.1,126.7,174.1,121.7,174.1z M124.7,188.3
		c0,1.7-1.3,3-3,3h-5.2c-1.7,0-3-1.3-3-3v-5.2c0-1.7,1.3-3,3-3h5.2c1.7,0,3,1.3,3,3V188.3z"/>
	<path d="M152.4,174.1h-5.2c-5,0-9,4-9,9v5.2c0,5,4,9,9,9h5.2c5,0,9-4,9-9v-5.2C161.4,178.1,157.3,174.1,152.4,174.1z M155.4,188.3
		c0,1.7-1.3,3-3,3h-5.2c-1.7,0-3-1.3-3-3v-5.2c0-1.7,1.3-3,3-3h5.2c1.7,0,3,1.3,3,3V188.3z"/>
	<path d="M220.6,113.6c0,0,0-0.1,0-0.1c-0.1-10.3-8.6-18.7-19-18.7l-10.7-0.1c-3.9,0-7-3.2-7-7c0-1.7-1.3-3-3-3s-3,1.3-3,3
		c0,3.9-3.2,7-7,7H129c-3.9,0-7-3.2-7-7c0-1.7-1.3-3-3-3s-3,1.3-3,3c0,3.9-3.2,7-7,7l-9.5,0.1c-0.2,0-0.3,0-0.5,0.1
		c-0.2,0-0.3-0.1-0.5-0.1c-10.5,0-19,8.5-19,19v82.6c0,3.8,1.1,7.5,3.2,10.6c3.5,5.2,9.4,8.4,15.8,8.4h103.2c10.5,0,19-8.5,19-19
		v-82.6C220.6,113.7,220.6,113.7,220.6,113.6C220.6,113.7,220.6,113.6,220.6,113.6z M98.4,100.8c0.2,0,0.3,0,0.5-0.1
		c0.2,0,0.3,0.1,0.5,0.1c0,0,0,0,0,0l9.5-0.1c4,0,7.6-1.8,10-4.7c2.4,2.9,6,4.7,10,4.7h41.9c4,0,7.6-1.8,10-4.7
		c2.4,2.9,6,4.7,10,4.7l10.7,0.1c7.1,0,13,5.8,13,12.9c0,6.1-5,11-11.1,11h-107c-4.2,0-8.1,1.6-11.1,4.1v-15.1
		C85.4,106.6,91.3,100.8,98.4,100.8z M201.6,209.3H98.4c-4.3,0-8.4-2.1-10.8-5.7c-1.5-2.1-2.2-4.7-2.2-7.3v-54.5
		c0-6.1,5-11.1,11.1-11.1h107c4.2,0,8.1-1.6,11.1-4.1v69.7C214.6,203.5,208.7,209.3,201.6,209.3z"/>
</g>
</svg>
