<?xml version="1.0" encoding="utf-8"?>
<!-- Generator: Adobe Illustrator 24.2.3, SVG Export Plug-In . SVG Version: 6.00 Build 0)  -->
<svg version="1.1" id="Layer_1" xmlns="http://www.w3.org/2000/svg" xmlns:xlink="http://www.w3.org/1999/xlink" x="0px" y="0px"
	 viewBox="0 0 300 300" style="enable-background:new 0 0 300 300;" xml:space="preserve">
<style type="text/css">
	.st0{fill:#1B1C20;}
</style>
<g>
	<path class="st0" d="M220.5,117.5c0-18.2-14.8-33-33-33s-33,14.8-33,33c0,2.7,0.3,5.3,0.9,7.7h-45.8c-3.1,0-5.9-1.9-7-4.7l-3.1-7.5
		c0,0,0,0,0,0c-2.4-7.3-9.9-11.9-17.5-10.7c-1.6,0.3-2.8,1.8-2.5,3.4c0.3,1.6,1.8,2.7,3.4,2.5c4.8-0.8,9.5,2.1,10.9,6.8
		c0,0.1,0,0.1,0.1,0.2c0,0,0,0.1,0,0.1l2.8,6.9c0,0,0,0,0,0c0.1,0.4,0.3,0.8,0.5,1.2l5.3,13l13.2,35.8c0,0.2,0.1,0.4,0.1,0.7
		c0.2,0.5,0.4,1,0.7,1.5l4.4,11.9c1.9,5,5.7,8.9,10.4,11.1c-1.5,1.9-2.4,4.3-2.4,7c0,6.2,5,11.2,11.2,11.2c6.2,0,11.2-5,11.2-11.2
		c0-1.9-0.5-3.7-1.3-5.2h22c-0.8,1.6-1.3,3.3-1.3,5.2c0,6.2,5,11.2,11.2,11.2s11.2-5,11.2-11.2s-5-11.2-11.2-11.2h-42.6
		c-5.7,0-10.9-3.6-12.8-8.9l-1.2-3.2c0.8,0.2,1.6,0.2,2.4,0.2l58.3,0.2c5.4,0,10.2-3.4,12-8.5l9.7-29.5
		C215.5,137.4,220.5,128,220.5,117.5z M145.5,204.3c0,2.9-2.3,5.2-5.2,5.2s-5.2-2.3-5.2-5.2s2.3-5.2,5.2-5.2
		S145.5,201.4,145.5,204.3z M187.4,204.3c0,2.9-2.3,5.2-5.2,5.2s-5.2-2.3-5.2-5.2s2.3-5.2,5.2-5.2S187.4,201.4,187.4,204.3z
		 M187.5,90.5c14.9,0,27,12.1,27,27c0,8.3-3.8,15.8-9.7,20.7c-0.8,0.2-1.6,0.7-2,1.5c-4.4,3-9.6,4.8-15.3,4.8c-14.9,0-27-12.1-27-27
		S172.6,90.5,187.5,90.5z M192.5,171c-0.9,2.7-3.5,4.5-6.3,4.5l-58.3-0.2c-2.4,0-4.6-1.3-5.8-3.4l-13.9-37.6c0,0,0-0.1,0-0.1
		l-1.3-3.2c0.9,0.2,1.8,0.3,2.7,0.3h47.9c5.2,11.3,16.7,19.3,30,19.3c4.4,0,8.7-0.9,12.5-2.5L192.5,171z"/>
	<path class="st0" d="M180.8,128.7c0.6,0.6,1.3,0.9,2.1,0.9s1.6-0.3,2.1-0.9l16.2-16.2c1.2-1.2,1.2-3.1,0-4.2
		c-1.2-1.2-3.1-1.2-4.2,0L183,122.3l-5.1-5.1c-1.2-1.2-3.1-1.2-4.2,0c-1.2,1.2-1.2,3.1,0,4.2L180.8,128.7z"/>
</g>
</svg>
