<?xml version="1.0" encoding="utf-8"?>
<!-- Generator: Adobe Illustrator 24.2.3, SVG Export Plug-In . SVG Version: 6.00 Build 0)  -->
<svg version="1.1" id="Layer_1" xmlns="http://www.w3.org/2000/svg" xmlns:xlink="http://www.w3.org/1999/xlink" x="0px" y="0px"
	 viewBox="0 0 300 300" style="enable-background:new 0 0 300 300;" xml:space="preserve">
<style type="text/css">
	.st0{fill:#1B1C20;}
</style>
<path class="st0" d="M218.2,119.7c-2.8-3.9-7.5-6.2-13-6.2h-93.8c-3.1,0-5.8-1.9-7-4.7l-3.6-8.9c0,0,0,0,0,0
	C98.2,92.1,90.2,87.1,82,88.5c-1.6,0.3-2.8,1.8-2.5,3.4s1.8,2.8,3.4,2.5c5.4-0.9,10.6,2.4,12.2,7.6c0,0.1,0,0.1,0.1,0.2
	c0,0,0,0.1,0,0.1l3.3,8.2c0,0,0,0,0,0c0.1,0.4,0.3,0.8,0.5,1.2l5.6,13.7l20.1,54.6c2.1,5.5,6.3,9.8,11.6,12.1
	c-1.8,2.1-2.8,4.8-2.8,7.7c0,6.6,5.4,12,12,12c6.6,0,12-5.4,12-12c0-2.2-0.6-4.2-1.6-6H181c-1,1.8-1.6,3.8-1.6,6c0,6.6,5.4,12,12,12
	s12-5.4,12-12s-5.4-12-12-12h-46.6c-6.3,0-12.1-4-14.3-9.9l-1.5-4c1,0.3,2.1,0.4,3.2,0.4l63.7,0.2c5.8,0,10.9-3.6,12.8-9.1
	l11.1-33.7C221.2,127.5,220.6,123.2,218.2,119.7z M151.6,199.8c0,3.3-2.7,6-6,6s-6-2.7-6-6c0-3.3,2.7-6,6-6S151.6,196.5,151.6,199.8
	z M197.4,199.8c0,3.3-2.7,6-6,6c-3.3,0-6-2.7-6-6c0-3.3,2.7-6,6-6C194.7,193.8,197.4,196.5,197.4,199.8z M214.1,129.7l-11.1,33.7
	c-1.1,3-3.9,5.1-7.1,5.1l-63.7-0.2c-3.2,0-6.1-2-7.1-5.1c0,0,0-0.1,0-0.1l-14.7-39.8c0,0,0-0.1,0-0.1l-1.6-3.9
	c0.9,0.2,1.8,0.3,2.7,0.3h93.8c3.5,0,6.4,1.3,8.1,3.6C214.6,125.1,214.9,127.4,214.1,129.7z"/>
</svg>
