<?xml version="1.0" encoding="utf-8"?>
<!-- Generator: Adobe Illustrator 24.2.3, SVG Export Plug-In . SVG Version: 6.00 Build 0)  -->
<svg version="1.1" id="Layer_1" xmlns="http://www.w3.org/2000/svg" xmlns:xlink="http://www.w3.org/1999/xlink" x="0px" y="0px"
	 viewBox="0 0 300 300" style="enable-background:new 0 0 300 300;" xml:space="preserve">
<style type="text/css">
	<!-- .st0{fill:#1B1C20;} -->
</style>
<g>
	<path class="st0" d="M98,215.8c-0.9,0-1.8-0.4-2.3-1.1s-0.8-1.6-0.6-2.5l0-0.1c0.1-0.4,0.2-0.7,0.4-1c3.5-5.3,4.6-11.8,3.2-18
		c-1.4-6.2-7.2-12.5-7.3-12.6c-0.1-0.1-0.1-0.2-0.2-0.2c-2.7-3.6-5-7.4-6.7-11.3c-3.3-7.2-4.9-14.9-4.9-22.7
		c0-34.1,31.6-61.8,70.4-61.8c38.8,0,70.4,27.7,70.4,61.8c0,34.1-31.6,61.8-70.4,61.8c-9.7,0-19.1-1.7-27.9-5
		C116.8,210.9,107.8,215.8,98,215.8z M95.9,176.4c1,1.1,7,7.9,8.6,15.2c1.4,5.9,0.9,12-1.3,17.6c6.4-1.5,11.9-5.6,15.1-11.5
		c0.7-1.4,2.4-1.9,3.8-1.3c8.8,3.7,18.2,5.5,28,5.5c35.5,0,64.4-25,64.4-55.8c0-30.8-28.9-55.8-64.4-55.8s-64.4,25-64.4,55.8
		c0,7,1.5,13.8,4.4,20.2C91.5,169.8,93.5,173.2,95.9,176.4z"/>
</g>
</svg>
