<?xml version="1.0" encoding="utf-8"?>
<!-- Generator: Adobe Illustrator 24.2.3, SVG Export Plug-In . SVG Version: 6.00 Build 0)  -->
<svg version="1.1" id="Layer_1" xmlns="http://www.w3.org/2000/svg" xmlns:xlink="http://www.w3.org/1999/xlink" x="0px" y="0px"
	 viewBox="0 0 300 300" style="enable-background:new 0 0 300 300;" xml:space="preserve">
<style type="text/css">
	<!-- .st0{fill:#1B1C20;} -->
</style>
<g>
	<path class="st0" d="M176,131h-7.7v-7.7c0-1.7-1.3-3-3-3s-3,1.3-3,3v7.7h-7.7c-1.7,0-3,1.3-3,3s1.3,3,3,3h7.7v7.7c0,1.7,1.3,3,3,3
		s3-1.3,3-3V137h7.7c1.7,0,3-1.3,3-3S177.6,131,176,131z"/>
	<path class="st0" d="M164.5,84.1c-30.8,0-55.8,22-55.8,49.1c0,0.7,0,1.5,0.1,2.2c-17.5,5.6-29,20.1-29,36.6c0,8.4,3,16.3,8.5,23
		c0.1,0.1,0.1,0.2,0.2,0.3c4,4.4,4.4,10.9,1.2,15.8c-0.2,0.3-0.4,0.7-0.4,1.1c-0.2,0.9,0,1.8,0.6,2.5c0.6,0.7,1.4,1.1,2.3,1.1
		c6.1,0,11.7-2.9,15.2-7.7c5.3,1.9,10.8,2.8,16.6,2.8c20,0,37.6-12,42.8-28.8c6.7-0.2,13.2-1.5,19.3-3.7c4.3,6.2,11.5,10,19.2,10
		c0.9,0,1.8-0.4,2.3-1.1c0.6-0.7,0.8-1.6,0.6-2.5l0-0.1c-0.1-0.4-0.2-0.7-0.4-1c-2.6-4-3.5-8.9-2.4-13.7c1-4.7,5.5-9.5,5.5-9.5
		c0.1-0.1,0.1-0.2,0.2-0.3c2.1-2.8,3.9-5.9,5.4-9c2.6-5.7,3.9-11.8,3.9-18C220.3,106.1,195.3,84.1,164.5,84.1z M124,205
		c-5.8,0-11.4-1.1-16.7-3.3c0,0-0.1,0-0.1,0c-0.1,0-0.2-0.1-0.3-0.1c-0.1,0-0.2,0-0.3-0.1c-0.1,0-0.2,0-0.3,0c-0.1,0-0.2,0-0.3,0
		c-0.1,0-0.2,0-0.3,0c-0.1,0-0.2,0-0.3,0.1c-0.1,0-0.2,0.1-0.3,0.1c-0.1,0-0.2,0.1-0.3,0.1c-0.1,0-0.2,0.1-0.3,0.1
		c-0.1,0-0.2,0.1-0.2,0.2c-0.1,0.1-0.2,0.1-0.2,0.2c-0.1,0.1-0.1,0.1-0.2,0.2c-0.1,0.1-0.1,0.1-0.2,0.2c-0.1,0.1-0.1,0.2-0.2,0.3
		c0,0-0.1,0.1-0.1,0.1c-1.4,2.6-3.7,4.7-6.4,5.8c1.6-5.9,0.2-12.3-3.9-17.1c0-0.1-0.1-0.1-0.1-0.2c-4.9-5.7-7.4-12.5-7.4-19.5
		c0-13.6,9.4-25.5,23.8-30.5c4.3,22,25.2,39,51,40.6C155.4,195.6,140.7,205,124,205z M210.9,148.8c-1.2,2.7-2.8,5.3-4.6,7.7
		c-0.9,0.9-5.6,6.4-6.9,12.2c-1,4.3-0.8,8.8,0.6,13c-4.3-1.3-8-4.3-10.2-8.4c-0.5-1-1.6-1.6-2.6-1.6c-0.4,0-0.8,0.1-1.2,0.2
		c-6.8,2.8-14.1,4.3-21.6,4.3c-27.5,0-49.8-19.3-49.8-43.1s22.4-43.1,49.8-43.1c27.5,0,49.8,19.3,49.8,43.1
		C214.3,138.6,213.2,143.8,210.9,148.8z"/>
</g>
</svg>
