<?xml version="1.0" encoding="utf-8"?>
<!-- Generator: Adobe Illustrator 24.2.3, SVG Export Plug-In . SVG Version: 6.00 Build 0)  -->
<svg version="1.1" id="Layer_1" xmlns="http://www.w3.org/2000/svg" xmlns:xlink="http://www.w3.org/1999/xlink" x="0px" y="0px"
	 viewBox="0 0 300 300" style="enable-background:new 0 0 300 300;" xml:space="preserve">
<path d="M196.3,104.1c-0.1-0.1-0.1-0.1-0.2-0.2c-0.1-0.1-0.1-0.1-0.2-0.2c-11.8-11.7-28-19-45.9-19c-36,0-65.3,29.3-65.3,65.3
	c0,17.9,7.2,34.1,19,45.9c0.1,0.1,0.1,0.1,0.2,0.2c0.1,0.1,0.1,0.1,0.2,0.2c11.8,11.7,28,19,45.9,19c36,0,65.3-29.3,65.3-65.3
	C215.3,132.1,208,115.9,196.3,104.1z M150,90.7c15.3,0,29.2,5.8,39.7,15.3L106,189.7c-9.5-10.5-15.3-24.4-15.3-39.7
	C90.7,117.3,117.3,90.7,150,90.7z M150,209.3c-15.3,0-29.2-5.8-39.7-15.3l83.7-83.7c9.5,10.5,15.3,24.4,15.3,39.7
	C209.3,182.7,182.7,209.3,150,209.3z"/>
</svg>
