<?xml version="1.0" encoding="utf-8"?>
<!-- Generator: Adobe Illustrator 24.2.3, SVG Export Plug-In . SVG Version: 6.00 Build 0)  -->
<svg version="1.1" id="Layer_1" xmlns="http://www.w3.org/2000/svg" xmlns:xlink="http://www.w3.org/1999/xlink" x="0px" y="0px"
	 viewBox="0 0 300 300" style="enable-background:new 0 0 300 300;" xml:space="preserve">
<g>
	<path d="M102.8,138.8h54.8c1.7,0,3-1.3,3-3s-1.3-3-3-3h-54.8c-1.7,0-3,1.3-3,3S101.1,138.8,102.8,138.8z"/>
	<path d="M134.9,149.3h-32.1c-1.7,0-3,1.3-3,3c0,1.7,1.3,3,3,3h32.1c1.7,0,3-1.3,3-3C137.9,150.6,136.6,149.3,134.9,149.3z"/>
	<path d="M190.6,150.4v-35c0-10.5-8.5-19-19-19h-14c-0.1,0-0.1,0-0.2,0c-0.1,0-0.1,0-0.2,0c-2.1,0-4.1-1.1-5.2-3
		c-0.1-0.2-0.2-0.3-0.4-0.5c-3.6-5.7-10-9.2-16.7-9.2c-6.9,0-13.5,3.7-17,9.7c-0.1,0.2-0.2,0.3-0.2,0.5c-1.1,1.5-2.9,2.5-4.8,2.5
		H98.2c-9.6,0-17.6,7.2-18.8,16.4c-0.1,0.3-0.2,0.7-0.2,1v83.4c0,10.5,8.5,19,19,19h73.4c2.4,0,4.7-0.5,6.9-1.3
		c2.9,0.9,6,1.3,9.3,1.3c18.2,0,33-14.8,33-33C220.8,166,207.5,151.8,190.6,150.4z M123.2,96.4c0.1-0.2,0.2-0.3,0.2-0.5
		c2.6-3.9,6.8-6.2,11.5-6.2c4.9,0,9.4,2.6,11.9,6.8c0.1,0.1,0.2,0.3,0.3,0.4c2.2,3.4,6,5.5,10,5.5c0.1,0,0.1,0,0.2,0
		c0.1,0,0.1,0,0.2,0h1.5c-0.7,1.4-1,2.9-1,4.5c0,0,0,0,0,0c0,0,0,0,0,0c0,2.8-2.2,5-5,5h-36.3c-2.8,0-5-2.2-5-5c0,0,0,0,0,0
		c0,0,0,0,0,0c0-1.6-0.4-3.1-1-4.5h2.1C117.1,102.4,121.1,100.1,123.2,96.4z M98.2,210.3c-7.2,0-13-5.8-13-13v-81.9
		c0-7.2,5.8-13,13-13h3c2.5,0,4.5,2,4.5,4.5c0,0,0,0,0,0c0,0,0,0,0,0c0,6.1,4.9,11,11,11h36.3c6.1,0,11-4.9,11-11c0,0,0,0,0,0
		c0,0,0,0,0,0c0-2.5,2-4.5,4.5-4.5h3c7.2,0,13,5.8,13,13v35c-16.7,1.6-29.8,15.7-29.8,32.8c0,11.2,5.6,21,14.1,27H98.2z
		 M187.8,210.3c-14.9,0-27-12.1-27-27s12.1-27,27-27s27,12.1,27,27S202.7,210.3,187.8,210.3z"/>
	<path d="M197.4,174l-14.1,14.1l-5.1-5.1c-1.2-1.2-3.1-1.2-4.2,0c-1.2,1.2-1.2,3.1,0,4.2l7.2,7.2c0.6,0.6,1.3,0.9,2.1,0.9
		s1.6-0.3,2.1-0.9l16.2-16.2c1.2-1.2,1.2-3.1,0-4.2C200.4,172.8,198.5,172.8,197.4,174z"/>
	<path d="M134.9,103.1c2.1,0,3.7-1.7,3.7-3.7s-1.7-3.7-3.7-3.7c-2.1,0-3.7,1.7-3.7,3.7S132.9,103.1,134.9,103.1z"/>
</g>
</svg>
