<?xml version="1.0" encoding="utf-8"?>
<!-- Generator: Adobe Illustrator 24.2.3, SVG Export Plug-In . SVG Version: 6.00 Build 0)  -->
<svg version="1.1" id="Layer_1" xmlns="http://www.w3.org/2000/svg" xmlns:xlink="http://www.w3.org/1999/xlink" x="0px" y="0px"
	 viewBox="0 0 300 300" style="enable-background:new 0 0 300 300;" xml:space="preserve">
<g>
	<path d="M150,84.7c-36,0-65.3,29.3-65.3,65.3s29.3,65.3,65.3,65.3s65.3-29.3,65.3-65.3S186,84.7,150,84.7z M150,209.3
		c-32.7,0-59.3-26.6-59.3-59.3s26.6-59.3,59.3-59.3s59.3,26.6,59.3,59.3S182.7,209.3,150,209.3z"/>
	<path d="M162.4,162.3c-8.8,0-15.9-7.2-15.9-15.9v-13.2c0-1.7-1.3-3-3-3s-3,1.3-3,3v13.2c0,12.1,9.8,21.9,21.9,21.9c1.7,0,3-1.3,3-3
		S164,162.3,162.4,162.3z"/>
</g>
</svg>
