<?xml version="1.0" encoding="utf-8"?>
<!-- Generator: Adobe Illustrator 24.2.3, SVG Export Plug-In . SVG Version: 6.00 Build 0)  -->
<svg version="1.1" id="Layer_1" xmlns="http://www.w3.org/2000/svg" xmlns:xlink="http://www.w3.org/1999/xlink" x="0px" y="0px"
	 viewBox="0 0 300 300" style="enable-background:new 0 0 300 300;" xml:space="preserve">
<path d="M209.9,157.6c-0.1,0-0.1-0.1-0.2-0.1l-16.3-6.9l1.2-0.5c0,0,0.1,0,0.1,0c6.6-2.9,11-9.2,11.6-16.3c0-0.5,0.1-1,0.1-1.4
	c0-0.3,0-2.7,0-3.1c-0.1-2.9-0.8-5.7-2-8.3c-3.3-7.2-10.2-12-17.8-12.5c0,0-0.1,0-0.1,0c0,0,0,0,0,0l-0.6,0l-0.6,0c0,0,0,0,0,0
	c0,0-0.1,0-0.1,0c-3.6,0.2-7.1,1.4-10.1,3.4c0-1,0-2.1,0-2.4c-0.1-3.5-1-7-2.4-10.2c-4.1-8.8-12.4-14.6-21.7-15.2c0,0,0,0-0.1,0
	c0,0,0,0-0.1,0l-0.7,0l-0.7,0c0,0,0,0-0.1,0c0,0,0,0-0.1,0c-9.3,0.6-17.7,6.4-21.7,15.2c-1.5,3.2-2.3,6.6-2.4,10.2
	c0,0.3,0,1.4,0,2.4c-3-2-6.4-3.2-10.1-3.4c0,0-0.1,0-0.1,0c0,0,0,0,0,0l-0.6,0l-0.6,0c0,0,0,0,0,0c0,0-0.1,0-0.1,0
	c-7.7,0.5-14.5,5.3-17.8,12.5c-1.2,2.6-1.9,5.4-2,8.3c0,0.4,0,2.9,0,3.1c0,0.5,0,1,0.1,1.4c0.6,7.1,5,13.3,11.6,16.3
	c0,0,0.1,0,0.1,0l1.2,0.5l-16.3,6.9c-0.1,0-0.1,0-0.2,0.1c-6.4,3.2-10.5,9.9-10.5,17.1v16c0,2.9,1.2,17.2,25.2,17.2h2.4
	c4.3,4.3,11.9,8,25.4,8h34.8c13.5,0,21.1-3.7,25.4-8h2.4c24,0,25.2-14.3,25.2-17.2v-16C220.4,167.5,216.3,160.7,209.9,157.6z
	 M185.4,114.4l0.4,0l0.4,0c5.4,0.4,10.3,3.8,12.7,9c0.9,1.9,1.4,3.9,1.5,6.1c0,0.3,0,2.5,0,2.8c0,0.3,0,0.7,0,1
	c-0.4,4.9-3.5,9.2-8,11.3l-6.6,2.7c-0.1,0-0.2-0.1-0.2-0.1c-0.1,0-0.1-0.1-0.2-0.1l-5.5-2.2l-0.5-0.2c-4.6-2.1-7.7-6.4-8.1-11.3
	c0-0.3,0-0.7,0-1c0-0.3,0-2.5,0-2.8c0.1-2.1,0.6-4.1,1.5-6.1C175.1,118.2,179.9,114.8,185.4,114.4z M165.2,132.2
	C165.2,132.3,165.2,132.3,165.2,132.2c0,0.6,0,1.1,0.1,1.5c0.2,2,0.6,3.9,1.4,5.7l-8.7-3.5l2.8-1.1c0,0,0.1,0,0.1,0
	C162.4,134.1,163.9,133.2,165.2,132.2z M131,109.6c0.1-2.7,0.7-5.4,1.9-7.9c3.1-6.7,9.5-11.2,16.6-11.7l0.6,0l0.6,0
	c7.1,0.5,13.4,5,16.6,11.7c1.2,2.5,1.8,5.1,1.9,7.9c0,0.3,0,3.2,0,3.6c0,0.4,0,0.9-0.1,1.3c-0.2,2.3-0.8,4.5-1.9,6.6
	c-1.9,3.6-4.9,6.5-8.6,8.2l-8.5,3.4l-8.5-3.4c-6-2.7-10-8.4-10.5-14.8c0-0.4-0.1-0.9-0.1-1.3C131,112.8,131,110,131,109.6z
	 M134.7,133.8c0-0.5,0.1-1,0.1-1.4c0,0,0,0,0-0.1c1.3,1,2.8,1.8,4.3,2.5c0,0,0.1,0,0.1,0l2.8,1.1l-8.7,3.5
	C134.1,137.7,134.6,135.7,134.7,133.8z M99.7,133.3c0-0.3,0-0.7,0-1c0-0.3,0-2.5,0-2.8c0.1-2.1,0.6-4.1,1.5-6.1
	c2.4-5.2,7.2-8.6,12.7-9l0.4,0l0.4,0c5.4,0.4,10.3,3.8,12.7,9c0.9,1.9,1.4,4,1.5,6c0,0.3,0,2.5,0,2.8c0,0.3,0,0.7,0,1
	c-0.4,4.9-3.5,9.3-8,11.3l-0.5,0.2l-5.5,2.2c-0.1,0-0.1,0.1-0.2,0.1c-0.1,0-0.2,0.1-0.2,0.1l-6.6-2.7
	C103.2,142.5,100.1,138.2,99.7,133.3z M85.6,190.8v-16c0-5,2.8-9.5,7.1-11.7l11.2-4.8c-1.3,3-2.1,6.3-2.1,9.6v27.3
	c0,1.1,0.2,3.7,1.4,6.7C86.9,201.4,85.6,193.3,85.6,190.8z M167.4,209.9h-34.8c-23,0-24.8-11.3-24.8-14.8v-27.3
	c0-6.2,3.3-11.9,8.4-14.9l6.2-2.6l27.6-11.2l27.5,11.1l6.3,2.7c5.1,3,8.4,8.7,8.4,14.9v27.3C192.2,198.6,190.4,209.9,167.4,209.9z
	 M214.4,190.8c0,2.5-1.3,10.7-17.6,11.2c1.2-3,1.4-5.6,1.4-6.7v-27.3c0-3.4-0.7-6.7-2.1-9.6l11.2,4.8c4.3,2.2,7.1,6.8,7.1,11.7
	V190.8z"/>
</svg>
