<?xml version="1.0" encoding="utf-8"?>
<!-- Generator: Adobe Illustrator 24.2.3, SVG Export Plug-In . SVG Version: 6.00 Build 0)  -->
<svg version="1.1" id="Layer_1" xmlns="http://www.w3.org/2000/svg" xmlns:xlink="http://www.w3.org/1999/xlink" x="0px" y="0px"
	 viewBox="0 0 300 300" style="enable-background:new 0 0 300 300;" xml:space="preserve">
<g>
	<path d="M200.9,84.6H99.1c-10.5,0-19,8.5-19,19v92.9c0,10.5,8.5,19,19,19h101.9c10.5,0,19-8.5,19-19v-92.9
		C219.9,93.1,211.4,84.6,200.9,84.6z M99.1,90.6h101.9c7.2,0,13,5.8,13,13s-5.8,13-13,13H99.1c-5,0-9.6,2-13,5.2v-18.2
		C86.1,96.4,91.9,90.6,99.1,90.6z M200.9,209.4H99.1c-7.2,0-13-5.8-13-13v-60.9c0-7.2,5.8-13,13-13h101.9c5,0,9.6-2,13-5.2v79.1
		C213.9,203.6,208.1,209.4,200.9,209.4z"/>
	<path d="M153.2,160.8V147c2.4,1.1,4.1,3.6,4.1,6.4c0,1.7,1.3,3,3,3s3-1.3,3-3c0-6.2-4.3-11.4-10.1-12.7v-2.3c0-1.7-1.3-3-3-3
		c-1.7,0-3,1.3-3,3v2.3c-5.8,1.4-10.1,6.5-10.1,12.7c0,6.2,4.3,11.4,10.1,12.7v17.7c-3.5-1.2-5.9-4.5-5.9-8.4c0-1.7-1.3-3-3-3
		s-3,1.3-3,3c0,7.2,5.1,13.2,11.9,14.6v2.2c0,1.7,1.3,3,3,3c1.7,0,3-1.3,3-3v-2.2c6.8-1.4,11.9-7.4,11.9-14.6S160,162.2,153.2,160.8
		z M143.1,153.4c0-2.8,1.7-5.3,4.1-6.4v12.8C144.8,158.7,143.1,156.2,143.1,153.4z M153.2,183.8V167c3.5,1.2,5.9,4.5,5.9,8.4
		S156.6,182.6,153.2,183.8z"/>
</g>
</svg>
