<?xml version="1.0" encoding="utf-8"?>
<!-- Generator: Adobe Illustrator 24.2.3, SVG Export Plug-In . SVG Version: 6.00 Build 0)  -->
<svg version="1.1" id="Layer_1" xmlns="http://www.w3.org/2000/svg" xmlns:xlink="http://www.w3.org/1999/xlink" x="0px" y="0px"
	 viewBox="0 0 300 300" style="enable-background:new 0 0 300 300;" xml:space="preserve">
<style type="text/css">
</style>
<path  d="M86,214c0.6,0.6,1.4,0.9,2.1,0.9s1.5-0.3,2.1-0.9l2.2-2.2c0.5-0.5,1.2-0.7,1.9-0.6c1.2,0.5,2.4,0.7,3.7,0.7
	c0.7,0,1.5-0.1,2.2-0.3l17.2-4.2c1.9-0.5,3.5-1.5,4.7-2.8c0.1-0.1,0.2-0.1,0.3-0.2l87-87c3.6-3.6,5.6-8.3,5.6-13.4
	c0-5.1-2-9.8-5.6-13.4c-3.6-3.6-8.3-5.6-13.4-5.6c-5.1,0-9.8,2-13.4,5.6c0,0,0,0,0,0l-87,87c-1.4,1.4-2.4,3.2-2.9,5.1
	c0,0.1,0,0.2,0,0.3L88.4,200c-0.4,1.5-0.3,3,0,4.5c0,0.3,0.1,0.5,0.2,0.8c0.3,0.8,0.1,1.7-0.5,2.3l-2.2,2.2
	C84.8,211,84.8,212.9,86,214z M205.1,113.2l-3.8,3.8c-0.5-1.4-1.3-2.8-2.5-3.9l-6.6-6.6c-1.2-1.2-3.1-1.2-4.2,0s-1.2,3.1,0,4.2
	l6.6,6.6c1.8,1.8,1.8,4.6,0,6.4l-71.2,71.2c-0.5-1.1-1.2-2.2-2.1-3.1l-5.9-5.9l-6.6-6.6c-1.8-1.8-1.8-4.7,0-6.4c0,0,0,0,0,0
	l77.9-77.9c0,0,0,0,0,0c2.4-2.4,5.7-3.8,9.2-3.8c3.5,0,6.7,1.3,9.2,3.8c2.4,2.4,3.8,5.7,3.8,9.2
	C208.9,107.5,207.6,110.8,205.1,113.2z M98.8,205.9c-0.5,0.1-1.1,0.1-1.6,0c-0.1-0.1-0.2-0.1-0.3-0.2c-0.2-0.1-0.3-0.1-0.5-0.1
	c-0.4-0.2-0.7-0.4-1-0.7c-0.9-0.9-1.3-2.2-1-3.5l4.2-17.2c0-0.1,0-0.1,0-0.2c0.2-0.8,0.7-1.6,1.3-2.2l2.4-2.4
	c0.5,1.4,1.3,2.8,2.5,3.9l6.1,6.1c0,0,0,0,0,0l6.5,6.5c1,1,1.4,2.3,1,3.6c-0.1,0.5-0.6,1.8-2.2,2.1L98.8,205.9z"/>
</svg>
