<?xml version="1.0" encoding="utf-8"?>
<!-- Generator: Adobe Illustrator 24.2.3, SVG Export Plug-In . SVG Version: 6.00 Build 0)  -->
<svg version="1.1" id="Layer_1" xmlns="http://www.w3.org/2000/svg" xmlns:xlink="http://www.w3.org/1999/xlink" x="0px" y="0px"
	 viewBox="0 0 300 300" style="enable-background:new 0 0 300 300;" xml:space="preserve">
<style type="text/css">
	.st0{fill:#FFFFFF;}
</style>
<g>
	<path d="M215.1,150.5c0-35.9-29.1-65.1-65.1-65.1s-65.1,29.1-65.1,65.1c0,32.5,23.8,59.4,54.9,64.3v-45.5h-16.5v-18.8h16.5v-14.3
		c0-16.3,9.7-25.3,24.6-25.3c7.1,0,14.6,1.3,14.6,1.3v16h-8.2c-8.1,0-10.6,5-10.6,10.2v12.2h18.1l-2.9,18.8h-15.2v45.5
		C191.3,209.9,215.1,183,215.1,150.5z"/>
	<path class="st0" d="M175.3,169.3l2.9-18.8h-18.1v-12.2c0-5.1,2.5-10.2,10.6-10.2h8.2v-16c0,0-7.4-1.3-14.6-1.3
		c-14.9,0-24.6,9-24.6,25.3v14.3h-16.5v18.8h16.5v45.5c3.3,0.5,6.7,0.8,10.2,0.8s6.9-0.3,10.2-0.8v-45.5H175.3z"/>
</g>
</svg>
