<?xml version="1.0" encoding="utf-8"?>
<!-- Generator: Adobe Illustrator 24.2.3, SVG Export Plug-In . SVG Version: 6.00 Build 0)  -->
<svg version="1.1" id="Layer_1" xmlns="http://www.w3.org/2000/svg" xmlns:xlink="http://www.w3.org/1999/xlink" x="0px" y="0px"
	 viewBox="0 0 300 300" style="enable-background:new 0 0 300 300;" xml:space="preserve">
<style type="text/css">
	.st0{fill:#1B1C20;}
</style>
<path class="st0" d="M217.9,128.6c-3.5-3.5-9.3-3.5-12.8,0l-2.2,2.2l-6.7-6.7c-1.2-1.2-3.1-1.2-4.2,0c-1.2,1.2-1.2,3.1,0,4.2
	l6.7,6.7l-9.4,9.4l-3.3-3.3v-34.2c0,0,0,0,0-0.1c0,0,0,0,0-0.1c0,0,0-0.1,0-0.1c-0.1-8.1-6.7-14.7-14.9-14.7l-8,0
	c-2.5,0-4.5-2-4.5-4.5c0-1.7-1.3-3-3-3s-3,1.3-3,3c0,2.5-2,4.5-4.5,4.5h-31.2c-2.5,0-4.5-2-4.5-4.5c0-1.7-1.3-3-3-3s-3,1.3-3,3
	c0,2.5-2,4.5-4.5,4.5l-7.1,0c-0.1,0-0.2,0-0.3,0c-0.1,0-0.2,0-0.4,0c-8.2,0-14.9,6.7-14.9,14.9v61.5c0,3,0.9,5.9,2.5,8.3
	c2.8,4.1,7.4,6.6,12.4,6.6h39.6c-1.1,3.8-0.8,7.9,0.9,11.5l-0.6,3.4c-0.1,0.4,0,0.9,0.1,1.3l-11.1,11.1c-1.2,1.2-1.2,3.1,0,4.2
	c0.6,0.6,1.4,0.9,2.1,0.9c0.8,0,1.5-0.3,2.1-0.9l11.2-11.2c0.2,0,0.4,0.1,0.5,0.1c0.2,0,0.3,0,0.5,0l3.5-0.6c2.1,1,4.4,1.5,6.7,1.5
	c4.1,0,8.3-1.6,11.4-4.7l35.3-35.3c1.2-1.2,3.2-1.2,4.3,0l1.7,1.7c0.6,0.6,1.4,0.9,2.1,0.9s1.5-0.3,2.1-0.9c1.2-1.2,1.2-3.1,0-4.2
	l-13.2-13.2l9.4-9.4l2.2,2.2c1.8,1.8,4.1,2.6,6.4,2.6s4.6-0.9,6.4-2.6C221.5,137.9,221.5,132.1,217.9,128.6z M94.3,97.9
	c0.1,0,0.2,0,0.4,0c0.1,0,0.2,0,0.4,0c0,0,0,0,0,0l7.1,0c2.9,0,5.6-1.2,7.5-3.1c1.9,1.9,4.5,3.1,7.5,3.1h31.2c2.9,0,5.6-1.2,7.5-3.1
	c1.9,1.9,4.5,3.1,7.4,3.1l8,0c4.9,0,8.9,4,8.9,8.9c0,4.1-3.4,7.4-7.5,7.4H92.9c-2.8,0-5.4,0.8-7.5,2.3v-9.7
	C85.4,101.9,89.4,97.9,94.3,97.9z M136.2,177.2H94.3c-3,0-5.7-1.5-7.4-3.9c-1-1.5-1.5-3.2-1.5-5v-40.6c0-4.1,3.4-7.5,7.5-7.5h79.6
	c2.8,0,5.4-0.8,7.5-2.3v17.1l-4.2-4.2c-1.2-1.2-3.1-1.2-4.2,0c-1.2,1.2-1.2,3.1,0,4.2l1.7,1.7c0.6,0.6,0.9,1.3,0.9,2.2
	c0,0.8-0.3,1.6-0.9,2.2L138,176.3c-0.3,0.3-0.6,0.7-0.9,1C136.8,177.3,136.5,177.2,136.2,177.2z M192.4,160.2l-7,7l-4.9-4.9
	c-1.2-1.2-3.1-1.2-4.2,0c-1.2,1.2-1.2,3.1,0,4.2l4.9,4.9l-17.1,17.1l-4.9-4.9c-1.2-1.2-3.1-1.2-4.2,0c-1.2,1.2-1.2,3.1,0,4.2
	l4.9,4.9l-2.7,2.7c-4,4-10.4,4-14.4,0l-0.5-0.5c-4-4-4-10.4,0-14.4l35.3-35.3c0.8-0.8,1.3-1.6,1.8-2.5l1.7,1.7c0,0,0,0,0,0l14,14
	C194,158.8,193.1,159.4,192.4,160.2z M213.7,137.2c-1.2,1.2-3.1,1.2-4.3,0l-2.2-2.2l2.2-2.2c1.2-1.2,3.2-1.2,4.3,0
	C214.9,134,214.9,136,213.7,137.2z"/>
</svg>
