<?xml version="1.0" encoding="utf-8"?>
<!-- Generator: Adobe Illustrator 24.2.3, SVG Export Plug-In . SVG Version: 6.00 Build 0)  -->
<svg version="1.1" id="Layer_1" xmlns="http://www.w3.org/2000/svg" xmlns:xlink="http://www.w3.org/1999/xlink" x="0px" y="0px"
	 viewBox="0 0 300 300" style="enable-background:new 0 0 300 300;" xml:space="preserve">
<style type="text/css">
	.st0{fill:#1B1C20;}
</style>
<path class="st0" d="M215.6,92.5c-2.2-2.2-5.1-3.4-8.3-3.4c-3.1,0-6,1.2-8.3,3.4l-4,4L184.6,86c-1.2-1.2-3.1-1.2-4.2,0
	c-1.2,1.2-1.2,3.1,0,4.2l10.5,10.5L175.6,116l-17.9-17.9c0,0,0,0,0,0l0,0l-2.4-2.4c-1.2-1.2-3.1-1.2-4.2,0c-1.2,1.2-1.2,3.1,0,4.2
	l2.4,2.4c2.2,2.2,2.2,5.8,0,8L103,160.9c-4.1,4.1-6.4,9.6-6.4,15.5c0,3.5,0.8,6.8,2.3,9.8c0,0,0,0.1,0,0.1l-0.9,5.1
	c-0.1,0.7,0,1.3,0.3,1.9l-16.5,16.5c-1.2,1.2-1.2,3.1,0,4.2c0.6,0.6,1.4,0.9,2.1,0.9s1.5-0.3,2.1-0.9l16.5-16.5
	c0.4,0.2,0.8,0.2,1.2,0.2c0.2,0,0.3,0,0.5,0l5.1-0.9c0.1,0,0.2-0.1,0.2-0.1c3,1.4,6.2,2.2,9.5,2.2c5.6,0,11.2-2.1,15.5-6.4
	l50.5-50.5c1.1-1.1,2.5-1.7,4-1.7c1.5,0,2.9,0.6,4,1.7l0,0l2.4,2.4c0.6,0.6,1.4,0.9,2.1,0.9s1.5-0.3,2.1-0.9c1.2-1.2,1.2-3.1,0-4.2
	l-19.9-19.9l15.2-15.2l4,4c2.3,2.3,5.3,3.4,8.3,3.4c3,0,6-1.1,8.3-3.4C220.2,104.4,220.2,97,215.6,92.5z M180.8,137.7l-10.9,10.9
	l-8-8c-1.2-1.2-3.1-1.2-4.2,0c-1.2,1.2-1.2,3.1,0,4.2l8,8l-26.3,26.3l-8-8c-1.2-1.2-3.1-1.2-4.2,0c-1.2,1.2-1.2,3.1,0,4.2l8,8
	l-4.8,4.8c-6.2,6.2-16.3,6.2-22.5,0l-0.7-0.7c-3-3-4.6-7-4.6-11.2s1.7-8.2,4.6-11.2l50.5-50.5c1.5-1.5,2.4-3.2,3-5.1l25.2,25.2
	C184,135.3,182.3,136.3,180.8,137.7z M211.4,104.8c-2.2,2.2-5.8,2.2-8,0l-4-4l4-4c1.1-1.1,2.5-1.7,4-1.7c1.5,0,2.9,0.6,4,1.7
	C213.6,98.9,213.6,102.5,211.4,104.8z"/>
</svg>
