<?xml version="1.0" encoding="utf-8"?>
<!-- Generator: Adobe Illustrator 24.2.3, SVG Export Plug-In . SVG Version: 6.00 Build 0)  -->
<svg version="1.1" id="Layer_1" xmlns="http://www.w3.org/2000/svg" xmlns:xlink="http://www.w3.org/1999/xlink" x="0px" y="0px"
	 viewBox="0 0 300 300" style="enable-background:new 0 0 300 300;" xml:space="preserve">
<style type="text/css">
	<!-- .st0{fill:#414141;} -->
</style>
<path class="st0" d="M200.9,98.3h-58.7c0,0-0.1,0-0.1,0c-2.1,0-3.9-1.2-4.6-3.1l-0.9-3.2c0,0,0-0.1,0-0.1c-1.5-4.5-5.7-7.6-10.5-7.6
	H99.1c-3.8,0-7.5,1.1-10.6,3.2c-5.3,3.5-8.4,9.4-8.4,15.8v93.6c0,10.5,8.5,19,19,19h101.8c10.5,0,19-8.5,19-19v-60.7v-18.9
	C219.9,106.8,211.4,98.3,200.9,98.3z M213.9,117.3v5.1c-3.4-3.2-8-5.2-13-5.2h-53.2c-0.1,0-0.1,0-0.2,0c-2.2,0-4.1-1.4-4.7-3.4
	L140,104c0.6,0.1,1.2,0.2,1.8,0.2c0.1,0,0.1,0,0.2,0c0,0,0,0,0,0h58.8C208.1,104.3,213.9,110.1,213.9,117.3z M213.9,196.8
	c0,7.2-5.8,13-13,13H99.1c-7.2,0-13-5.8-13-13v-93.6c0-4.3,2.1-8.4,5.7-10.8c2.1-1.4,4.7-2.2,7.3-2.2h26.9c2.2,0,4.1,1.4,4.7,3.4
	l0.7,2.5c0,0.2,0.1,0.4,0.1,0.6c0.1,0.2,0.1,0.3,0.2,0.5l5.2,18.3c0,0,0,0.1,0,0.1c1.5,4.5,5.5,7.5,10.2,7.6c0.1,0,0.2,0,0.2,0h53.4
	c7.2,0,13,5.8,13,13V196.8z"/>
</svg>
