<?xml version="1.0" encoding="utf-8"?>
<!-- Generator: Adobe Illustrator 21.1.0, SVG Export Plug-In . SVG Version: 6.00 Build 0)  -->
<svg version="1.1" id="Layer_1" xmlns="http://www.w3.org/2000/svg" xmlns:xlink="http://www.w3.org/1999/xlink" x="0px" y="0px"
	 viewBox="0 0 99.1 99.8" style="enable-background:new 0 0 99.1 99.8;" xml:space="preserve">
<style type="text/css">
	.st0{fill:#FFFFFF;}
</style>
<g>
	<path class="st0" d="M12,20h75.1c5.5,0,10-4.5,10-10s-4.5-10-10-10H12C6.5,0,2,4.5,2,10S6.5,20,12,20z"/>
	<path class="st0" d="M87.1,39.9H12c-5.5,0-10,4.5-10,10s4.5,10,10,10h75.1c5.5,0,10-4.5,10-10S92.6,39.9,87.1,39.9z"/>
	<path class="st0" d="M87.1,79.8H12c-5.5,0-10,4.5-10,10s4.5,10,10,10h75.1c5.5,0,10-4.5,10-10S92.6,79.8,87.1,79.8z"/>
</g>
</svg>
