<?xml version="1.0" encoding="utf-8"?>
<!-- Generator: Adobe Illustrator 24.2.3, SVG Export Plug-In . SVG Version: 6.00 Build 0)  -->
<svg version="1.1" id="Layer_1" xmlns="http://www.w3.org/2000/svg" xmlns:xlink="http://www.w3.org/1999/xlink" x="0px" y="0px"
	 viewBox="0 0 300 300" style="enable-background:new 0 0 300 300;" xml:space="preserve">
<g>
	<path d="M201.1,84.4H98.9c-10.5,0-19,8.5-19,19v63v30.3c0,10.5,8.5,19,19,19h102.2c10.5,0,19-8.5,19-19v-30.3v-63
		C220.1,92.9,211.6,84.4,201.1,84.4z M85.9,103.4c0-7.2,5.8-13,13-13h102.2c7.2,0,13,5.8,13,13v63c0,7.2-5.8,13-13,13H98.9
		c-7.2,0-13-5.8-13-13V103.4z M175.2,185.3v24.3h-50.5v-24.3H175.2z M85.9,196.6v-16.5c3.4,3.2,8,5.2,13,5.2h19.9v24.3H98.9
		C91.7,209.6,85.9,203.8,85.9,196.6z M201.1,209.6h-19.9v-24.3h19.9c5,0,9.6-2,13-5.2v16.5C214.1,203.8,208.3,209.6,201.1,209.6z"/>
	<path d="M114.4,140h11.4c1.9,0,3.1,0.7,3.3,1.1l4,15.2c0,0.1,0.1,0.2,0.1,0.3c0.6,1.5,2.1,2.4,3.8,2.4c0.1,0,0.2,0,0.3,0
		c1.8-0.1,3.2-1.2,3.7-2.8c0-0.1,0-0.1,0-0.2l7.1-33.8l6.1,20.8c0,0,0,0.1,0,0.1c0.5,1.5,1.9,2.4,3.6,2.6c1.7,0.1,3.3-0.7,4-2.2
		l4.9-10.3l2.1,2.1c1.7,1.7,4.5,2.8,7.5,2.8h9.1c1.7,0,3-1.3,3-3s-1.3-3-3-3h-9.1c-1.5,0-2.7-0.5-3.2-1l-5.1-5.2
		c-0.7-0.7-1.7-1-2.6-0.8c-1,0.2-1.8,0.8-2.2,1.7l-4.6,9.7l-6.8-23.3c0,0,0-0.1,0-0.1c-0.5-1.6-2.2-2.6-4-2.6
		c-1.9,0.1-3.3,1.2-3.8,2.8c0,0.1,0,0.1,0,0.2l-7,33.3l-2-7.5c0-0.1-0.1-0.2-0.1-0.3c-1.2-3-4.8-5-9-5h-11.4c-1.7,0-3,1.3-3,3
		S112.8,140,114.4,140z"/>
</g>
</svg>
