<?xml version="1.0" encoding="utf-8"?>
<!-- Generator: Adobe Illustrator 24.2.3, SVG Export Plug-In . SVG Version: 6.00 Build 0)  -->
<svg version="1.1" id="Layer_1" xmlns="http://www.w3.org/2000/svg" xmlns:xlink="http://www.w3.org/1999/xlink" x="0px" y="0px"
	 viewBox="0 0 300 300" style="enable-background:new 0 0 300 300;" xml:space="preserve">
<g>
	<path d="M127.2,104.9c7.1,0,13.7,2.8,18.6,7.9c0.1,0.2,0.3,0.3,0.5,0.4c1.9,1.6,4.3,2.5,6.9,2.5c2.8,0,5.5-1.1,7.5-3.1
		c2-2,3.1-4.7,3.1-7.5c0-2.7-1-5.3-2.8-7.2c0,0,0,0,0-0.1c0,0,0,0-0.1-0.1c-0.1-0.1-0.1-0.1-0.2-0.2c0,0-0.1-0.1-0.1-0.1
		c-8.9-8.9-20.7-13.8-33.3-13.8c-25.9,0-47,21.1-47,47c0,11.8,4.4,23.1,12.4,31.8c0,0,0.1,0.1,0.1,0.1l-0.1,0.1
		c6.9,6.2,10.8,15,10.8,24.2c0,16.2,13.2,29.4,29.4,29.4c16.2,0,29.4-13.2,29.4-29.4c0-1.7-1.3-3-3-3s-3,1.3-3,3
		c0,12.9-10.5,23.4-23.4,23.4s-23.4-10.5-23.4-23.4c0-10.6-4.4-20.8-12.2-28.1c-0.1-0.1-0.2-0.2-0.3-0.4c-7-7.6-10.8-17.4-10.8-27.7
		c0-22.6,18.4-41,41-41c11.1,0,21.5,4.4,29.3,12.3c0.8,0.9,1.3,2,1.3,3.2c0,1.2-0.5,2.4-1.4,3.3c-0.9,0.9-2,1.4-3.3,1.4
		s-2.4-0.5-3.3-1.4c0,0-0.1,0-0.1-0.1c-6-6.1-14-9.4-22.6-9.4c-17.5,0-31.7,14.2-31.7,31.7c0,7.2,2.4,14,6.8,19.7
		c0.6,0.8,1.5,1.1,2.4,1.1c0.7,0,1.3-0.2,1.9-0.6c1.3-1,1.5-2.9,0.5-4.2c-3.6-4.6-5.5-10.1-5.5-15.9
		C101.4,116.5,113,104.9,127.2,104.9z"/>
	<path d="M219,140.7c1.2-1.2,1.2-3.1,0-4.2c-1.2-1.2-3.1-1.2-4.2,0c-7,7-7,18.3,0,25.2c0.6,0.6,1.4,0.9,2.1,0.9s1.5-0.3,2.1-0.9
		c1.2-1.2,1.2-3.1,0-4.2C214.3,152.8,214.3,145.3,219,140.7z"/>
	<path d="M205.2,122.7c-1.2-1.2-3.1-1.2-4.2,0c-7.1,7.1-10.9,16.4-10.9,26.4c0,10,3.9,19.3,10.9,26.4c0.6,0.6,1.4,0.9,2.1,0.9
		s1.5-0.3,2.1-0.9c1.2-1.2,1.2-3.1,0-4.2c-5.9-5.9-9.2-13.8-9.2-22.2c0-8.4,3.3-16.2,9.2-22.2C206.3,125.8,206.3,123.9,205.2,122.7z
		"/>
	<path d="M191.4,113.2c1.2-1.2,1.2-3.1,0-4.2c-1.2-1.2-3.1-1.2-4.2,0c-22.1,22.1-22.1,58.1,0,80.3c0.6,0.6,1.4,0.9,2.1,0.9
		s1.5-0.3,2.1-0.9c1.2-1.2,1.2-3.1,0-4.2C171.6,165.2,171.6,133,191.4,113.2z"/>
</g>
</svg>
