<?xml version="1.0" encoding="utf-8"?>
<!-- Generator: Adobe Illustrator 24.2.3, SVG Export Plug-In . SVG Version: 6.00 Build 0)  -->
<svg version="1.1" id="Layer_1" xmlns="http://www.w3.org/2000/svg" xmlns:xlink="http://www.w3.org/1999/xlink" x="0px" y="0px"
	 viewBox="0 0 300 300" style="enable-background:new 0 0 300 300;" xml:space="preserve">
<path d="M219.7,129.9c0.1-1.3,0.2-2.7,0.2-4c0-20.1-16.4-36.5-36.5-36.5c-14.3,0-27.2,8.2-33.4,20.3c-6.2-12.1-19.1-20.3-33.4-20.3
	c-20.1,0-36.5,16.4-36.5,36.5c0,1.3,0.1,2.7,0.2,4c0,0,0,0.1,0,0.1c0,0.2,0,0.4,0,0.7c0.1,1.8,4.4,45,68.3,79.5
	c0.4,0.2,0.9,0.4,1.4,0.4s1-0.1,1.4-0.4c63.9-34.5,68.2-77.7,68.3-79.5C219.8,130.5,219.8,130.3,219.7,129.9
	C219.7,130,219.7,130,219.7,129.9z M204.3,155.1c-7.7,13.1-23.4,32.1-54.3,49.1c-59.5-32.7-63.7-73.6-63.8-74c0-0.1,0-0.1,0-0.2
	c0-0.2,0.1-0.5,0-0.8c-0.1-1.1-0.2-2.2-0.2-3.4c0-16.8,13.7-30.5,30.5-30.5c14.4,0,27.2,9.8,30.5,23.4c0.2,1.2,1.1,2.2,2.3,2.5
	c1.6,0.4,3.2-0.6,3.6-2.2c3.2-13.7,16-23.6,30.5-23.6c16.8,0,30.5,13.7,30.5,30.5c0,1.1-0.1,2.3-0.2,3.4c0,0.3,0,0.5,0,0.8
	c0,0.1,0,0.1,0,0.2C213.8,130.3,212.8,140.7,204.3,155.1z"/>
</svg>
