<?xml version="1.0" encoding="utf-8"?>
<!-- Generator: Adobe Illustrator 25.2.3, SVG Export Plug-In . SVG Version: 6.00 Build 0)  -->
<svg version="1.1" id="Layer_1" xmlns="http://www.w3.org/2000/svg" xmlns:xlink="http://www.w3.org/1999/xlink" x="0px" y="0px"
	 viewBox="0 0 200 200" style="enable-background:new 0 0 200 200;" xml:space="preserve">
<g id="House">
	<g>
		<g>
			<path d="M55.2,92.7c-0.6,0-1.2-0.3-1.6-0.8c-0.7-0.9-0.5-2.1,0.4-2.8l40.3-31c3.4-2.5,8-2.6,11.4-0.1l0.1,0.1l38.4,31
				c0.8,0.7,1,1.9,0.3,2.8c-0.7,0.8-1.9,1-2.8,0.3l-38.3-31c-2-1.4-4.8-1.3-6.7,0.1l-40.3,31C56,92.6,55.6,92.7,55.2,92.7z"/>
		</g>
		<g>
			<path d="M127.8,142.7H70.4c-5.8,0-10.4-4.6-10.4-10.4V94.2c0-1.1,0.9-2,2-2s2,0.9,2,2v38.2c0,3.6,2.8,6.4,6.4,6.4h57.4
				c3.6,0,6.4-2.8,6.4-6.4V94.2c0-1.1,0.9-2,2-2s2,0.9,2,2v38.2C138.1,138.2,133.6,142.7,127.8,142.7z"/>
		</g>
		<g>
			<path d="M136.2,96.1c-1.1,0-2-0.9-2-2c0-3.4,2.8-6.2,6.2-6.2c1.4,0,2.6,0.4,3.8,1.3c0.9,0.7,1,1.9,0.4,2.8
				c-0.7,0.9-1.9,1-2.8,0.4c-0.5-0.4-0.9-0.5-1.4-0.5c-1.2,0-2.2,1-2.2,2.2C138.1,95.2,137.2,96.1,136.2,96.1z"/>
		</g>
		<g>
			<path d="M61.9,96.1c-1.1,0-2-0.9-2-2c0-1.2-1-2.2-2.2-2.2c-0.5,0-0.9,0.1-1.4,0.5c-0.9,0.7-2.1,0.5-2.8-0.4
				c-0.7-0.9-0.5-2.1,0.4-2.8c1.2-0.9,2.4-1.3,3.8-1.3c3.4,0,6.2,2.8,6.2,6.2C63.8,95.2,62.9,96.1,61.9,96.1z"/>
		</g>
	</g>
	<g>
		<path d="M71.1,81.9h-7.9l3.9-3V62.2c0-3.2,2.6-5.9,5.9-5.9h6.2c3.2,0,5.9,2.6,5.9,5.9V70l-14,10.8V81.9z M73.1,60.2
			c-1.1,0-1.9,0.9-1.9,1.9v13.7l10.1-7.8v-5.9c0-1.1-0.9-1.9-1.9-1.9H73.1z"/>
	</g>
	<g>
		<path d="M111.5,142.7c-1.1,0-2-0.9-2-2v-21c0-5.8-4.7-10.4-10.4-10.4s-10.4,4.7-10.4,10.4v21c0,1.1-0.9,2-2,2s-2-0.9-2-2v-21
			c0-7.9,6.4-14.4,14.4-14.4s14.4,6.4,14.4,14.4v21C113.4,141.8,112.5,142.7,111.5,142.7z"/>
	</g>
	<g>
		<path d="M67,83.5c-0.6,0-1.1-0.2-1.5-0.7c-0.7-0.8-0.6-2.1,0.3-2.8c0.9-0.7,1.4-1.7,1.4-2.7c0-1.1,0.9-2,2-2s2,0.9,2,2
			c0,2.1-1,4.2-2.8,5.7C67.8,83.4,67.4,83.5,67,83.5z"/>
	</g>
</g>
</svg>
