<?xml version="1.0" encoding="utf-8"?>
<!-- Generator: Adobe Illustrator 21.1.0, SVG Export Plug-In . SVG Version: 6.00 Build 0)  -->
<svg version="1.1" id="Layer_1" xmlns="http://www.w3.org/2000/svg" xmlns:xlink="http://www.w3.org/1999/xlink" x="0px" y="0px"
	 viewBox="0 0 200 200" style="enable-background:new 0 0 200 200;" xml:space="preserve">
<style type="text/css">
	.st0{fill:#404040;}
</style>
<g>
	<path class="st0" d="M88.6,88L88.6,88c-0.3-1.5-1.8-2.7-3.4-2.7c-0.5,0-0.9,0.1-1.2,0.2c0,0-0.1,0-0.1,0l-0.3,0.1l-18,11.3
		c-1,0.6-1.7,1.7-1.7,3c0,1.2,0.6,2.4,1.6,3l17.7,11.1c0.6,0.4,1.2,0.6,1.9,0.6c1.1,0,2.3-0.6,3-1.6c1-1.6,0.6-3.8-1.1-4.9L73.9,100
		l13-8.1C88.2,91.1,89,89.5,88.6,88z"/>
	<path class="st0" d="M134.5,96.9l-17.8-11.1c-0.8-0.5-1.7-0.5-2.1-0.5l-0.2,0c-1.5,0.2-2.7,1.4-3,2.8c-0.3,1.4,0.4,3,1.7,3.7
		l13,8.1l-13.2,8.2c-1.6,1.1-2,3.3-1,4.8c0.7,1,1.8,1.6,3,1.6c0.6,0,1.3-0.2,1.8-0.5l17.7-11.1c1-0.6,1.7-1.7,1.7-3
		C136.1,98.7,135.5,97.5,134.5,96.9z"/>
	<path class="st0" d="M104.8,78.6L104.8,78.6c-1.5,0.2-2.7,1.2-3,2.5l-10.4,35.5c-0.3,0.9-0.2,1.9,0.2,2.8c0.4,0.9,1.2,1.6,2.1,1.8
		c0.3,0.1,0.6,0.1,0.9,0.1c0.7,0,1.3-0.2,1.9-0.5c0.8-0.5,1.4-1.3,1.6-2.2l10.3-35.4c0.4-1,0.2-2.2-0.5-3.1
		C107.2,79.1,106,78.6,104.8,78.6z"/>
</g>
</svg>
