<?xml version="1.0" encoding="utf-8"?>
<!-- Generator: Adobe Illustrator 25.2.3, SVG Export Plug-In . SVG Version: 6.00 Build 0)  -->
<svg version="1.1" id="Layer_1" xmlns="http://www.w3.org/2000/svg" xmlns:xlink="http://www.w3.org/1999/xlink" x="0px" y="0px"
	 viewBox="0 0 200 200" style="enable-background:new 0 0 200 200;" xml:space="preserve">
<style type="text/css">
</style>
<path  d="M127.8,76.2c0-1.7-1.3-3-3-3H78.2c-1.5,0-2.8,0.6-3.9,1.5c-0.1,0.1-0.2,0.2-0.3,0.3c-0.1,0.1-0.2,0.2-0.2,0.3
	c-0.9,1.1-1.5,2.4-1.5,4v46.6c0,1.7,1.3,3,3,3s3-1.3,3-3l0-42.4l43.4,43.4c0.6,0.6,1.4,0.9,2.1,0.9s1.5-0.3,2.1-0.9
	c1.2-1.2,1.2-3.1,0-4.2L82.5,79.2h42.3C126.5,79.2,127.8,77.9,127.8,76.2z"/>
</svg>
