<?xml version="1.0" encoding="utf-8"?>
<!-- Generator: Adobe Illustrator 21.1.0, SVG Export Plug-In . SVG Version: 6.00 Build 0)  -->
<svg version="1.1" id="Layer_1" xmlns="http://www.w3.org/2000/svg" xmlns:xlink="http://www.w3.org/1999/xlink" x="0px" y="0px"
	 viewBox="0 0 200 200" style="enable-background:new 0 0 200 200;" xml:space="preserve">
<style type="text/css">
	.st0{fill:#FFFFFF;}
</style>
<path class="st0" d="M127.5,120.3L106.8,100l20.4-20.7c1.9-1.9,1.9-5,0-6.8c-1.9-1.9-5-1.9-6.8,0L100,93.2L79.3,72.8
	c-1.9-1.9-5-1.9-6.8,0c-1.9,1.9-1.9,5,0,6.8L93.2,100l-20.4,20.7c-1.9,1.9-1.9,5,0,6.8c0.9,0.9,2.2,1.4,3.4,1.4
	c1.3,0,2.5-0.5,3.4-1.4l20.4-20.7l20.7,20.4c0.9,0.9,2.2,1.4,3.4,1.4c1.3,0,2.5-0.5,3.4-1.4C129.5,125.3,129.4,122.2,127.5,120.3z"
	/>
</svg>
