<?xml version="1.0" encoding="utf-8"?>
<!-- Generator: Adobe Illustrator 24.2.3, SVG Export Plug-In . SVG Version: 6.00 Build 0)  -->
<svg version="1.1" id="Layer_1" xmlns="http://www.w3.org/2000/svg" xmlns:xlink="http://www.w3.org/1999/xlink" x="0px" y="0px"
	 viewBox="0 0 300 300" style="enable-background:new 0 0 300 300;" xml:space="preserve">
<g>
	<path d="M194,111l0.2-12.5c0.1-7.4-5.8-13.5-13.2-13.6l-6-0.1c-7.4-0.1-13.5,5.8-13.6,13.2l-0.1,6.5c-1.5,0.4-2.9,1.1-4.2,2
		c-2.6,2.1-4.2,5.2-4.2,8.6l-0.1,56.9c-0.5,1.5-1.6,2.8-3,3.6c-1.5,0.9-3.3,1.1-5,0.6l-7.4-2.1c-2.8-0.8-5.8-0.2-8.1,1.5
		c-2.3,1.8-3.7,4.5-3.7,7.4l0,22.5c0,5.1,4.1,9.3,9.3,9.3l32.7,0v0l19.8,0c0,0,0,0,0,0c8.2,0,14.9-6.7,14.9-14.9l0.1-78.5
		C202.5,116.6,199,112.2,194,111z M174.8,90.9c0,0,0.1,0,0.1,0l6,0.1c4.1,0.1,7.3,3.4,7.3,7.5l-0.2,11.2l-20.7-4.8l0.1-6.6
		C167.5,94.2,170.8,90.9,174.8,90.9z M160.9,111.4c1.2-1,2.7-1.3,4.2-0.9l27.5,6.4c2.3,0.5,3.9,2.5,3.9,4.9l0,20.8l-37.5-0.1
		l0.1-27.2C159,113.8,159.7,112.4,160.9,111.4z M187.5,209.1C187.5,209.1,187.5,209.1,187.5,209.1l-18.9,0c0,0,0,0,0,0l-33.7-0.1
		c-1.8,0-3.3-1.5-3.3-3.3l0-22.5c0-1,0.5-2,1.3-2.6c0.8-0.6,1.9-0.8,2.9-0.5l7.4,2.1c3.2,0.9,6.6,0.5,9.5-1.1s5-4.3,5.9-7.6
		c0.1-0.3,0.1-0.5,0.1-0.8l0,0l0.1-24.2l37.5,0.1l0,51.6C196.4,205.1,192.4,209.1,187.5,209.1z"/>
	<path d="M116.7,191.3l-16.1,0c0,0,0,0,0,0c-1.7,0-3,1.3-3,3c0,1.7,1.3,3,3,3l16.1,0c0,0,0,0,0,0c1.7,0,3-1.3,3-3
		C119.7,192.7,118.3,191.3,116.7,191.3z"/>
	<path d="M114.2,187.9c0.6,0.6,1.4,0.9,2.1,0.9c0.8,0,1.5-0.3,2.1-0.9c1.2-1.2,1.2-3.1,0-4.2l-6.1-6.1c-1.2-1.2-3.1-1.2-4.2,0
		c-1.2,1.2-1.2,3.1,0,4.2L114.2,187.9z"/>
	<path d="M114.2,200.7l-6.1,6.1c-1.2,1.2-1.2,3.1,0,4.2c0.6,0.6,1.4,0.9,2.1,0.9c0.8,0,1.5-0.3,2.1-0.9l6.1-6.1
		c1.2-1.2,1.2-3.1,0-4.2C117.3,199.6,115.4,199.6,114.2,200.7z"/>
</g>
</svg>
