<?xml version="1.0" encoding="utf-8"?>
<!-- Generator: Adobe Illustrator 24.2.3, SVG Export Plug-In . SVG Version: 6.00 Build 0)  -->
<svg version="1.1" id="Layer_1" xmlns="http://www.w3.org/2000/svg" xmlns:xlink="http://www.w3.org/1999/xlink" x="0px" y="0px"
	 viewBox="0 0 300 300" style="enable-background:new 0 0 300 300;" xml:space="preserve">
<g>
	<path d="M150,95.9c17.6,0,19.7,0.1,26.7,0.4c6.4,0.3,9.9,1.4,12.3,2.3c3.1,1.2,5.3,2.6,7.6,4.9c2.3,2.3,3.7,4.5,4.9,7.6
		c0.9,2.3,2,5.8,2.3,12.3c0.3,7,0.4,9,0.4,26.7s-0.1,19.7-0.4,26.7c-0.3,6.4-1.4,9.9-2.3,12.3c-1.2,3.1-2.6,5.3-4.9,7.6
		c-2.3,2.3-4.5,3.7-7.6,4.9c-2.3,0.9-5.8,2-12.3,2.3c-7,0.3-9,0.4-26.7,0.4s-19.7-0.1-26.7-0.4c-6.4-0.3-9.9-1.4-12.3-2.3
		c-3.1-1.2-5.3-2.6-7.6-4.9c-2.3-2.3-3.7-4.5-4.9-7.6c-0.9-2.3-2-5.8-2.3-12.3c-0.3-7-0.4-9-0.4-26.7s0.1-19.7,0.4-26.7
		c0.3-6.4,1.4-9.9,2.3-12.3c1.2-3.1,2.6-5.3,4.9-7.6c2.3-2.3,4.5-3.7,7.6-4.9c2.3-0.9,5.8-2,12.3-2.3C130.3,96,132.4,95.9,150,95.9
		 M150,84c-17.9,0-20.2,0.1-27.2,0.4c-7,0.3-11.8,1.4-16,3.1c-4.3,1.7-8,3.9-11.7,7.6c-3.7,3.7-5.9,7.3-7.6,11.7
		c-1.6,4.2-2.7,9-3.1,16c-0.3,7-0.4,9.3-0.4,27.2c0,17.9,0.1,20.2,0.4,27.2c0.3,7,1.4,11.8,3.1,16c1.7,4.3,3.9,8,7.6,11.7
		c3.7,3.7,7.3,5.9,11.7,7.6c4.2,1.6,9,2.7,16,3.1c7,0.3,9.3,0.4,27.2,0.4s20.2-0.1,27.2-0.4c7-0.3,11.8-1.4,16-3.1
		c4.3-1.7,8-3.9,11.7-7.6c3.7-3.7,5.9-7.3,7.6-11.7c1.6-4.2,2.7-9,3.1-16c0.3-7,0.4-9.3,0.4-27.2s-0.1-20.2-0.4-27.2
		c-0.3-7-1.4-11.8-3.1-16c-1.7-4.3-3.9-8-7.6-11.7c-3.7-3.7-7.3-5.9-11.7-7.6c-4.2-1.6-9-2.7-16-3.1C170.2,84.1,167.9,84,150,84
		L150,84z"/>
	<path d="M150,116.1c-18.7,0-33.9,15.2-33.9,33.9s15.2,33.9,33.9,33.9s33.9-15.2,33.9-33.9S168.7,116.1,150,116.1z M150,172
		c-12.2,0-22-9.8-22-22c0-12.2,9.8-22,22-22c12.2,0,22,9.8,22,22C172,162.2,162.2,172,150,172z"/>
	<circle cx="185.2" cy="114.8" r="7.9"/>
</g>
</svg>
