<?xml version="1.0" encoding="utf-8"?>
<!-- Generator: Adobe Illustrator 24.2.3, SVG Export Plug-In . SVG Version: 6.00 Build 0)  -->
<svg version="1.1" id="Layer_1" xmlns="http://www.w3.org/2000/svg" xmlns:xlink="http://www.w3.org/1999/xlink" x="0px" y="0px"
	 viewBox="0 0 300 300" style="enable-background:new 0 0 300 300;" xml:space="preserve">
<g>
	<path d="M217.1,147.1h-86.8c-1.7,0-3,1.3-3,3s1.3,3,3,3h86.8c1.7,0,3-1.3,3-3S218.8,147.1,217.1,147.1z"/>
	<path d="M95,135c-8.3,0-15.1,6.8-15.1,15.1s6.8,15.1,15.1,15.1s15.1-6.8,15.1-15.1S103.3,135,95,135z M95,159.2
		c-5,0-9.1-4.1-9.1-9.1S90,141,95,141s9.1,4.1,9.1,9.1S100,159.2,95,159.2z"/>
	<path d="M217.1,197.7h-86.8c-1.7,0-3,1.3-3,3s1.3,3,3,3h86.8c1.7,0,3-1.3,3-3S218.8,197.7,217.1,197.7z"/>
	<path d="M130.3,102.3h86.8c1.7,0,3-1.3,3-3s-1.3-3-3-3h-86.8c-1.7,0-3,1.3-3,3S128.6,102.3,130.3,102.3z"/>
	<path d="M95,84.1c-8.3,0-15.1,6.8-15.1,15.1s6.8,15.1,15.1,15.1s15.1-6.8,15.1-15.1S103.3,84.1,95,84.1z M95,108.4
		c-5,0-9.1-4.1-9.1-9.1s4.1-9.1,9.1-9.1s9.1,4.1,9.1,9.1S100,108.4,95,108.4z"/>
	<path d="M95,185.6c-8.3,0-15.1,6.8-15.1,15.1s6.8,15.1,15.1,15.1s15.1-6.8,15.1-15.1S103.3,185.6,95,185.6z M95,209.9
		c-5,0-9.1-4.1-9.1-9.1s4.1-9.1,9.1-9.1s9.1,4.1,9.1,9.1S100,209.9,95,209.9z"/>
</g>
</svg>
