<?xml version="1.0" encoding="utf-8"?>
<!-- Generator: Adobe Illustrator 24.2.3, SVG Export Plug-In . SVG Version: 6.00 Build 0)  -->
<svg version="1.1" id="Layer_1" xmlns="http://www.w3.org/2000/svg" xmlns:xlink="http://www.w3.org/1999/xlink" x="0px" y="0px"
	 viewBox="0 0 300 300" style="enable-background:new 0 0 300 300;" xml:space="preserve">
<g>
	<path d="M150,84.7c-36,0-65.3,29.3-65.3,65.3c0,36,29.3,65.3,65.3,65.3c36,0,65.3-29.3,65.3-65.3C215.3,114,186,84.7,150,84.7z
		 M150,209.3c-32.7,0-59.3-26.6-59.3-59.3c0-32.7,26.6-59.3,59.3-59.3c32.7,0,59.3,26.6,59.3,59.3
		C209.3,182.7,182.7,209.3,150,209.3z"/>
	<path d="M166.1,123.5L118.7,142c-2.7,1.1-4.4,3.7-4.2,6.7c0.2,2.9,2.3,5.3,5.2,6l19.1,4.3c0.2,0.1,0.4,0.2,0.5,0.5l4.3,19.1
		c0.6,2.9,3,4.9,6,5.2c0.2,0,0.3,0,0.5,0c2.7,0,5.1-1.6,6.2-4.2l18.5-47.4c1-2.5,0.4-5.2-1.5-7.1
		C171.3,123.1,168.6,122.5,166.1,123.5z M169.1,129.8l-18.5,47.4c0,0.1-0.2,0.4-0.6,0.4c-0.5,0-0.5-0.4-0.6-0.5l-4.3-19.1
		c-0.6-2.5-2.5-4.5-5-5l-19.1-4.3c-0.1,0-0.4-0.1-0.5-0.6c0-0.5,0.3-0.6,0.4-0.6l47.4-18.5c0.1,0,0.2,0,0.2,0c0.2,0,0.3,0.1,0.4,0.2
		C169.1,129.4,169.2,129.6,169.1,129.8z"/>
</g>
</svg>
