<?xml version="1.0" encoding="utf-8"?>
<!-- Generator: Adobe Illustrator 21.1.0, SVG Export Plug-In . SVG Version: 6.00 Build 0)  -->
<svg version="1.1" id="Layer_1" xmlns="http://www.w3.org/2000/svg" xmlns:xlink="http://www.w3.org/1999/xlink" x="0px" y="0px"
	 viewBox="0 0 200 200" style="enable-background:new 0 0 200 200;" xml:space="preserve">
<style type="text/css">
	.st0{fill:#404040;}
</style>
<g id="Hamburger_Menu_2_">
	<g>
		<path class="st0" d="M64,72.2h6.6l3,11.5h0l3-11.5h6.6v17.3H79V76.3h0l-3.6,13.1h-3.4l-3.6-13.1h0v13.1H64V72.2z"/>
		<path class="st0" d="M86.1,72.2h13.8v3.6h-9.3v3h8.5v3.5h-8.5v3.3h9.5v3.9h-14V72.2z"/>
		<path class="st0" d="M102.4,72.2h4.6l6,10.6h0V72.2h4.2v17.3h-4.6l-6-10.8h0v10.8h-4.2V72.2z"/>
		<path class="st0" d="M135.1,82.3c0,5-2.3,7.5-7.5,7.5c-5.2,0-7.5-2.5-7.5-7.5V72.2h4.5v10.4c0,2.2,0.8,3.4,3,3.4s3-1.1,3-3.4V72.2
			h4.5V82.3z"/>
	</g>
	<path class="st0" d="M66.4,108.9c-1.3,0-2.4-1.1-2.4-2.4c0-1.3,1.1-2.4,2.4-2.4l67.3-0.3c0,0,0,0,0,0c1.3,0,2.4,1.1,2.4,2.4
		c0,1.3-1.1,2.4-2.4,2.4L66.4,108.9C66.4,108.9,66.4,108.9,66.4,108.9z"/>
	<path class="st0" d="M66.4,127.8c-1.3,0-2.4-1.1-2.4-2.4c0-1.3,1.1-2.4,2.4-2.4l67.3-0.3c0,0,0,0,0,0c1.3,0,2.4,1.1,2.4,2.4
		c0,1.3-1.1,2.4-2.4,2.4L66.4,127.8C66.4,127.8,66.4,127.8,66.4,127.8z"/>
</g>
</svg>
