<?xml version="1.0" encoding="utf-8"?>
<!-- Generator: Adobe Illustrator 24.2.3, SVG Export Plug-In . SVG Version: 6.00 Build 0)  -->
<svg version="1.1" id="Layer_1" xmlns="http://www.w3.org/2000/svg" xmlns:xlink="http://www.w3.org/1999/xlink" x="0px" y="0px"
	 viewBox="0 0 300 300" style="enable-background:new 0 0 300 300;" xml:space="preserve">
<path d="M203.9,99.4c0-7.6-6.2-13.8-13.8-13.8h-8.6c-0.7-0.6-1.6-1-2.6-1c-2.3,0-4.1,1.8-4.1,4.1s1.8,4.1,4.1,4.1
	c1.1,0,2.1-0.4,2.8-1.2h8.3c4.3,0,7.8,3.5,7.8,7.8c0,22.6-18.4,40.9-40.9,40.9S116,122,116,99.4c0-4.3,3.5-7.8,7.8-7.8h9.2
	c0.7,0.7,1.7,1.2,2.8,1.2c2.3,0,4.1-1.8,4.1-4.1s-1.8-4.1-4.1-4.1c-1,0-1.9,0.4-2.6,1h-9.4c-7.6,0-13.8,6.2-13.8,13.8
	c0,24.9,19.6,45.4,44.1,46.8v37c0,14.3-11.7,26-26,26s-26-11.7-26-26c0-0.4,0-0.7,0-1.1c2.6,3.2,6.5,5.3,11,5.3
	c7.8,0,14.1-6.3,14.1-14.1s-6.3-14.1-14.1-14.1c-5.5,0-10.2,3.1-12.5,7.7c-2.9,4.9-4.5,10.5-4.5,16.3c0,17.6,14.4,32,32,32
	s32-14.4,32-32v-37.1C184.5,144.6,203.9,124.2,203.9,99.4z M113.2,165.3c4.5,0,8.1,3.6,8.1,8.1s-3.6,8.1-8.1,8.1s-8.1-3.6-8.1-8.1
	c0-1.3,0.3-2.5,0.8-3.5c0.2-0.3,0.4-0.6,0.6-0.9l0,0C107.8,166.8,110.3,165.3,113.2,165.3z"/>
</svg>
