<?xml version="1.0" encoding="utf-8"?>
<!-- Generator: Adobe Illustrator 21.1.0, SVG Export Plug-In . SVG Version: 6.00 Build 0)  -->
<svg version="1.1" id="Layer_1" xmlns="http://www.w3.org/2000/svg" xmlns:xlink="http://www.w3.org/1999/xlink" x="0px" y="0px"
	 viewBox="0 0 200 200" style="enable-background:new 0 0 200 200;" xml:space="preserve">
<style type="text/css">
	.st0{fill:#404040;}
</style>
<g>
	<path class="st0" d="M100,136.1c-19.9,0-36.1-16.2-36.1-36.1S80.1,63.9,100,63.9s36.1,16.2,36.1,36.1S119.9,136.1,100,136.1z
		 M100,68.8c-17.2,0-31.2,14-31.2,31.2s14,31.2,31.2,31.2s31.2-14,31.2-31.2S117.2,68.8,100,68.8z"/>
	<g>
		<path class="st0" d="M79.5,93.7h3.5l4.5,8h0v-8h3.2v12.9h-3.5l-4.5-8.1h0v8.1h-3.2V93.7z"/>
		<path class="st0" d="M92.9,93.7h10.3v2.7h-6.9v2.3h6.3v2.6h-6.3v2.5h7.1v2.9H92.9V93.7z"/>
		<path class="st0" d="M118.1,106.6h-3.4l-1.8-8.9h0l-1.8,8.9h-3.4l-3.5-12.9h3.4l1.8,9.5h0l1.9-9.5h3.2l1.9,9.5h0l1.8-9.5h3.4
			L118.1,106.6z"/>
	</g>
</g>
</svg>
