<?xml version="1.0" encoding="utf-8"?>
<!-- Generator: Adobe Illustrator 24.2.3, SVG Export Plug-In . SVG Version: 6.00 Build 0)  -->
<svg version="1.1" id="Layer_1" xmlns="http://www.w3.org/2000/svg" xmlns:xlink="http://www.w3.org/1999/xlink" x="0px" y="0px"
	 viewBox="0 0 300 300" style="enable-background:new 0 0 300 300;" xml:space="preserve">
<path d="M190.7,156.2c-0.1,0-0.1-0.1-0.2-0.1L158,143.1l4.2-1.7c0,0,0.1,0,0.1,0c9-4,15.2-12.6,16-22.3c0.1-0.7,0.1-1.3,0.1-2
	c0-0.4,0-3.8,0-4.4c-0.2-4-1.1-7.9-2.8-11.5c-4.6-9.9-14-16.4-24.6-17.1c0,0,0,0,0,0c0,0-0.1,0-0.1,0l-0.8,0l-0.8,0c0,0-0.1,0-0.1,0
	c0,0,0,0,0,0c-10.6,0.7-20,7.2-24.6,17.1c-1.7,3.6-2.6,7.5-2.8,11.5c0,0.5,0,4,0,4.4c0,0.7,0,1.3,0.1,2c0.8,9.7,6.9,18.2,16,22.3
	c0,0,0.1,0,0.1,0l4.2,1.7l-32.5,13.1c-0.1,0-0.1,0.1-0.2,0.1c-8.8,4.3-14.4,13.5-14.4,23.4v12.9c0,3.9,1.7,23.3,35.1,23.3
	c7.1,0,14-1.5,20.1-4.2c6.1,2.7,13,4.2,20.1,4.2c33.4,0,35.1-19.4,35.1-23.3v-12.9C205.2,169.7,199.5,160.5,190.7,156.2z
	 M140.1,135.8c-7-3.2-11.8-9.8-12.4-17.3c0-0.5-0.1-1-0.1-1.5c0-0.5,0-3.7,0-4.1c0.1-3.2,0.9-6.3,2.2-9.2
	c3.7-7.9,11.1-13.1,19.5-13.6l0.6,0l0.6,0c8.4,0.6,15.8,5.8,19.5,13.6c1.3,2.9,2.1,6,2.2,9.2c0,0.4,0,3.6,0,4.1c0,0.5,0,1-0.1,1.5
	c-0.6,7.5-5.4,14.1-12.4,17.3l-9.9,4L140.1,135.8z M145.3,201.1v-6.8c0-2.9-2.3-5.2-5.2-5.2h-6.8c-0.5,0-0.9-0.4-0.9-0.9v-7.6
	c0-0.5,0.4-0.9,0.9-0.9h6.8c2.9,0,5.2-2.3,5.2-5.2v-6.8c0-0.5,0.4-0.9,0.9-0.9h7.6c0.5,0,0.9,0.4,0.9,0.9v6.8c0,2.9,2.3,5.2,5.2,5.2
	h6.8c0.5,0,0.9,0.4,0.9,0.9v7.6c0,0.5-0.4,0.9-0.9,0.9h-6.8c-2.9,0-5.2,2.3-5.2,5.2v6.8c0,0.3-0.2,0.6-0.5,0.8l0.1,0.2c0,0,0,0,0,0
	c-1.4,1-2.8,1.9-4.4,2.8c-1.5-0.9-2.9-1.8-4.2-2.7c-0.1,0-0.1-0.1-0.2-0.1l0.1-0.2C145.4,201.7,145.3,201.4,145.3,201.1z
	 M199.2,192.6c0,4.1-2.1,17.3-29.1,17.3c-4.7,0-9.3-0.7-13.5-2.1c0.4-0.3,0.8-0.6,1.3-0.9c0.4-0.3,0.6-0.6,0.8-0.9
	c1.3-1.3,2-3.1,2-4.9v-6h6c3.8,0,6.9-3.1,6.9-6.9v-7.6c0-3.8-3.1-6.9-6.9-6.9h-6v-6c0-3.8-3.1-6.9-6.9-6.9h-7.6
	c-3.8,0-6.9,3.1-6.9,6.9v6h-6c-3.8,0-6.9,3.1-6.9,6.9v7.6c0,3.8,3.1,6.9,6.9,6.9h6v6c0,1.9,0.8,3.7,2.2,5c0.2,0.4,0.5,0.7,0.9,1
	c0.3,0.2,0.7,0.5,1,0.7c-4.2,1.4-8.8,2.1-13.4,2.1c-27,0-29.1-13.3-29.1-17.3v-12.9c0-7.6,4.3-14.6,11-18l38.2-15.3l38.2,15.3
	c6.7,3.3,11,10.4,11,18V192.6z"/>
</svg>
