<?xml version="1.0" encoding="utf-8"?>
<!-- Generator: Adobe Illustrator 24.2.3, SVG Export Plug-In . SVG Version: 6.00 Build 0)  -->
<svg version="1.1" id="Layer_1" xmlns="http://www.w3.org/2000/svg" xmlns:xlink="http://www.w3.org/1999/xlink" x="0px" y="0px"
	 viewBox="0 0 300 300" style="enable-background:new 0 0 300 300;" xml:space="preserve">
<g>
	<path d="M201.7,83H98.3c-10.5,0-19,8.5-19,19v69.7c0,10.5,8.5,19,19,19h25.1c5.6,0,10.1,4.5,10.1,10.1S129,211,123.4,211
		c-1.7,0-3,1.3-3,3s1.3,3,3,3h53.1c1.7,0,3-1.3,3-3s-1.3-3-3-3c-5.6,0-10.1-4.5-10.1-10.1s4.5-10.1,10.1-10.1h25.1
		c10.5,0,19-8.5,19-19V102C220.7,91.6,212.2,83,201.7,83z M214.7,171.8c0,7.2-5.8,13-13,13H150c-1.7,0-3,1.3-3,3s1.3,3,3,3h14
		c-2.2,2.8-3.6,6.3-3.6,10.1s1.3,7.3,3.6,10.1H136c2.2-2.8,3.6-6.3,3.6-10.1c0-8.9-7.2-16.1-16.1-16.1H98.3c-7.2,0-13-5.8-13-13V102
		c0-7.2,5.8-13,13-13h103.4c7.2,0,13,5.8,13,13V171.8z"/>
	<path d="M150.1,170.6c-1.7,0-3,1.3-3,3c0,1.7,1.3,3,3,3c1.7,0,3-1.3,3-3C153.1,172,151.7,170.6,150.1,170.6z"/>
</g>
</svg>
