<?xml version="1.0" encoding="utf-8"?>
<!-- Generator: Adobe Illustrator 24.2.3, SVG Export Plug-In . SVG Version: 6.00 Build 0)  -->
<svg version="1.1" id="Layer_1" xmlns="http://www.w3.org/2000/svg" xmlns:xlink="http://www.w3.org/1999/xlink" x="0px" y="0px"
	 viewBox="0 0 300 300" style="enable-background:new 0 0 300 300;" xml:space="preserve">
<g>
	<path d="M86,114.6c-1-7.1,4-13.7,11.1-14.7l61.6-8.7c1.6-0.2,2.8-1.7,2.6-3.4c-0.2-1.6-1.7-2.8-3.4-2.6L96.2,94
		c-10.4,1.5-17.6,11.1-16.2,21.5l5.4,38.3c0.2,1.5,1.5,2.6,3,2.6c0.1,0,0.3,0,0.4,0c1.6-0.2,2.8-1.7,2.6-3.4L86,114.6z"/>
	<path d="M207.3,155.6c0-0.7-0.1-1.4-0.2-2.1l-5.8-41.3c-1.5-10.4-11.1-17.6-21.5-16.2l-68.1,9.6c-10.4,1.5-17.6,11.1-16.2,21.5
		l5.8,41.3c0.7,5,3.3,9.5,7.4,12.5c3.3,2.5,7.3,3.8,11.4,3.8c0.9,0,1.8-0.1,2.7-0.2l31.3-4.4c0,0.5,0,1,0,1.5c0,18.2,14.8,33,33,33
		s33-14.8,33-33C220.1,171.1,215.1,161.7,207.3,155.6z M122,178.7c-3.4,0.5-6.9-0.4-9.6-2.5c-2.8-2.1-4.6-5.1-5.1-8.6l-5.8-41.3
		c-1-7.1,4-13.7,11.1-14.7l68.1-9.6c7.1-1,13.7,4,14.7,11.1l5.4,38.6c-4.2-1.9-8.8-3-13.7-3c-15.6,0-28.6,10.8-32.1,25.3L122,178.7z
		 M187.1,208.7c-14.9,0-27-12.1-27-27s12.1-27,27-27s27,12.1,27,27S202,208.7,187.1,208.7z"/>
	<path d="M196.7,172.4l-14.1,14.1l-5.1-5.1c-1.2-1.2-3.1-1.2-4.2,0c-1.2,1.2-1.2,3.1,0,4.2l7.2,7.2c0.6,0.6,1.4,0.9,2.1,0.9
		s1.5-0.3,2.1-0.9l16.2-16.2c1.2-1.2,1.2-3.1,0-4.2C199.8,171.2,197.9,171.2,196.7,172.4z"/>
</g>
</svg>
