<?xml version="1.0" encoding="utf-8"?>
<!-- Generator: Adobe Illustrator 24.2.3, SVG Export Plug-In . SVG Version: 6.00 Build 0)  -->
<svg version="1.1" id="Layer_1" xmlns="http://www.w3.org/2000/svg" xmlns:xlink="http://www.w3.org/1999/xlink" x="0px" y="0px"
	 viewBox="0 0 300 300" style="enable-background:new 0 0 300 300;" xml:space="preserve">
<g>
	<path d="M190.7,156.3c-0.1,0-0.1-0.1-0.2-0.1L158,143l4.2-1.7c0,0,0.1,0,0.1,0c9-4.1,15.2-12.7,16-22.4c0.1-0.7,0.1-1.3,0.1-2
		c0-0.4,0-3.9,0-4.4c-0.2-4-1.1-7.9-2.8-11.6c-4.6-9.9-14-16.5-24.7-17.2c0,0,0,0,0,0c0,0,0,0-0.1,0l-0.8,0l-0.8,0c0,0,0,0-0.1,0
		c0,0,0,0,0,0c-10.6,0.7-20,7.3-24.7,17.2c-1.7,3.6-2.6,7.5-2.8,11.6c0,0.5,0,4.1,0,4.4c0,0.7,0,1.3,0.1,2c0.8,9.8,6.9,18.4,16,22.4
		c0,0,0.1,0,0.1,0l4.2,1.7l-32.5,13.2c-0.1,0-0.1,0.1-0.2,0.1c-8.8,4.3-14.4,13.6-14.4,23.5v13c0,3.9,1.7,23.5,35.1,23.5h40.2
		c33.4,0,35.1-19.6,35.1-23.5v-13C205.1,169.9,199.5,160.6,190.7,156.3z M140.1,135.8c-7-3.2-11.8-9.8-12.4-17.4
		c0-0.5-0.1-1-0.1-1.5c0-0.5,0-3.8,0-4.1c0.1-3.2,0.9-6.3,2.2-9.3c3.7-7.9,11.1-13.2,19.5-13.8l0.7,0l0.7,0
		c8.4,0.6,15.8,5.8,19.5,13.8c1.4,2.9,2.1,6,2.2,9.3c0,0.4,0,3.6,0,4.1c0,0.5,0,1-0.1,1.5c-0.6,7.6-5.4,14.2-12.4,17.4l-9.9,4
		L140.1,135.8z M171.3,154.9C171.3,154.9,171.3,154.9,171.3,154.9c1.7,0.7,2.7,2.3,2.7,4c0,1-0.3,2-1,2.8c0,0-0.1,0.1-0.1,0.1
		c-0.1,0.1-0.2,0.1-0.2,0.2L150,182.7l-22.7-20.7c-0.1-0.1-0.2-0.1-0.2-0.2c0,0-0.1-0.1-0.1-0.1c-0.6-0.8-1-1.8-1-2.8
		c0-1.8,1.1-3.4,2.7-4c0,0,0,0,0.1,0l21.3-8.6L171.3,154.9z M100.9,192.9v-13c0-7.7,4.3-14.8,11-18.1l8.2-3.3c0,0.2,0,0.3,0,0.5
		c0,2.4,0.8,4.7,2.3,6.6c0.5,0.6,1.1,1.2,1.8,1.7l21.4,19.6l-14.8,13.5c0,0,0,0,0,0c0,0,0,0,0,0c-1.8,1.8-2.8,4.2-2.8,6.7
		c0,1.2,0.2,2.3,0.6,3.3C102.9,209.9,100.9,196.9,100.9,192.9z M199.1,192.9c0,4.1-2.1,17.5-29.1,17.5h-33c-1.7,0-3.1-1.5-3.1-3.3
		c0-0.9,0.4-1.8,1-2.4l40.9-37.5c0.7-0.5,1.3-1,1.8-1.7c1.5-1.8,2.3-4.2,2.3-6.6c0-0.2,0-0.3,0-0.5l8.2,3.3c6.7,3.4,11,10.5,11,18.1
		V192.9z"/>
	<path d="M183.9,188.3h-14.4c-1.7,0-3,1.3-3,3s1.3,3,3,3h14.4c1.7,0,3-1.3,3-3S185.5,188.3,183.9,188.3z"/>
</g>
</svg>
