<?xml version="1.0" encoding="utf-8"?>
<!-- Generator: Adobe Illustrator 24.2.3, SVG Export Plug-In . SVG Version: 6.00 Build 0)  -->
<svg version="1.1" id="Layer_1" xmlns="http://www.w3.org/2000/svg" xmlns:xlink="http://www.w3.org/1999/xlink" x="0px" y="0px"
	 viewBox="0 0 300 300" style="enable-background:new 0 0 300 300;" xml:space="preserve">
<style type="text/css">
	.st0{fill:#1B1C20;}
</style>
<path class="st0" d="M205.3,205.2l-3.6-78.2l0-0.2c-0.5-4.5-4.3-7.9-8.9-7.9h-8.8c-7.7,0-14-6.3-14-14c0,0,0,0,0-0.1
	C169.9,93.9,161,85,150,85c-11,0-19.9,8.9-19.9,19.8c0,0,0,0,0,0.1c0,7.7-6.3,14-14,14h-8.8c-4.5,0-8.4,3.4-8.9,7.9l-3.7,78.4
	c-0.3,2.5,0.6,5,2.2,6.8c1.7,1.9,4.1,3,6.7,3H150h46.4c2.5,0,5-1.1,6.7-3C204.7,210.2,205.5,207.7,205.3,205.2z M136,105
	C136,105,136,105,136,105c0-7.8,6.3-14,14-14c7.7,0,14,6.3,14,14c0,0,0,0,0,0.1c0,5.4,2.2,10.3,5.7,13.9h-39.4
	C133.8,115.3,136,110.4,136,105z M198.6,208c-0.6,0.6-1.3,1-2.2,1H150h-46.4c-0.8,0-1.6-0.3-2.2-1c-0.6-0.6-0.8-1.4-0.7-2.3
	l3.7-78.3c0.2-1.4,1.4-2.5,2.9-2.5h8.8h67.8h8.8c1.5,0,2.7,1.1,2.9,2.5l3.6,78.1l0,0.2C199.4,206.6,199.1,207.4,198.6,208z"/>
</svg>
