<?xml version="1.0" encoding="utf-8"?>
<!-- Generator: Adobe Illustrator 24.2.3, SVG Export Plug-In . SVG Version: 6.00 Build 0)  -->
<svg version="1.1" id="Layer_1" xmlns="http://www.w3.org/2000/svg" xmlns:xlink="http://www.w3.org/1999/xlink" x="0px" y="0px"
	 viewBox="0 0 300 300" style="enable-background:new 0 0 300 300;" xml:space="preserve">
<path d="M181,120.5c-0.7-0.4-1.2-1.2-1.2-2c0-0.8,0.4-1.5,1-1.9h0.9c1,0,1.9-0.5,2.5-1.3c3.3-1.8,5.4-5.3,5.4-9.2V94.9
	c0-5.8-4.7-10.5-10.5-10.5h-58.3c-5.8,0-10.5,4.7-10.5,10.5v11.2c0,4.4,2.7,8.2,6.6,9.7c0.3,0.2,0.7,0.3,1.1,0.4
	c0.2,0.1,0.4,0.1,0.7,0.2c0.8,0.3,1.4,1.2,1.4,2.1c0,0.8-0.5,1.6-1.2,2c-9.6,1-17,9.2-17,18.9v57.2c0,10.5,8.5,19,19,19h30.5H179
	c10.4,0,18.9-8.5,19-18.9c0,0,0,0,0,0c0,0,0,0,0,0c0,0,0,0,0,0v-57.2C198,129.7,190.6,121.5,181,120.5z M116.4,94.9
	c0-2.5,2-4.5,4.5-4.5h58.3c2.5,0,4.5,2,4.5,4.5v11.2c0,1.9-1.2,3.6-3,4.2c-0.3,0.1-0.7,0.1-1,0.2h-58.7c-0.3,0-0.5,0-0.7-0.1
	c-0.2-0.1-0.4-0.1-0.6-0.1c-1.8-0.6-3.2-2.2-3.2-4.3V94.9z M179,209.5h-27.5H121c-7.2,0-13-5.8-13-13v-57.2c0-6.7,5.2-12.4,11.9-13
	c0.3,0,0.7-0.1,1-0.2c3.2-1.2,5.4-4.3,5.4-7.7c0-0.7-0.1-1.3-0.2-1.9h48.1c-0.1,0.6-0.2,1.2-0.2,1.9c0,3.4,2.2,6.5,5.4,7.7
	c0.3,0.1,0.6,0.2,0.9,0.2c6.7,0.5,11.9,6.2,11.9,13v5.9c-1.4-0.8-3.1-1.2-4.8-1.3c-0.2,0-0.4-0.1-0.6-0.1h-31
	c-6.2,0-11.3,5.1-11.3,11.3V180c0,6.2,5.1,11.3,11.3,11.3h31.1c2.9,0,5.3,2.4,5.3,5.3C192,203.7,186.2,209.5,179,209.5z
	 M186.7,185.3h-31.1c-2.9,0-5.3-2.4-5.3-5.3v-24.8c0-2.9,2.4-5.3,5.3-5.3h30.7c0.1,0,0.2,0,0.4,0c2.9,0,5.3,2.4,5.3,5.3v31.4
	C190.4,185.8,188.7,185.3,186.7,185.3z"/>
</svg>
