<?xml version="1.0" encoding="utf-8"?>
<!-- Generator: Adobe Illustrator 24.2.3, SVG Export Plug-In . SVG Version: 6.00 Build 0)  -->
<svg version="1.1" id="Layer_1" xmlns="http://www.w3.org/2000/svg" xmlns:xlink="http://www.w3.org/1999/xlink" x="0px" y="0px"
	 viewBox="0 0 300 300" style="enable-background:new 0 0 300 300;" xml:space="preserve">
<g>
	<path d="M202.6,197.7l-24.5-41.9c-1.8-3-4.7-5.1-8-5.7l0.4-14.8c0-1.8,1-3.5,2.5-4.5c3.6-1.9,6.1-5.7,6.1-10v-7.3
		c0-6-4.7-10.9-10.7-11.2v0c-2.9,0-5.3-2.4-5.3-5.3v-1.5c0-6.2-5.1-11.3-11.3-11.3h-16.1h-12.9c-6.2,0-11.3,5.1-11.3,11.3V97
		c0,2.9-2.4,5.3-5.3,5.3v0c-5.9,0.3-10.7,5.2-10.7,11.2v1.5v5.8c0,4.3,2.5,8.1,6.1,10c1.5,1,2.5,2.7,2.5,4.6l2.1,69.1
		c0,6.2,5.1,11.3,11.3,11.3h25.5h14.1h34.9c4.4,0,8.4-2.3,10.6-6.1C204.8,205.9,204.8,201.4,202.6,197.7z M101.7,113.6
		c0-2.9,2.4-5.3,5.3-5.3h32.3c1.7,0,3-1.3,3-3s-1.3-3-3-3h-22.9c0.8-1.6,1.3-3.4,1.3-5.3v-1.5c0-2.9,2.4-5.3,5.3-5.3h12.9h16.1
		c2.9,0,5.3,2.4,5.3,5.3V97c0,5.8,4.4,10.6,10,11.2c0.2,0,0.4,0.1,0.7,0.1c2.9,0,5.3,2.4,5.3,5.3v7.3c0,2.9-2.4,5.3-5.3,5.3H107
		c-2.9,0-5.3-2.4-5.3-5.3v-5.8V113.6z M112.3,204.4l-2.1-69.1c0-1.1-0.2-2.2-0.5-3.2H165c-0.3,1-0.5,2-0.5,3.1l-0.5,15.1
		c-2.9,0.9-5.4,2.8-7,5.5l-24.5,41.9c-2.2,3.7-2.2,8.2-0.1,12c0,0,0,0.1,0.1,0.1h-15C114.7,209.8,112.3,207.4,112.3,204.4z
		 M197.5,206.7c-1.1,1.9-3.1,3.1-5.4,3.1h-34.9h-14.1c-2.3,0-4.3-1.2-5.4-3.1c-1.1-1.9-1.1-4.1,0-6l24.5-41.9c1.1-1.9,3.1-3,5.4-3
		c2.2,0,4.2,1.1,5.4,3l24.5,41.9C198.5,202.6,198.5,204.8,197.5,206.7z"/>
	<path d="M167.6,190.5c1.7,0,3-1.3,3-3v-12.2c0-1.7-1.3-3-3-3s-3,1.3-3,3v12.2C164.6,189.1,166,190.5,167.6,190.5z"/>
	<path d="M167.6,194.1c-1.9,0-3.4,1.5-3.4,3.4c0,1.9,1.5,3.4,3.4,3.4s3.4-1.5,3.4-3.4C171,195.6,169.5,194.1,167.6,194.1z"/>
</g>
</svg>
