<?xml version="1.0" encoding="utf-8"?>
<!-- Generator: Adobe Illustrator 24.2.3, SVG Export Plug-In . SVG Version: 6.00 Build 0)  -->
<svg version="1.1" id="Layer_1" xmlns="http://www.w3.org/2000/svg" xmlns:xlink="http://www.w3.org/1999/xlink" x="0px" y="0px"
	 viewBox="0 0 300 300" style="enable-background:new 0 0 300 300;" xml:space="preserve">
<g>
	<path d="M188.7,100.6c-21.3-21.3-56-21.3-77.3,0c-21.3,21.3-21.3,56,0,77.3l36.5,36.5c0.6,0.6,1.4,0.9,2.1,0.9s1.5-0.3,2.1-0.9
		l36.5-36.5C210,156.6,210,122,188.7,100.6z M184.4,173.7L150,208.1l-34.4-34.4c-19-19-19-49.9,0-68.8c9.5-9.5,22-14.2,34.4-14.2
		c12.5,0,24.9,4.7,34.4,14.2C203.4,123.9,203.4,154.7,184.4,173.7z"/>
	<path d="M150,117.4c-12.1,0-21.9,9.8-21.9,21.9s9.8,21.9,21.9,21.9c12.1,0,21.9-9.8,21.9-21.9S162.1,117.4,150,117.4z M150,155.2
		c-8.8,0-15.9-7.1-15.9-15.9s7.1-15.9,15.9-15.9c8.8,0,15.9,7.1,15.9,15.9S158.8,155.2,150,155.2z"/>
</g>
</svg>
