<?xml version="1.0" encoding="utf-8"?>
<!-- Generator: Adobe Illustrator 24.2.3, SVG Export Plug-In . SVG Version: 6.00 Build 0)  -->
<svg version="1.1" id="Layer_1" xmlns="http://www.w3.org/2000/svg" xmlns:xlink="http://www.w3.org/1999/xlink" x="0px" y="0px"
	 viewBox="0 0 300 300" style="enable-background:new 0 0 300 300;" xml:space="preserve">
<g>
	<path d="M150,84.7c-36,0-65.3,29.3-65.3,65.3c0,36,29.3,65.3,65.3,65.3c36,0,65.3-29.3,65.3-65.3C215.3,114,186,84.7,150,84.7z
		 M150,209.3c-32.7,0-59.3-26.6-59.3-59.3c0-32.7,26.6-59.3,59.3-59.3c32.7,0,59.3,26.6,59.3,59.3
		C209.3,182.7,182.7,209.3,150,209.3z"/>
	<path d="M169.1,147H153v-16.1c0-1.7-1.3-3-3-3c-1.7,0-3,1.3-3,3V147h-16.1c-1.7,0-3,1.3-3,3c0,1.7,1.3,3,3,3H147v16.1
		c0,1.7,1.3,3,3,3c1.7,0,3-1.3,3-3V153h16.1c1.7,0,3-1.3,3-3C172.1,148.3,170.8,147,169.1,147z"/>
</g>
</svg>
