<?xml version="1.0" encoding="utf-8"?>
<!-- Generator: Adobe Illustrator 24.2.3, SVG Export Plug-In . SVG Version: 6.00 Build 0)  -->
<svg version="1.1" id="Layer_1" xmlns="http://www.w3.org/2000/svg" xmlns:xlink="http://www.w3.org/1999/xlink" x="0px" y="0px"
	 viewBox="0 0 300 300" style="enable-background:new 0 0 300 300;" xml:space="preserve">
<g>
	<path d="M207.6,173.3c-0.3-0.1-0.6-0.1-0.9-0.1c-5,0-9-4-9-9v-61.1c0-10.5-8.5-19-19-19h-57.4c-10.5,0-19,8.5-19,19v61.1
		c0,5-4,9-9,9c-0.3,0-0.6,0.1-0.9,0.1c-7.3,1-13,7.3-13,14.9v12.8c0,8.3,6.7,15,15,15h111.2c8.3,0,15-6.7,15-15v-12.8
		C220.6,180.5,214.9,174.3,207.6,173.3z M108.3,103.1c0-7.2,5.8-13,13-13h57.4c7.2,0,13,5.8,13,13v61.1c0,3.4,1.1,6.5,3,9h-89.4
		c1.9-2.5,3-5.6,3-9V103.1z M214.6,200.9c0,5-4,9-9,9H94.4c-5,0-9-4-9-9v-12.8c0-5,4-9,9-9h111.2c5,0,9,4,9,9V200.9z"/>
	<path d="M124.9,111.5h42.8c1.7,0,3-1.3,3-3s-1.3-3-3-3h-42.8c-1.7,0-3,1.3-3,3S123.2,111.5,124.9,111.5z"/>
	<path d="M124.9,128H149c1.7,0,3-1.3,3-3s-1.3-3-3-3h-24.1c-1.7,0-3,1.3-3,3S123.2,128,124.9,128z"/>
	<path d="M199.4,188.7h-22.8c-1.7,0-3,1.3-3,3s1.3,3,3,3h22.8c1.7,0,3-1.3,3-3S201.1,188.7,199.4,188.7z"/>
</g>
</svg>
