<?xml version="1.0" encoding="utf-8"?>
<!-- Generator: Adobe Illustrator 24.2.3, SVG Export Plug-In . SVG Version: 6.00 Build 0)  -->
<svg version="1.1" id="Layer_1" xmlns="http://www.w3.org/2000/svg" xmlns:xlink="http://www.w3.org/1999/xlink" x="0px" y="0px"
	 viewBox="0 0 300 300" style="enable-background:new 0 0 300 300;" xml:space="preserve">
<g>
	<path d="M150,120.4c-16.3,0-29.6,13.3-29.6,29.6s13.3,29.6,29.6,29.6s29.6-13.3,29.6-29.6S166.3,120.4,150,120.4z M150,173.6
		c-13,0-23.6-10.6-23.6-23.6s10.6-23.6,23.6-23.6s23.6,10.6,23.6,23.6S163,173.6,150,173.6z"/>
	<circle cx="150" cy="150" r="9.1"/>
	<path d="M220.1,148.3c-12.8-30.6-40.2-50.4-70-50.4c-29.9,0-57.5,19.9-70.2,50.8c-0.3,0.7-0.4,1.6,0,2.4
		c12.7,30.9,40.2,50.9,70.2,50.9c29.8,0,57.3-20.2,70-51.5C220.4,149.9,220.4,149.1,220.1,148.3z M150.1,196.1
		c-27.2,0-52.2-18-64.2-46.1c12-28,37-46.1,64.2-46.1c27,0,52,17.8,64,45.6C202.1,177.8,177.1,196.1,150.1,196.1z"/>
</g>
</svg>
