<?xml version="1.0" encoding="utf-8"?>
<!-- Generator: Adobe Illustrator 24.2.3, SVG Export Plug-In . SVG Version: 6.00 Build 0)  -->
<svg version="1.1" id="Layer_1" xmlns="http://www.w3.org/2000/svg" xmlns:xlink="http://www.w3.org/1999/xlink" x="0px" y="0px"
	 viewBox="0 0 300 300" style="enable-background:new 0 0 300 300;" xml:space="preserve">
<path d="M200.9,84.1h-63.2c-10.5,0-19,8.5-19,19v10.2H99.1c-10.5,0-19,8.5-19,19v64.7c0,10.5,8.5,19,19,19h38.6h6.6h56.6
	c10.5,0,19-8.5,19-19v-93.9C219.9,92.6,211.4,84.1,200.9,84.1z M137.7,209.9H99.1c-7.2,0-13-5.8-13-13v-64.7c0-7.2,5.8-13,13-13
	h45.1c7.2,0,13,5.8,13,13v64.7c0,7.2-5.8,13-13,13H137.7z M213.9,196.9c0,7.2-5.8,13-13,13h-42.8c3.2-3.4,5.2-8,5.2-13v-64.7
	c0-10.5-8.5-19-19-19h-19.6v-10.2c0-7.2,5.8-13,13-13h63.2c7.2,0,13,5.8,13,13V196.9z"/>
</svg>
