<?xml version="1.0" encoding="utf-8"?>
<!-- Generator: Adobe Illustrator 24.2.3, SVG Export Plug-In . SVG Version: 6.00 Build 0)  -->
<svg version="1.1" id="Layer_1" xmlns="http://www.w3.org/2000/svg" xmlns:xlink="http://www.w3.org/1999/xlink" x="0px" y="0px"
	 viewBox="0 0 300 300" style="enable-background:new 0 0 300 300;" xml:space="preserve">
<path d="M156.6,86.6c-34.8,0-63.2,28.2-63.4,63l-8.1-8.1c-1.2-1.2-3.1-1.2-4.2,0c-1.2,1.2-1.2,3.1,0,4.2l11.1,11.1
	c1.1,1.1,2.6,1.7,4.1,1.7s3-0.6,4.1-1.7l11.2-11.1c1.2-1.2,1.2-3.1,0-4.2c-1.2-1.2-3.1-1.2-4.2,0l-8,8c0.2-31.4,25.9-57,57.4-57
	c31.6,0,57.4,25.7,57.4,57.4s-25.7,57.4-57.4,57.4c-10,0-19.8-2.6-28.4-7.5c-1.4-0.8-3.3-0.3-4.1,1.1s-0.3,3.3,1.1,4.1
	c9.5,5.4,20.3,8.3,31.3,8.3c35,0,63.4-28.4,63.4-63.4S191.5,86.6,156.6,86.6z"/>
</svg>
