<?xml version="1.0" encoding="utf-8"?>
<!-- Generator: Adobe Illustrator 21.1.0, SVG Export Plug-In . SVG Version: 6.00 Build 0)  -->
<svg version="1.1" id="Layer_1" xmlns="http://www.w3.org/2000/svg" xmlns:xlink="http://www.w3.org/1999/xlink" x="0px" y="0px"
	 viewBox="0 0 200 200" style="enable-background:new 0 0 200 200;" xml:space="preserve">
<style type="text/css">
	.st0{fill:#404040;}
</style>
<g>
	<path class="st0" d="M109.4,79.2c6.6,0,9.8,2.1,10.6,7l-0.1-0.1c-0.7-0.7-1.9-0.7-2.6,0.1c-0.7,0.7-0.7,1.9,0.1,2.6l3.9,3.7
		c0.2,0.2,0.4,0.3,0.6,0.4c0.2,0.1,0.4,0.1,0.7,0.1c0.1,0,0.2,0,0.4,0c0.2,0,0.5-0.1,0.7-0.3c0.1-0.1,0.2-0.2,0.3-0.2l3.7-3.9
		c0.7-0.7,0.7-1.9-0.1-2.6c-0.7-0.7-1.9-0.7-2.6,0.1l-0.1,0.1c-0.4-3.4-1.9-7.3-5.8-9.6c-2.5-1.5-5.6-2.2-9.6-2.2
		c-1.3,0-2.4,1.1-2.4,2.4S108,79.2,109.4,79.2z"/>
	<path class="st0" d="M126.4,97.8h-24.2V73.6c0-5.3-4.3-9.7-9.7-9.7H73.6c-5.3,0-9.7,4.3-9.7,9.7v38.8c0,5.3,4.3,9.7,9.7,9.7h4.3
		v4.3c0,5.3,4.3,9.7,9.7,9.7h38.8c5.3,0,9.7-4.3,9.7-9.7v-18.9C136.1,102.2,131.7,97.8,126.4,97.8z M73.6,117.2
		c-2.7,0-4.8-2.2-4.8-4.8V73.6c0-2.7,2.2-4.8,4.8-4.8h18.9c2.7,0,4.8,2.2,4.8,4.8v24.2H94V74.6c0-1-0.8-1.8-1.8-1.8H74
		c-1,0-1.8,0.8-1.8,1.8v30.2c0,1,0.8,1.8,1.8,1.8h4c0,0.3,0,0.6,0,0.8v9.7H73.6z M79,103h-3.3V76.4h14.6v21.4h-2.7
		C83.9,97.8,80.7,99.9,79,103z M131.2,126.4c0,2.7-2.2,4.8-4.8,4.8H87.6c-2.7,0-4.8-2.2-4.8-4.8v-18.9c0-2.7,2.2-4.8,4.8-4.8h38.8
		c2.7,0,4.8,2.2,4.8,4.8V126.4z"/>
	<circle class="st0" cx="87.9" cy="117" r="2.4"/>
	<path class="st0" d="M125.4,106H95.1c-1,0-1.8,0.8-1.8,1.8V126c0,1,0.8,1.8,1.8,1.8h30.2c1,0,1.8-0.8,1.8-1.8v-18.2
		C127.2,106.9,126.4,106,125.4,106z M123.6,124.2H97v-14.6h26.6V124.2z"/>
</g>
</svg>
