<?xml version="1.0" encoding="utf-8"?>
<!-- Generator: Adobe Illustrator 24.2.3, SVG Export Plug-In . SVG Version: 6.00 Build 0)  -->
<svg version="1.1" id="Layer_1" xmlns="http://www.w3.org/2000/svg" xmlns:xlink="http://www.w3.org/1999/xlink" x="0px" y="0px"
	 viewBox="0 0 300 300" style="enable-background:new 0 0 300 300;" xml:space="preserve">
<path d="M200.9,123.4h-20.7c-2,0-3.7-1.6-3.7-3.7V99.1c0-8.3-6.7-15-15-15h-23.2c-8.3,0-15,6.7-15,15v20.7c0,2-1.6,3.7-3.7,3.7H99.1
	c-8.3,0-15,6.7-15,15v23.2c0,8.3,6.7,15,15,15h20.7c2,0,3.7,1.6,3.7,3.7v20.7c0,8.3,6.7,15,15,15h23.2c8.3,0,15-6.7,15-15v-20.7
	c0-2,1.6-3.7,3.7-3.7h20.7c8.3,0,15-6.7,15-15v-23.2C215.9,130.1,209.2,123.4,200.9,123.4z M209.9,161.6c0,5-4,9-9,9h-20.7
	c-5.3,0-9.7,4.3-9.7,9.7v20.7c0,5-4,9-9,9h-23.2c-5,0-9-4-9-9v-20.7c0-5.3-4.3-9.7-9.7-9.7H99.1c-5,0-9-4-9-9v-23.2c0-5,4-9,9-9
	h20.7c5.3,0,9.7-4.3,9.7-9.7V99.1c0-5,4-9,9-9h23.2c5,0,9,4,9,9v20.7c0,5.3,4.3,9.7,9.7,9.7h20.7c5,0,9,4,9,9V161.6z"/>
</svg>
