<?xml version="1.0" encoding="utf-8"?>
<!-- Generator: Adobe Illustrator 24.2.3, SVG Export Plug-In . SVG Version: 6.00 Build 0)  -->
<svg version="1.1" id="Layer_1" xmlns="http://www.w3.org/2000/svg" xmlns:xlink="http://www.w3.org/1999/xlink" x="0px" y="0px"
	 viewBox="0 0 300 300" style="enable-background:new 0 0 300 300;" xml:space="preserve">
<style type="text/css">
</style>
<g>
	<path  d="M201.3,83.9h-75.6c-10.5,0-19,8.5-19,19v8.9l-3.2-3.2c-5.4-5.4-14.3-5.4-19.7,0c-2.6,2.6-4.1,6.1-4.1,9.9
		c0,3.7,1.5,7.2,4.1,9.9l22.9,22.9v45.9c0,10.5,8.5,19,19,19h75.6c10.5,0,19-8.5,19-19v-94.2C220.3,92.4,211.8,83.9,201.3,83.9z
		 M85.7,118.5c0-2.1,0.8-4.1,2.3-5.6c3.1-3.1,8.1-3.1,11.2,0l53.4,53.4c0,0,0,0,0,0c0.4,0.4,0.6,1,0.6,1.5c0,0.6-0.2,1.1-0.6,1.5
		l-4.5,4.5c0,0,0,0,0,0l-4.1,4.1c-0.4,0.4-0.7,0.8-1,1.2l-47.9-47.9c-0.8-0.8-0.8-2.2,0-3.1l4.5-4.5c1.2-1.2,1.2-3.1,0-4.2
		c-1.2-1.2-3.1-1.2-4.2,0L91,124c-0.5,0.5-1,1.1-1.3,1.7l-1.6-1.6C86.6,122.6,85.7,120.6,85.7,118.5z M158.9,172.5
		c0.3,0.3,0.5,0.6,0.6,1c0,0,0,0.1,0,0.1l2.9,11.8c0.2,0.7-0.3,1.3-0.5,1.5c-0.2,0.2-0.7,0.6-1.5,0.5l-11.8-2.9
		c-0.5-0.1-0.8-0.5-0.8-0.8c-0.1-0.2-0.2-0.9,0.5-1.5l4.1-4.1c0,0,0,0,0,0l4.5-4.5c0.5-0.5,1-1.1,1.3-1.7L158.9,172.5z M214.3,197.1
		c0,7.2-5.8,13-13,13h-75.6c-7.2,0-13-5.8-13-13v-39.9l30.8,30.8c0.1,0.1,0.1,0.1,0.2,0.2c0.9,1.1,2.2,1.8,3.7,2.2l11.8,2.9
		c0.6,0.1,1.2,0.2,1.8,0.2c1,0,2-0.2,2.9-0.6c0.1,0.1,0.1,0.2,0.2,0.2l1.5,1.5c0.6,0.6,1.4,0.9,2.1,0.9s1.5-0.3,2.1-0.9
		c1.2-1.2,1.2-3.1,0-4.2l-1.5-1.5c-0.2-0.2-0.2-0.4-0.1-0.6c0.1-0.2,0.1-0.5,0.2-0.7c0.3-1.1,0.3-2.3,0-3.5l-2.9-11.8c0,0,0,0,0-0.1
		c-0.4-1.5-1.1-2.8-2.2-3.9l-6.2-6.2c0,0,0,0,0,0c0,0,0,0,0,0l-44.2-44.2v-14.9c0-7.2,5.8-13,13-13h75.6c7.2,0,13,5.8,13,13V197.1z"
		/>
	<path  d="M190.6,139.7l5.9-7.5c1-1.3,0.8-3.2-0.5-4.2c-1.3-1-3.2-0.8-4.2,0.5l-5.1,6.4l-7.8-9.6
		c4.7-1.3,8.1-5.5,8.1-10.6v-1.5c0-6-4.9-10.9-10.9-10.9h-4.3c-6,0-10.9,4.9-10.9,10.9v7.5v4.9v8.3c0,1.7,1.3,3,3,3s3-1.3,3-3v-8.3
		h4.7l11.3,14.1l-6.5,8.2c-1,1.3-0.8,3.2,0.5,4.2c0.6,0.4,1.2,0.7,1.9,0.7c0.9,0,1.8-0.4,2.3-1.1l5.7-7.1l5.8,7.2
		c0.6,0.7,1.5,1.1,2.3,1.1c0.7,0,1.3-0.2,1.9-0.7c1.3-1,1.5-2.9,0.5-4.2L190.6,139.7z M166.9,113.3c0-2.7,2.2-4.9,4.9-4.9h4.3
		c2.7,0,4.9,2.2,4.9,4.9v1.5c0,2.7-2.2,4.9-4.9,4.9h-9.2V113.3z"/>
</g>
</svg>
