<?xml version="1.0" encoding="utf-8"?>
<!-- Generator: Adobe Illustrator 24.2.3, SVG Export Plug-In . SVG Version: 6.00 Build 0)  -->
<svg version="1.1" id="Layer_1" xmlns="http://www.w3.org/2000/svg" xmlns:xlink="http://www.w3.org/1999/xlink" x="0px" y="0px"
	 viewBox="0 0 300 300" style="enable-background:new 0 0 300 300;" xml:space="preserve">
<g>
	<path d="M195.3,157.6v-50.7v-1c0-0.2,0-0.4-0.1-0.5c0-0.1,0-0.1,0-0.2c0-0.1-0.1-0.2-0.1-0.3c0-0.1,0-0.1-0.1-0.2
		c-0.1-0.1-0.1-0.2-0.2-0.3c0,0,0-0.1-0.1-0.1c-0.1-0.1-0.2-0.3-0.3-0.4c0,0,0,0-0.1-0.1c-0.1-0.1-0.2-0.2-0.3-0.3
		c-0.1,0-0.1-0.1-0.2-0.1c-0.1-0.1-0.2-0.1-0.3-0.2c-0.1,0-0.1-0.1-0.2-0.1c0,0-0.1,0-0.1,0l-54-18.6c-1.5-0.5-3.1-0.5-4.6,0
		l-54,19.6c0,0-0.1,0-0.1,0c-0.1,0-0.1,0.1-0.2,0.1c-0.1,0-0.2,0.1-0.3,0.2c-0.1,0-0.1,0.1-0.2,0.1c-0.1,0.1-0.2,0.2-0.3,0.2
		c0,0-0.1,0.1-0.1,0.1c-0.1,0.1-0.2,0.3-0.3,0.4c0,0,0,0.1-0.1,0.1c-0.1,0.1-0.1,0.2-0.2,0.3c0,0.1,0,0.1-0.1,0.2
		c0,0.1-0.1,0.2-0.1,0.4c0,0.1,0,0.1,0,0.2c0,0.2-0.1,0.4-0.1,0.5v1v82.5c0,2.9,1.9,5.6,4.6,6.6l51.2,18.6c0.8,0.3,1.6,0.4,2.4,0.4
		c1,0,1.9-0.2,2.8-0.6l28.6-12.5c5.2,7.7,14.1,12.7,24,12.7c16,0,29.1-13,29.1-29.1C221.4,171.5,209.9,159.1,195.3,157.6z
		 M136.6,90.1c0.2-0.1,0.4-0.1,0.6,0l47.4,16.3l-47.4,17c-0.2,0.1-0.5,0.1-0.8,0l-47.3-16.1L136.6,90.1z M84.6,190.3v-78.3
		l49.3,16.8v80.1l-48.7-17.7C84.9,191.1,84.6,190.7,84.6,190.3z M140,208.6v-79.8l49.3-17.7v46.5c-14.6,1.5-26.1,13.9-26.1,28.9
		c0,3.9,0.8,7.6,2.2,11L140,208.6z M192.3,209.6c-12.7,0-23.1-10.4-23.1-23.1s10.4-23.1,23.1-23.1c12.7,0,23.1,10.4,23.1,23.1
		S205,209.6,192.3,209.6z"/>
	<path d="M197.3,189.8c-2.8,0-5-2.2-5-5v-5.6c0-1.7-1.3-3-3-3s-3,1.3-3,3v5.6c0,6.1,4.9,11,11,11c1.7,0,3-1.3,3-3
		S199,189.8,197.3,189.8z"/>
</g>
</svg>
