<?xml version="1.0" encoding="utf-8"?>
<!-- Generator: Adobe Illustrator 24.2.3, SVG Export Plug-In . SVG Version: 6.00 Build 0)  -->
<svg version="1.1" id="Layer_1" xmlns="http://www.w3.org/2000/svg" xmlns:xlink="http://www.w3.org/1999/xlink" x="0px" y="0px"
	 viewBox="0 0 300 300" style="enable-background:new 0 0 300 300;" xml:space="preserve">
<g>
	<path d="M155,84.7c-28,0-51.9,17.7-61.2,42.5H82.7c-1.7,0-3,1.3-3,3s1.3,3,3,3h9.2c-1.2,4.4-1.9,9-2.1,13.8h-4.2c-1.7,0-3,1.3-3,3
		c0,1.7,1.3,3,3,3h4.2c0.2,4.7,0.9,9.3,2.1,13.8h-7.8c-1.7,0-3,1.3-3,3s1.3,3,3,3h9.7c9.3,24.8,33.2,42.5,61.2,42.5
		c36,0,65.3-29.3,65.3-65.3S191,84.7,155,84.7z M155,209.3c-24.6,0-45.8-15.1-54.7-36.5h11.6c1.7,0,3-1.3,3-3s-1.3-3-3-3H98.2
		c-1.3-4.4-2.1-9-2.4-13.8h22.5c1.7,0,3-1.3,3-3c0-1.7-1.3-3-3-3H95.8c0.2-4.8,1.1-9.4,2.4-13.8h12.3c1.7,0,3-1.3,3-3s-1.3-3-3-3
		h-10.2c8.9-21.4,30.1-36.5,54.7-36.5c32.7,0,59.3,26.6,59.3,59.3S187.7,209.3,155,209.3z"/>
	<path d="M167.4,162.3c-8.8,0-15.9-7.2-15.9-15.9v-13.2c0-1.7-1.3-3-3-3s-3,1.3-3,3v13.2c0,12.1,9.8,21.9,21.9,21.9c1.7,0,3-1.3,3-3
		S169,162.3,167.4,162.3z"/>
</g>
</svg>
