<?xml version="1.0" encoding="utf-8"?>
<!-- Generator: Adobe Illustrator 24.2.3, SVG Export Plug-In . SVG Version: 6.00 Build 0)  -->
<svg version="1.1" id="Layer_1" xmlns="http://www.w3.org/2000/svg" xmlns:xlink="http://www.w3.org/1999/xlink" x="0px" y="0px"
	 viewBox="0 0 300 300" style="enable-background:new 0 0 300 300;" xml:space="preserve">
<path d="M218,132.9l-43.4-45.7c-2.6-2.7-6.4-3.5-9.9-2.2c-3.4,1.4-5.7,4.7-5.7,8.4v18.9c0,1.7-1.4,3.1-3.1,3.1
	c-42.2,0-76.5,34.3-76.5,76.5c0,7.2,1,14.3,2.9,21.1c0,0.1,0,0.1,0.1,0.2c0.2,1,1,1.9,2.1,2.2c0.3,0.1,0.6,0.1,0.8,0.1
	c1.3,0,2.5-0.9,2.9-2.2c8.7-29.9,36.5-50.8,67.7-50.8c1.7,0,3.1,1.4,3.1,3.1v19.1c0,3.7,2.2,7,5.7,8.4c1.1,0.4,2.2,0.7,3.4,0.7
	c2.4,0,4.8-1,6.5-2.8l43.4-45.7C221.3,141.8,221.3,136.4,218,132.9z M213.7,141.2l-43.4,45.7c-1.3,1.4-2.8,0.9-3.3,0.7
	c-0.4-0.2-1.9-0.9-1.9-2.8v-19.1c0-5-4.1-9.1-9.1-9.1c-30.3,0-57.6,18.2-69.8,45.2c-0.5-3.3-0.7-6.6-0.7-9.9
	c0-38.9,31.6-70.5,70.5-70.5c5,0,9.1-4.1,9.1-9.1V93.5c0-1.9,1.4-2.6,1.9-2.8c0.4-0.2,2-0.6,3.3,0.7l43.4,45.7
	C214.8,138.2,214.8,140,213.7,141.2z"/>
</svg>
