<?xml version="1.0" encoding="utf-8"?>
<!-- Generator: Adobe Illustrator 24.2.3, SVG Export Plug-In . SVG Version: 6.00 Build 0)  -->
<svg version="1.1" id="Layer_1" xmlns="http://www.w3.org/2000/svg" xmlns:xlink="http://www.w3.org/1999/xlink" x="0px" y="0px"
	 viewBox="0 0 300 300" style="enable-background:new 0 0 300 300;" xml:space="preserve">
<g>
	<path d="M190.7,156.3c-0.1,0-0.1-0.1-0.2-0.1L158,143l4.3-1.7c0,0,0.1,0,0.1,0c9-4.1,15.2-12.7,16-22.4c0.1-0.7,0.1-1.3,0.1-2
		c0-0.4,0-3.9,0-4.4c-0.2-4-1.1-7.9-2.8-11.6c-4.6-10-14-16.6-24.7-17.2c0,0,0,0-0.1,0c0,0,0,0-0.1,0l-0.8,0l-0.8,0c0,0,0,0-0.1,0
		c0,0,0,0-0.1,0c-10.6,0.7-20.1,7.3-24.7,17.2c-1.7,3.7-2.6,7.5-2.8,11.6c0,0.5,0,4,0,4.4c0,0.7,0,1.3,0.1,2
		c0.8,9.8,6.9,18.4,16,22.4c0,0,0.1,0,0.1,0l4.3,1.7l-32.5,13.2c-0.1,0-0.1,0.1-0.2,0.1c-8.8,4.3-14.4,13.6-14.4,23.6v13.1
		c0,3.9,1.7,23.5,35.1,23.5h6.1c0.3,0,0.6,0,1,0h26.1c0.3,0,0.6,0,1,0h6.1c33.4,0,35.1-19.6,35.1-23.5v-13.1
		C205.1,169.9,199.5,160.6,190.7,156.3z M140.1,135.7c-7-3.2-11.8-9.9-12.4-17.4c0-0.5-0.1-1-0.1-1.5c0-0.5,0-3.8,0-4.1
		c0.1-3.2,0.9-6.3,2.2-9.3c3.7-7.9,11.1-13.2,19.5-13.8l0.7,0l0.7,0c8.4,0.6,15.8,5.8,19.5,13.8c1.4,2.9,2.1,6.1,2.2,9.3
		c0,0.4,0,3.6,0,4.1c0,0.5,0,1-0.1,1.5c-0.6,7.6-5.4,14.3-12.4,17.4l-9.9,4L140.1,135.7z M131.9,205.4V182c0-2.8,2.2-5,5-5h26.1
		c2.8,0,5,2.2,5,5v23.4c0,2.6-2,4.7-4.5,5h-27.1C133.9,210.1,131.9,208,131.9,205.4z M141.5,171c0.7-4,4.2-7.1,8.5-7.1
		c4.2,0,7.8,3.1,8.5,7.1H141.5z M199.1,192.9c0,4-2,16.5-26.2,17.4c0.7-1.5,1.2-3.1,1.2-4.9V182c0-5.6-4.1-10.1-9.5-10.9
		c-0.7-7.4-7-13.2-14.6-13.2s-13.9,5.8-14.6,13.2c-5.4,0.7-9.5,5.3-9.5,10.9v23.4c0,1.8,0.4,3.4,1.2,4.9
		c-24.3-0.9-26.2-13.5-26.2-17.4v-13.1c0-7.7,4.3-14.8,11-18.1l38.2-15.5l38.2,15.5c6.7,3.4,11,10.5,11,18.1V192.9z"/>
	<path d="M150,184.6c-3.5,0-6.3,2.8-6.3,6.3c0,2.4,1.3,4.4,3.3,5.5v6.4c0,1.7,1.3,3,3,3c1.7,0,3-1.3,3-3v-6.4
		c1.9-1.1,3.3-3.1,3.3-5.5C156.3,187.4,153.5,184.6,150,184.6z"/>
</g>
</svg>
