<?xml version="1.0" encoding="utf-8"?>
<!-- Generator: Adobe Illustrator 24.2.3, SVG Export Plug-In . SVG Version: 6.00 Build 0)  -->
<svg version="1.1" id="Layer_1" xmlns="http://www.w3.org/2000/svg" xmlns:xlink="http://www.w3.org/1999/xlink" x="0px" y="0px"
	 viewBox="0 0 300 300" style="enable-background:new 0 0 300 300;" xml:space="preserve">
<g>
	<g>
		<path d="M201.6,215.9H98.4c-10.5,0-19-8.5-19-19v-93.9c0-10.5,8.5-19,19-19h103.2c10.5,0,19,8.5,19,19v93.9
			C220.6,207.4,212.1,215.9,201.6,215.9z M98.4,90.1c-7.2,0-13,5.8-13,13v93.9c0,7.2,5.8,13,13,13h103.2c7.2,0,13-5.8,13-13v-93.9
			c0-7.2-5.8-13-13-13H98.4z"/>
	</g>
	<path d="M163.4,201.6h-26.8c-1.7,0-3-1.3-3-3s1.3-3,3-3h26.8c1.7,0,3,1.3,3,3S165.1,201.6,163.4,201.6z"/>
</g>
</svg>
