<?xml version="1.0" encoding="utf-8"?>
<!-- Generator: Adobe Illustrator 24.2.3, SVG Export Plug-In . SVG Version: 6.00 Build 0)  -->
<svg version="1.1" id="Layer_1" xmlns="http://www.w3.org/2000/svg" xmlns:xlink="http://www.w3.org/1999/xlink" x="0px" y="0px"
	 viewBox="0 0 300 300" style="enable-background:new 0 0 300 300;" xml:space="preserve">
<g>
	<path d="M202.5,103.4h-17.6c-3.9,0-7-3.1-7-7c0-0.3-0.1-0.6-0.1-0.9c-0.9-6.3-6.3-11.2-12.9-11.2h-29.7c-6.5,0-12,4.9-12.9,11.2
		c-0.1,0.3-0.1,0.6-0.1,0.9c0,3.9-3.1,7-7,7H97.5c-1.7,0-3,1.3-3,3s1.3,3,3,3h1.8c4.7,0,8.7,3.5,9.3,8.2l7.9,84.5
		c0.7,7.8,7.1,13.6,14.9,13.6h37c7.8,0,14.2-5.9,14.9-13.6l7.9-84.5c0.6-4.7,4.6-8.2,9.3-8.2h1.8c1.7,0,3-1.3,3-3
		S204.2,103.4,202.5,103.4z M128,98.2c0.1-0.3,0.1-0.6,0.1-0.9c0-3.9,3.1-7,7-7h29.7c3.9,0,7,3.1,7,7c0,0.3,0.1,0.6,0.1,0.9
		c0.3,1.9,0.9,3.6,1.9,5.2h-47.9C127.1,101.8,127.7,100.1,128,98.2z M185.4,116.8C185.4,116.9,185.4,116.9,185.4,116.8
		C185.4,116.9,185.4,116.9,185.4,116.8l-8,84.7c-0.4,4.7-4.3,8.2-9,8.2h-37c-4.7,0-8.5-3.5-9-8.2l-7.9-84.6c0,0,0,0,0,0c0,0,0,0,0,0
		c-0.4-2.8-1.5-5.4-3.1-7.5h77C186.9,111.5,185.8,114,185.4,116.8z"/>
	<path d="M140,139.1c-1.7,0-3,1.3-3,3v34.8c0,1.7,1.3,3,3,3s3-1.3,3-3v-34.8C143,140.5,141.7,139.1,140,139.1z"/>
	<path d="M160,139.1c-1.7,0-3,1.3-3,3v34.8c0,1.7,1.3,3,3,3s3-1.3,3-3v-34.8C163,140.5,161.7,139.1,160,139.1z"/>
</g>
</svg>
