<?xml version="1.0" encoding="utf-8"?>
<!-- Generator: Adobe Illustrator 24.2.3, SVG Export Plug-In . SVG Version: 6.00 Build 0)  -->
<svg version="1.1" id="Layer_1" xmlns="http://www.w3.org/2000/svg" xmlns:xlink="http://www.w3.org/1999/xlink" x="0px" y="0px"
	 viewBox="0 0 300 300" style="enable-background:new 0 0 300 300;" xml:space="preserve">
<g>
	<path d="M201.5,84.1h-103c-10.5,0-19,8.5-19,19v87.7c0,10.5,8.5,19,19,19h16.8c1.2,3.5,4.6,6.1,8.5,6.1s7.3-2.5,8.5-6.1h69.1
		c10.5,0,19-8.5,19-19v-87.7C220.5,92.6,212,84.1,201.5,84.1z M123.9,209.9c-1.7,0-3.1-1.4-3.1-3.1s1.4-3.1,3.1-3.1
		c1.7,0,3.1,1.4,3.1,3.1S125.6,209.9,123.9,209.9z M214.5,190.8c0,7.2-5.8,13-13,13h-69.1c-1.2-3.5-4.6-6.1-8.5-6.1
		s-7.3,2.5-8.5,6.1H98.5c-7.2,0-13-5.8-13-13v-87.7c0-7.2,5.8-13,13-13h103c7.2,0,13,5.8,13,13V190.8z"/>
	<path d="M150,107.2c-21.9,0-39.8,17.8-39.8,39.8c0,21.9,17.8,39.8,39.8,39.8c21.9,0,39.8-17.8,39.8-39.8
		C189.8,125,171.9,107.2,150,107.2z M150,180.8c-18.6,0-33.8-15.2-33.8-33.8c0-18.6,15.2-33.8,33.8-33.8c18.6,0,33.8,15.2,33.8,33.8
		C183.8,165.6,168.6,180.8,150,180.8z"/>
	<path d="M161.8,142.3l-13-7.7c-2.2-1.3-4.8-1.3-7-0.1c-2.2,1.2-3.5,3.5-3.5,6l-0.1,15.1c0,2.5,1.3,4.8,3.4,6.1c1.1,0.6,2.3,1,3.5,1
		c1.2,0,2.4-0.3,3.4-0.9l13.1-7.5c2.2-1.2,3.5-3.5,3.5-6S163.9,143.5,161.8,142.3z M158.7,149.1l-13.1,7.5c-0.4,0.2-0.8,0.1-1,0
		c-0.2-0.1-0.5-0.4-0.5-0.9l0.1-15.1c0-0.5,0.3-0.7,0.5-0.8c0.1-0.1,0.3-0.1,0.5-0.1c0.1,0,0.3,0,0.5,0.1l6.5,3.8v0l6.5,3.8
		c0.4,0.2,0.5,0.6,0.5,0.9S159.1,148.9,158.7,149.1z"/>
</g>
</svg>
