<?xml version="1.0" encoding="utf-8"?>
<!-- Generator: Adobe Illustrator 24.2.3, SVG Export Plug-In . SVG Version: 6.00 Build 0)  -->
<svg version="1.1" id="Layer_1" xmlns="http://www.w3.org/2000/svg" xmlns:xlink="http://www.w3.org/1999/xlink" x="0px" y="0px"
	 viewBox="0 0 300 300" style="enable-background:new 0 0 300 300;" xml:space="preserve">
<g>
	<path d="M166.9,113.6c8,0,14.6-6.5,14.6-14.6s-6.5-14.6-14.6-14.6S152.3,91,152.3,99S158.9,113.6,166.9,113.6z M166.9,90.4
		c4.7,0,8.6,3.9,8.6,8.6s-3.9,8.6-8.6,8.6s-8.6-3.9-8.6-8.6S162.2,90.4,166.9,90.4z"/>
	<path d="M193.6,123.2c-1.4-0.9-3.3-0.4-4.1,1l-6.7,10.9c-0.2,0.4-0.6,0.4-0.7,0.5c-0.2,0-0.5,0-0.8-0.3L166.8,121c0,0,0,0-0.1-0.1
		l0,0c-1.8-1.7-4.2-2.6-6.6-2.7c0,0-0.1,0-0.1,0l-0.1,0c0,0,0,0,0,0c0,0,0,0,0,0l-27.1,0.1c-2.6,0-5,1.2-6.5,3.2
		c-1.6,2-2.2,4.6-1.5,7.1c0,0,0,0.1,0,0.1l3.1,10.9c0.4,1.3,1.6,2.2,2.9,2.2c0.3,0,0.5,0,0.8-0.1c1.6-0.5,2.5-2.1,2.1-3.7l-3.1-10.9
		c-0.2-0.9,0.2-1.6,0.4-2c0.3-0.3,0.9-0.9,1.8-0.9l17.8-0.1l-11.4,21.8l0,0c-0.2,0.3-0.4,0.7-0.5,1l-33.5,64.1
		c-0.8,1.5-0.2,3.3,1.3,4c0.4,0.2,0.9,0.3,1.4,0.3c1.1,0,2.1-0.6,2.7-1.6l27.8-53.3c1.2,3,3.3,5.6,6.1,7.5c0,0,0,0,0,0l13.3,9.4
		c0.1,0.1,0.2,0.1,0.3,0.2c2.4,1.3,4.1,3.7,4.5,6.3l3.7,28.3c0.2,1.5,1.5,2.6,3,2.6c0.1,0,0.3,0,0.4,0c1.6-0.2,2.8-1.7,2.6-3.4
		l-3.7-28.4c-0.7-4.5-3.4-8.4-7.4-10.6l-13.2-9.3c0,0,0,0,0,0l0,0c-3-2-4.8-5.4-4.8-9c0-1.7,0.4-3.4,1.2-4.9l11.7-22.5l0,0
		c0.6-1.6,2.1-2.6,3.8-2.6l0,0c1,0,2,0.4,2.7,1.1l14.3,14.2c1.3,1.3,3.1,2,4.9,2c0.3,0,0.6,0,0.8-0.1c2.1-0.3,4-1.5,5.1-3.3
		l6.7-10.9C195.4,125.9,195,124.1,193.6,123.2z"/>
</g>
</svg>
