<?xml version="1.0" encoding="utf-8"?>
<!-- Generator: Adobe Illustrator 24.2.3, SVG Export Plug-In . SVG Version: 6.00 Build 0)  -->
<svg version="1.1" id="Layer_1" xmlns="http://www.w3.org/2000/svg" xmlns:xlink="http://www.w3.org/1999/xlink" x="0px" y="0px"
	 viewBox="0 0 300 300" style="enable-background:new 0 0 300 300;" xml:space="preserve">
<g>
	<path d="M173.1,192.9c-1.4-0.9-3.2-0.5-4.2,0.9c-6.6,10-17.8,16-29.8,16c-19.6,0-35.6-16-35.6-35.6c0-10.8,4.8-20.9,13.2-27.7
		c1.3-1,1.5-2.9,0.4-4.2c-1-1.3-2.9-1.5-4.2-0.4c-9.8,8-15.4,19.7-15.4,32.3c0,23,18.7,41.6,41.6,41.6c14,0,27-7,34.8-18.7
		C174.8,195.7,174.5,193.8,173.1,192.9z"/>
	<path d="M201.8,182.2c-1-1.3-2.9-1.5-4.2-0.5l-9.3,7.2c-0.4,0.1-0.9,0-1.2-0.4L170,160.6c-2-3.2-5.6-5.2-9.4-5.2h-16.8
		c-5.8,0-10.5-4.7-10.5-10.5v-6.1c1.3,0.6,2.7,0.9,4.2,0.9h26.3c1.7,0,3-1.3,3-3s-1.3-3-3-3h-26.3c-2.3,0-4.2-1.9-4.2-4.2V117
		c7.7-1.4,13.5-8.1,13.5-16.2c0-9.1-7.4-16.5-16.5-16.5s-16.5,7.4-16.5,16.5c0,8.1,5.8,14.8,13.5,16.2v27.9
		c0,9.1,7.4,16.5,16.5,16.5h16.8c1.7,0,3.4,0.9,4.3,2.4l17.2,27.9c1.3,2.1,3.6,3.3,6,3.3c1.1,0,2.3-0.3,3.3-0.8
		c0.1-0.1,0.3-0.2,0.4-0.3l9.5-7.4C202.6,185.4,202.9,183.5,201.8,182.2z M119.9,100.7c0-5.8,4.7-10.5,10.5-10.5s10.5,4.7,10.5,10.5
		c0,5.8-4.7,10.5-10.5,10.5S119.9,106.5,119.9,100.7z"/>
</g>
</svg>
