<?xml version="1.0" encoding="utf-8"?>
<!-- Generator: Adobe Illustrator 24.2.3, SVG Export Plug-In . SVG Version: 6.00 Build 0)  -->
<svg version="1.1" id="Layer_1" xmlns="http://www.w3.org/2000/svg" xmlns:xlink="http://www.w3.org/1999/xlink" x="0px" y="0px"
	 viewBox="0 0 300 300" style="enable-background:new 0 0 300 300;" xml:space="preserve">
<style type="text/css">
	.st0{fill:#282828;}
	.st1{fill:#FFFFFF;}
</style>
<g>
	<path class="st0" d="M217.6,116.6c-1.6-6.1-6.4-10.8-12.5-12.5c-11-2.9-55.1-2.9-55.1-2.9s-44.1,0-55.1,2.9
		c-6.1,1.6-10.8,6.4-12.5,12.5c-2.9,11-2.9,33.9-2.9,33.9s0,22.9,2.9,33.9c1.6,6.1,6.4,10.8,12.5,12.5c11,2.9,55.1,2.9,55.1,2.9
		s44.1,0,55.1-2.9c6.1-1.6,10.8-6.4,12.5-12.5c2.9-11,2.9-33.9,2.9-33.9S220.5,127.6,217.6,116.6z"/>
	<polygon class="st1" points="135.9,171.6 135.9,129.3 172.5,150.5 	"/>
</g>
</svg>
