<?xml version="1.0" encoding="utf-8"?>
<!-- Generator: Adobe Illustrator 24.2.3, SVG Export Plug-In . SVG Version: 6.00 Build 0)  -->
<svg version="1.1" id="Layer_1" xmlns="http://www.w3.org/2000/svg" xmlns:xlink="http://www.w3.org/1999/xlink" x="0px" y="0px"
	 viewBox="0 0 300 300" style="enable-background:new 0 0 300 300;" xml:space="preserve">
<g>
	<path d="M220.6,113.6c0,0,0-0.1,0-0.1c-0.1-10.3-8.6-18.7-19-18.7l-10.7-0.1c-3.9,0-7-3.2-7-7c0-1.7-1.3-3-3-3s-3,1.3-3,3
		c0,3.9-3.2,7-7,7H129c-3.9,0-7-3.2-7-7c0-1.7-1.3-3-3-3s-3,1.3-3,3c0,3.9-3.2,7-7,7l-9.5,0.1c-0.2,0-0.3,0-0.5,0.1
		c-0.2,0-0.3-0.1-0.5-0.1c-10.5,0-19,8.5-19,19v82.6c0,3.8,1.1,7.5,3.2,10.6c3.5,5.2,9.4,8.4,15.8,8.4h103.2c10.5,0,19-8.5,19-19
		v-82.6C220.6,113.7,220.6,113.7,220.6,113.6C220.6,113.7,220.6,113.6,220.6,113.6z M98.4,100.8c0.2,0,0.3,0,0.5-0.1
		c0.2,0,0.3,0.1,0.5,0.1c0,0,0,0,0,0l9.5-0.1c4,0,7.6-1.8,10-4.7c2.4,2.9,6,4.7,10,4.7h41.9c4,0,7.6-1.8,10-4.7
		c2.4,2.9,6,4.7,10,4.7l10.7,0.1c7.1,0,13,5.8,13,12.9c0,6.1-5,11-11.1,11h-107c-4.2,0-8.1,1.6-11.1,4.1v-15.1
		C85.4,106.6,91.3,100.8,98.4,100.8z M201.6,209.3H98.4c-4.3,0-8.4-2.1-10.8-5.7c-1.5-2.1-2.2-4.7-2.2-7.3v-54.5
		c0-6.1,5-11.1,11.1-11.1h107c4.2,0,8.1-1.6,11.1-4.1v69.7C214.6,203.5,208.7,209.3,201.6,209.3z"/>
	<path d="M130.4,149.5c-1.7,0-3,1.3-3,3v34.4c0,1.7,1.3,3,3,3s3-1.3,3-3v-34.4C133.4,150.8,132,149.5,130.4,149.5z"/>
	<path d="M167.4,167.4c2-2,3.2-4.8,3.2-7.8c0-6.1-5-11.1-11.1-11.1s-11.1,5-11.1,11.1c0,3,1.2,5.8,3.2,7.8
		c-3.1,2.4-5.2,6.1-5.2,10.4c0,7.2,5.9,13.1,13.1,13.1s13.1-5.9,13.1-13.1C172.6,173.5,170.6,169.8,167.4,167.4z M154.4,159.6
		c0-2.8,2.3-5.1,5.1-5.1s5.1,2.3,5.1,5.1s-2.3,5.1-5.1,5.1S154.4,162.4,154.4,159.6z M159.5,184.8c-3.9,0-7.1-3.2-7.1-7.1
		c0-3.9,3.2-7.1,7.1-7.1s7.1,3.2,7.1,7.1C166.6,181.7,163.4,184.8,159.5,184.8z"/>
</g>
</svg>
