<?xml version="1.0" encoding="utf-8"?>
<!-- Generator: Adobe Illustrator 24.2.3, SVG Export Plug-In . SVG Version: 6.00 Build 0)  -->
<svg version="1.1" id="Layer_1" xmlns="http://www.w3.org/2000/svg" xmlns:xlink="http://www.w3.org/1999/xlink" x="0px" y="0px"
	 viewBox="0 0 300 300" style="enable-background:new 0 0 300 300;" xml:space="preserve">
<g>
	<path d="M150,84.7c-1.7,0-3,1.3-3,3s1.3,3,3,3c32.7,0,59.3,26.6,59.3,59.3s-26.6,59.3-59.3,59.3S90.7,182.7,90.7,150
		c0-5.4,0.7-10.8,2.2-15.9c0.4-1.6-0.5-3.2-2.1-3.7c-1.6-0.4-3.3,0.5-3.7,2.1c-1.6,5.7-2.4,11.6-2.4,17.5c0,36,29.3,65.3,65.3,65.3
		s65.3-29.3,65.3-65.3S186,84.7,150,84.7z"/>
	<path d="M162.4,168.3c1.7,0,3-1.3,3-3s-1.3-3-3-3c-8.8,0-15.9-7.2-15.9-15.9v-13.2c0-1.7-1.3-3-3-3s-3,1.3-3,3v13.2
		C140.4,158.4,150.3,168.3,162.4,168.3z"/>
	<path d="M90,115.3c0,0.1,0,0.1,0.1,0.2c0,0.1,0.1,0.3,0.1,0.4c0,0.1,0.1,0.1,0.1,0.2c0.1,0.1,0.1,0.2,0.2,0.3
		c0,0.1,0.1,0.1,0.1,0.1c0.1,0.1,0.2,0.2,0.3,0.3c0.1,0.1,0.3,0.2,0.4,0.3c0,0,0,0,0,0c0.1,0.1,0.3,0.2,0.4,0.2c0,0,0,0,0.1,0
		c0.4,0.2,0.8,0.2,1.2,0.2c0,0,0,0,0,0h14.6c1.7,0,3-1.3,3-3s-1.3-3-3-3h-7.4l7.3-7.3c0,0,0,0,0,0c2-1.9,3.1-4.6,3.1-7.4
		c0-5.7-4.6-10.3-10.3-10.3S90,91.3,90,97c0,1.7,1.3,3,3,3s3-1.3,3-3c0-2.4,1.9-4.3,4.3-4.3s4.3,1.9,4.3,4.3c0,1.2-0.5,2.3-1.4,3.1
		c0,0,0,0,0,0c0,0,0,0,0,0l-12.4,12.4c-0.2,0.1-0.3,0.3-0.4,0.5c0,0,0,0.1-0.1,0.1c-0.1,0.1-0.2,0.3-0.2,0.4c0,0.1,0,0.1-0.1,0.2
		c0,0.1-0.1,0.2-0.1,0.3c0,0.2,0,0.3-0.1,0.5c0,0,0,0,0,0.1c0,0,0,0,0,0C90,114.9,90,115.1,90,115.3z"/>
	<path d="M114,110h7.5h5v4.7c0,1.7,1.3,3,3,3s3-1.3,3-3V110h2c1.7,0,3-1.3,3-3s-1.3-3-3-3h-2v-4.7v-9.8c0-1.2-0.8-2.4-1.9-2.8
		c-1.2-0.4-2.5-0.1-3.3,0.8L111.8,105c-0.8,0.9-1,2.1-0.5,3.2S112.9,110,114,110z M126.5,97.5v1.9v4.7h-5h-0.8L126.5,97.5z"/>
</g>
</svg>
