<?xml version="1.0" encoding="utf-8"?>
<!-- Generator: Adobe Illustrator 24.2.3, SVG Export Plug-In . SVG Version: 6.00 Build 0)  -->
<svg version="1.1" id="Layer_1" xmlns="http://www.w3.org/2000/svg" xmlns:xlink="http://www.w3.org/1999/xlink" x="0px" y="0px"
	 viewBox="0 0 300 300" style="enable-background:new 0 0 300 300;" xml:space="preserve">
<g>
	<path d="M102.9,119.5h54.8c1.7,0,3-1.3,3-3s-1.3-3-3-3h-54.8c-1.7,0-3,1.3-3,3S101.2,119.5,102.9,119.5z"/>
	<path d="M135,130h-32.1c-1.7,0-3,1.3-3,3s1.3,3,3,3H135c1.7,0,3-1.3,3-3S136.7,130,135,130z"/>
	<path d="M190.7,150.1v-47c0-10.5-8.5-19-19-19H98.3c-10.5,0-19,8.5-19,19v93.9c0,10.5,8.5,19,19,19h73.4c2.4,0,4.7-0.5,6.8-1.3
		c2.9,0.8,6,1.3,9.2,1.3c18.2,0,33-14.8,33-33C220.7,165.8,207.5,151.6,190.7,150.1z M98.3,209.9c-7.2,0-13-5.8-13-13v-93.9
		c0-7.2,5.8-13,13-13h73.4c7.2,0,13,5.8,13,13v47c-16.8,1.5-30,15.7-30,32.9c0,11.2,5.6,21,14.1,27H98.3z M187.7,209.9
		c-14.9,0-27-12.1-27-27s12.1-27,27-27s27,12.1,27,27S202.6,209.9,187.7,209.9z"/>
	<path d="M198.9,180h-8v-8c0-1.7-1.3-3-3-3s-3,1.3-3,3v8h-8c-1.7,0-3,1.3-3,3s1.3,3,3,3h8v8c0,1.7,1.3,3,3,3s3-1.3,3-3v-8h8
		c1.7,0,3-1.3,3-3S200.6,180,198.9,180z"/>
</g>
</svg>
