<?xml version="1.0" encoding="utf-8"?>
<!-- Generator: Adobe Illustrator 24.2.3, SVG Export Plug-In . SVG Version: 6.00 Build 0)  -->
<svg version="1.1" id="Layer_1" xmlns="http://www.w3.org/2000/svg" xmlns:xlink="http://www.w3.org/1999/xlink" x="0px" y="0px"
	 viewBox="0 0 300 300" style="enable-background:new 0 0 300 300;" xml:space="preserve">
<g>
	<path d="M128.7,84.4H94.9c-8.3,0-15,6.7-15,15v29.8c0,8.3,6.7,15,15,15h33.8c8.3,0,15-6.7,15-15V99.4
		C143.7,91.1,136.9,84.4,128.7,84.4z M137.7,129.2c0,5-4,9-9,9H94.9c-5,0-9-4-9-9V99.4c0-5,4-9,9-9h33.8c5,0,9,4,9,9V129.2z"/>
	<path d="M128.7,155.8H94.9c-8.3,0-15,6.7-15,15v29.8c0,8.3,6.7,15,15,15h33.8c8.3,0,15-6.7,15-15v-29.8
		C143.7,162.6,136.9,155.8,128.7,155.8z M137.7,200.6c0,5-4,9-9,9H94.9c-5,0-9-4-9-9v-29.8c0-5,4-9,9-9h33.8c5,0,9,4,9,9V200.6z"/>
	<path d="M205.1,155.8h-33.8c-8.3,0-15,6.7-15,15v29.8c0,8.3,6.7,15,15,15h33.8c8.3,0,15-6.7,15-15v-29.8
		C220.1,162.6,213.4,155.8,205.1,155.8z M214.1,200.6c0,5-4,9-9,9h-33.8c-5,0-9-4-9-9v-29.8c0-5,4-9,9-9h33.8c5,0,9,4,9,9V200.6z"/>
	<path d="M205.1,84.4h-33.8c-8.3,0-15,6.7-15,15v29.8c0,8.3,6.7,15,15,15h33.8c8.3,0,15-6.7,15-15V99.4
		C220.1,91.1,213.4,84.4,205.1,84.4z M214.1,129.2c0,5-4,9-9,9h-33.8c-5,0-9-4-9-9V99.4c0-5,4-9,9-9h33.8c5,0,9,4,9,9V129.2z"/>
</g>
</svg>
