<?xml version="1.0" encoding="utf-8"?>
<!-- Generator: Adobe Illustrator 24.2.3, SVG Export Plug-In . SVG Version: 6.00 Build 0)  -->
<svg version="1.1" id="Layer_1" xmlns="http://www.w3.org/2000/svg" xmlns:xlink="http://www.w3.org/1999/xlink" x="0px" y="0px"
	 viewBox="0 0 300 300" style="enable-background:new 0 0 300 300;" xml:space="preserve">
<path d="M216.1,150.2c0-22.1-17.9-40-40-40c-8.5,0-16.5,2.6-23.2,7.4c3.2-15.4,16.8-27.1,33.2-27.1c1.7,0,3-1.3,3-3s-1.3-3-3-3
	c-11.4,0-21.7,4.8-29,12.5c-2.2-3.5-6.4-6.8-11-9.2c-4-2-8.2-3.2-11.8-3.4c-6-0.3-8.2,2.3-9,3.9c-2.9,5.8,3.8,12.9,12,17
	c4,2,8.2,3.2,11.8,3.4c0.1,0,0.2,0,0.3,0c-1.2,2.7-2,5.6-2.5,8.6c-6.7-4.7-14.6-7.2-22.9-7.2c-22.1,0-40,17.9-40,40
	c0,0.4,0,0.8,0,1.2c0,0.1,0,0.1,0,0.2c0,35.3,22,64,49,64c5.9,0,11.6-1.3,17.1-4c5.4,2.6,11.3,4,17.2,4c27,0,49-28.7,49-64
	c0-0.1,0-0.1,0-0.2C216.1,151,216.1,150.6,216.1,150.2z M140,100c-7.1-3.6-9.7-8.1-9.3-9c0.1-0.1,0.8-0.6,2.8-0.6c0.2,0,0.4,0,0.6,0
	c2.7,0.1,6.1,1.2,9.4,2.8c7.1,3.6,9.7,8.1,9.3,9c-0.1,0.1-0.9,0.8-3.4,0.6C146.6,102.7,143.2,101.6,140,100z M167.1,209.6
	c-5.4,0-10.9-1.4-15.8-4c-0.9-0.5-1.9-0.5-2.8,0c-5,2.7-10.3,4-15.7,4c-23.6,0-42.9-25.9-43-57.8c0-0.1,0-0.2,0-0.3
	c0-0.4,0-0.9,0-1.3c0-18.7,15.3-34,34-34c8.3,0,16.1,2.9,22.3,8.3c0,2.1,0.2,4.1,0.5,6.2c-3.3-0.6-6.3-2.4-8.4-5.1
	c-1-1.3-2.9-1.5-4.2-0.5c-1.3,1-1.5,2.9-0.5,4.2c3.8,4.8,9.5,7.6,15.7,7.6c6.1,0,11.8-2.8,15.7-7.6c1-1.3,0.8-3.2-0.5-4.2
	c-1.3-1-3.2-0.8-4.2,0.5c-1.9,2.4-4.5,4.1-7.4,4.8c-0.3-1.5-0.4-2.9-0.5-4.4c0.1-0.1,0.2-0.3,0.3-0.4c6.4-6.1,14.7-9.5,23.5-9.5
	c18.7,0,34,15.3,34,34c0,0.4,0,0.9,0,1.3c0,0.1,0,0.2,0,0.3C210,183.7,190.8,209.6,167.1,209.6z"/>
</svg>
