<?xml version="1.0" encoding="utf-8"?>
<!-- Generator: Adobe Illustrator 24.2.3, SVG Export Plug-In . SVG Version: 6.00 Build 0)  -->
<svg version="1.1" id="Layer_1" xmlns="http://www.w3.org/2000/svg" xmlns:xlink="http://www.w3.org/1999/xlink" x="0px" y="0px"
	 viewBox="0 0 300 300" style="enable-background:new 0 0 300 300;" xml:space="preserve">
<g>
	<path d="M209.5,101.8c0-4.9,1.9-9.6,5.4-13.1c1.2-1.2,1.2-3.1,0-4.2c-1.2-1.2-3.1-1.2-4.2,0c-7.2,7.2-19,7.2-26.2,0
		c-1.2-1.2-3.1-1.2-4.2,0c-1.2,1.2-1.2,3.1,0,4.2c3.5,3.5,5.4,8.1,5.4,13.1s-1.9,9.6-5.4,13.1c-1.2,1.2-1.2,3.1,0,4.2
		c0.6,0.6,1.4,0.9,2.1,0.9s1.5-0.3,2.1-0.9c7.2-7.2,19-7.2,26.2,0c0.6,0.6,1.4,0.9,2.1,0.9s1.5-0.3,2.1-0.9c1.2-1.2,1.2-3.1,0-4.2
		C211.4,111.4,209.5,106.8,209.5,101.8z M190.7,108.7c0.6-2.2,1-4.5,1-6.9c0-2.4-0.3-4.7-1-6.9c2.3,0.7,4.6,1,6.9,1
		c2.3,0,4.7-0.3,6.9-1c-0.6,2.2-1,4.5-1,6.9c0,2.4,0.3,4.7,1,6.9C200,107.4,195.2,107.4,190.7,108.7z"/>
	<path d="M208.7,128.5c-1.2-1.2-3.1-1.2-4.2,0c-3.9,3.9-10.2,3.9-14.1,0c-1.2-1.2-3.1-1.2-4.2,0c-1.2,1.2-1.2,3.1,0,4.2
		c3.9,3.9,3.9,10.2,0,14.1c-1.2,1.2-1.2,3.1,0,4.2c0.6,0.6,1.4,0.9,2.1,0.9s1.5-0.3,2.1-0.9c3.9-3.9,10.2-3.9,14.1,0
		c0.6,0.6,1.4,0.9,2.1,0.9s1.5-0.3,2.1-0.9c1.2-1.2,1.2-3.1,0-4.2c-1.9-1.9-2.9-4.4-2.9-7.1s1-5.2,2.9-7.1
		C209.9,131.6,209.9,129.7,208.7,128.5z M200,142.5c-1.7-0.3-3.5-0.3-5.2,0c0.3-1.7,0.3-3.5,0-5.2c0.9,0.1,1.7,0.2,2.6,0.2
		c0.9,0,1.7-0.1,2.6-0.2c-0.1,0.9-0.2,1.7-0.2,2.6C199.8,140.7,199.9,141.6,200,142.5z"/>
	<path d="M148.3,113.3c0.6,0.6,1.4,0.9,2.1,0.9c0.8,0,1.5-0.3,2.1-0.9c1.9-1.9,4.4-2.9,7.1-2.9s5.2,1,7.1,2.9
		c0.6,0.6,1.4,0.9,2.1,0.9s1.5-0.3,2.1-0.9c1.2-1.2,1.2-3.1,0-4.2c-3.9-3.9-3.9-10.2,0-14.1c1.2-1.2,1.2-3.1,0-4.2
		c-1.2-1.2-3.1-1.2-4.2,0c-1.9,1.9-4.4,2.9-7.1,2.9s-5.2-1-7.1-2.9c-1.2-1.2-3.1-1.2-4.2,0c-1.2,1.2-1.2,3.1,0,4.2
		c3.9,3.9,3.9,10.2,0,14.1C147.1,110.2,147.1,112.1,148.3,113.3z M156.9,99.4c0.9,0.1,1.7,0.2,2.6,0.2c0.9,0,1.8-0.1,2.6-0.2
		c-0.3,1.7-0.3,3.5,0,5.2c-0.9-0.1-1.7-0.2-2.6-0.2c-0.9,0-1.8,0.1-2.6,0.2C157.2,102.9,157.2,101.1,156.9,99.4z"/>
	<path d="M176.4,124.2c-2.6-2.6-6.1-4.1-9.8-4.1s-7.2,1.4-9.8,4.1c0,0,0,0,0,0c0,0,0,0,0,0l-68.5,68.5c-5.4,5.4-5.4,14.3,0,19.7
		c2.6,2.6,6.1,4.1,9.8,4.1s7.2-1.4,9.8-4.1l68.5-68.5c2.6-2.6,4.1-6.1,4.1-9.8c0-3.7-1.4-7.1-3.9-9.7
		C176.5,124.3,176.5,124.2,176.4,124.2z M172.2,139.6l-68.5,68.5c-1.5,1.5-3.5,2.3-5.6,2.3s-4.1-0.8-5.6-2.3c0,0,0,0,0,0
		c-3.1-3.1-3.1-8.1,0-11.2l60.4-60.4c0.5,2.8,1.8,5.3,3.8,7.4c0.6,0.6,1.4,0.9,2.1,0.9s1.5-0.3,2.1-0.9c1.2-1.2,1.2-3.1,0-4.2
		c-1.5-1.5-2.3-3.5-2.3-5.6c0-2.1,0.8-4.1,2.3-5.6c1.5-1.5,3.6-2.3,5.6-2.3c2,0,4.1,0.8,5.6,2.3c1.5,1.5,2.3,3.5,2.3,5.6
		S173.7,138.1,172.2,139.6z"/>
</g>
</svg>
