<?xml version="1.0" encoding="utf-8"?>
<!-- Generator: Adobe Illustrator 24.2.3, SVG Export Plug-In . SVG Version: 6.00 Build 0)  -->
<svg version="1.1" id="Layer_1" xmlns="http://www.w3.org/2000/svg" xmlns:xlink="http://www.w3.org/1999/xlink" x="0px" y="0px"
	 viewBox="0 0 300 300" style="enable-background:new 0 0 300 300;" xml:space="preserve">
<g>
	<path d="M156.6,86.6c-21.4,0-41.3,10.7-53,28.7c-0.9,1.4-0.5,3.2,0.9,4.2c1.4,0.9,3.2,0.5,4.2-0.9c10.7-16.2,28.6-26,48-26
		c31.6,0,57.4,25.7,57.4,57.4s-25.7,57.4-57.4,57.4c-31.5,0-57.1-25.5-57.4-57l8,8c0.6,0.6,1.4,0.9,2.1,0.9c0.8,0,1.5-0.3,2.1-0.9
		c1.2-1.2,1.2-3.1,0-4.2l-11.2-11.2c-2.3-2.3-6-2.3-8.3,0l-11.1,11.2c-1.2,1.2-1.2,3.1,0,4.2c1.2,1.2,3.1,1.2,4.2,0l8.1-8.1
		c0.2,34.8,28.6,63,63.4,63c35,0,63.4-28.4,63.4-63.4S191.5,86.6,156.6,86.6z"/>
	<path d="M152.1,130.9c-1.7,0-3,1.3-3,3v13.2c0,12.1,9.8,21.9,21.9,21.9c1.7,0,3-1.3,3-3s-1.3-3-3-3c-8.8,0-15.9-7.2-15.9-15.9
		v-13.2C155.1,132.3,153.8,130.9,152.1,130.9z"/>
</g>
</svg>
