<?xml version="1.0" encoding="utf-8"?>
<!-- Generator: Adobe Illustrator 24.2.3, SVG Export Plug-In . SVG Version: 6.00 Build 0)  -->
<svg version="1.1" id="Layer_1" xmlns="http://www.w3.org/2000/svg" xmlns:xlink="http://www.w3.org/1999/xlink" x="0px" y="0px"
	 viewBox="0 0 300 300" style="enable-background:new 0 0 300 300;" xml:space="preserve">
<path d="M190.7,156.2c-0.1,0-0.1-0.1-0.2-0.1L158,143.1l4.2-1.7c0,0,0.1,0,0.1,0c9-4,15.2-12.6,16-22.3c0.1-0.7,0.1-1.3,0.1-2
	c0-0.4,0-3.8,0-4.4c-0.2-4-1.1-7.9-2.8-11.5c-4.6-9.9-14-16.4-24.6-17.1c0,0,0,0,0,0c0,0-0.1,0-0.1,0l-0.8,0l-0.8,0c0,0-0.1,0-0.1,0
	c0,0,0,0,0,0c-10.6,0.7-20,7.2-24.6,17.1c-1.7,3.6-2.6,7.5-2.8,11.5c0,0.5,0,4,0,4.4c0,0.7,0,1.3,0.1,2c0.8,9.7,6.9,18.2,16,22.3
	c0,0,0.1,0,0.1,0l4.2,1.7l-32.5,13.1c-0.1,0-0.1,0.1-0.2,0.1c-8.8,4.3-14.4,13.5-14.4,23.4v12.9c0,3.9,1.7,23.3,35.1,23.3
	c7.1,0,14-1.5,20.1-4.2c6.1,2.7,13,4.2,20.1,4.2c33.4,0,35.1-19.4,35.1-23.3v-12.9C205.2,169.7,199.5,160.5,190.7,156.2z
	 M140.1,135.8c-7-3.2-11.8-9.8-12.4-17.3c0-0.5-0.1-1-0.1-1.5c0-0.5,0-3.7,0-4.1c0.1-3.2,0.9-6.3,2.2-9.2
	c3.7-7.9,11.1-13.1,19.5-13.6l0.6,0l0.6,0c8.4,0.6,15.8,5.8,19.5,13.6c1.3,2.9,2.1,6,2.2,9.2c0,0.4,0,3.6,0,4.1c0,0.5,0,1-0.1,1.5
	c-0.6,7.5-5.4,14.1-12.4,17.3l-9.9,4L140.1,135.8z M132.4,183.9c0-0.1,0-0.2,0-0.3c0-0.3,0-0.6,0-0.8c0-4.2,3.3-7.5,7.3-7.5
	c3.8,0,6.9,2.9,7.3,6.8c0,0,0,0,0,0c0,0.2,0.1,0.3,0.1,0.5c0,0,0,0.1,0,0.1c0,0.1,0.1,0.2,0.2,0.4c0,0.1,0,0.1,0.1,0.2
	c0.4,0.8,1.3,1.4,2.3,1.5c0,0,0,0,0,0c0,0,0,0,0,0c0.1,0,0.2,0,0.3,0c0.1,0,0.2,0,0.3,0c1-0.1,1.9-0.7,2.3-1.6c0,0,0,0,0-0.1
	c0.1-0.2,0.1-0.3,0.2-0.5c0,0,0-0.1,0-0.1c0-0.2,0.1-0.3,0.1-0.5c0,0,0,0,0,0c0.4-3.9,3.5-6.8,7.3-6.8c4,0,7.3,3.4,7.3,7.5
	c0,0.3,0,0.6,0,0.8c0,0.1,0,0.2,0,0.3c0,0,0,0,0,0c0,0.5-1.3,11.5-17.6,21.1C133.7,195.4,132.4,184.3,132.4,183.9
	C132.4,183.9,132.4,183.9,132.4,183.9z M199.2,192.6c0,4.1-2.1,17.3-29.1,17.3c-4.7,0-9.3-0.7-13.5-2.1
	c15.7-10.7,16.9-22.9,16.9-23.4c0-0.1,0-0.2,0-0.2c0-0.5,0.1-1,0.1-1.4c0-7.5-6-13.5-13.3-13.5c-4.1,0-7.8,1.9-10.3,4.9
	c-2.5-3-6.2-4.9-10.3-4.9c-7.3,0-13.3,6.1-13.3,13.5c0,0.5,0,1,0.1,1.4c0,0.1,0,0.2,0,0.2c0,0.6,1.2,12.7,16.9,23.4
	c-4.2,1.4-8.8,2.1-13.4,2.1c-27,0-29.1-13.3-29.1-17.3v-12.9c0-7.6,4.3-14.6,11-18l38.2-15.3l38.2,15.3c6.7,3.3,11,10.4,11,18V192.6
	z"/>
</svg>
