<!-- Generated by IcoMoon.io -->
<svg version="1.1" xmlns="http://www.w3.org/2000/svg" width="32" height="32" viewBox="0 0 32 32">
<title>bag--clock</title>
<path d="M20.373 16.821l-0.149-3.307v-0.021c-0.053-0.491-0.469-0.853-0.96-0.853h-0.949c-0.832 0-1.515-0.683-1.515-1.515 0 0 0 0 0-0.011-0.011-1.184-0.971-2.144-2.155-2.144s-2.144 0.96-2.155 2.144c0 0 0 0 0 0.011 0 0.843-0.683 1.515-1.515 1.515h-0.949c-0.491 0-0.896 0.363-0.96 0.853l-0.395 8.469c-0.032 0.267 0.064 0.533 0.235 0.736 0.181 0.203 0.448 0.32 0.715 0.32h10.027c0.053 0 0.096-0.011 0.139-0.032 0.149 0.021 0.288 0.032 0.437 0.032 1.707 0 3.104-1.387 3.104-3.104 0.011-1.653-1.312-3.019-2.955-3.093zM13.131 11.136c0 0 0 0 0 0 0-0.843 0.683-1.515 1.515-1.515s1.515 0.683 1.515 1.515c0 0 0 0 0 0.011 0 0.587 0.245 1.12 0.629 1.504h-4.277c0.373-0.395 0.608-0.928 0.619-1.515zM14.645 22.379h-5.013c-0.096 0-0.181-0.043-0.235-0.107-0.064-0.064-0.085-0.16-0.075-0.245l0.395-8.469c0.021-0.16 0.16-0.277 0.32-0.277h9.227c0.16 0 0.299 0.117 0.32 0.277l0.149 3.307c-1.472 0.245-2.603 1.525-2.603 3.061 0 1.003 0.48 1.899 1.216 2.464h-3.701zM20.235 22.379c-1.355 0-2.464-1.109-2.464-2.464s1.109-2.464 2.464-2.464 2.464 1.109 2.464 2.464-1.109 2.464-2.464 2.464z"></path>
<path d="M20.768 20.267c-0.299 0-0.533-0.235-0.533-0.533v-0.597c0-0.181-0.139-0.32-0.32-0.32s-0.32 0.139-0.32 0.32v0.597c0 0.651 0.523 1.173 1.173 1.173 0.181 0 0.32-0.139 0.32-0.32s-0.139-0.32-0.32-0.32z"></path>
</svg>
