<?xml version="1.0" encoding="utf-8"?>
<!-- Generator: Adobe Illustrator 24.2.3, SVG Export Plug-In . SVG Version: 6.00 Build 0)  -->
<svg version="1.1" id="Layer_1" xmlns="http://www.w3.org/2000/svg" xmlns:xlink="http://www.w3.org/1999/xlink" x="0px" y="0px"
	 viewBox="0 0 300 300" style="enable-background:new 0 0 300 300;" xml:space="preserve">
<g>
	<path d="M186,84.1h-72c-10.5,0-19,8.5-19,19v72c0,10.5,8.5,19,19,19h33v18.7c0,1.7,1.3,3,3,3c1.7,0,3-1.3,3-3v-18.7h33
		c10.5,0,19-8.5,19-19v-72C205,92.6,196.5,84.1,186,84.1z M199,175.1c0,7.2-5.8,13-13,13h-72c-7.2,0-13-5.8-13-13v-72
		c0-7.2,5.8-13,13-13h72c7.2,0,13,5.8,13,13V175.1z"/>
	<path d="M157.5,112.8L157.5,112.8l-3.8-3.8c-2-2-5.4-2-7.4,0l-12.1,12.1c-8.7,8.7-8.7,23,0,31.7c4.2,4.2,9.9,6.6,15.9,6.6
		c6,0,11.6-2.3,15.9-6.6c8.7-8.7,8.7-23,0-31.7L157.5,112.8z M161.6,148.7c-3.1,3.1-7.2,4.8-11.6,4.8c-4.4,0-8.5-1.7-11.6-4.8
		c-6.4-6.4-6.4-16.8,0-23.2l11.6-11.6l11.6,11.6C168,131.8,168,142.2,161.6,148.7z"/>
	<path d="M150,170.6c-1.7,0-3,1.3-3,3c0,1.7,1.3,3,3,3c1.7,0,3-1.3,3-3C153,172,151.7,170.6,150,170.6z"/>
	<path d="M145.9,140.3c-0.4-0.8-0.6-1.6-0.6-2.5s0.2-1.7,0.6-2.5c0.2-0.3,0.4-0.6,0.6-0.9c1.1-1.3,0.9-3.2-0.3-4.2
		c-1.3-1.1-3.2-0.9-4.2,0.3c-0.5,0.6-1,1.3-1.3,2c-0.9,1.6-1.3,3.5-1.3,5.4c0,1.9,0.5,3.7,1.3,5.4c0.4,0.7,0.8,1.4,1.3,2
		c0.6,0.7,1.4,1.1,2.3,1.1c0.7,0,1.4-0.2,1.9-0.7c1.3-1.1,1.4-3,0.3-4.2C146.3,141,146.1,140.7,145.9,140.3z"/>
</g>
</svg>
