<?xml version="1.0" encoding="utf-8"?>
<!-- Generator: Adobe Illustrator 24.2.3, SVG Export Plug-In . SVG Version: 6.00 Build 0)  -->
<svg version="1.1" id="Layer_1" xmlns="http://www.w3.org/2000/svg" xmlns:xlink="http://www.w3.org/1999/xlink" x="0px" y="0px"
	 viewBox="0 0 300 300" style="enable-background:new 0 0 300 300;" xml:space="preserve">
<g>
	<path d="M188.7,120.8l-22.1-22.1c0,0,0,0,0,0l-10.2-10.2c-1.7-1.7-4-2.6-6.4-2.6c-2.4,0-4.7,0.9-6.4,2.6l-32.3,32.3
		c-21.3,21.3-21.3,56,0,77.3c10.7,10.7,24.7,16,38.7,16c14,0,28-5.3,38.7-16C210,176.8,210,142.1,188.7,120.8z M184.4,193.9
		c-19,19-49.9,19-68.8,0c-19-19-19-49.9,0-68.8l32.3-32.3c0.6-0.6,1.3-0.9,2.1-0.9s1.6,0.3,2.1,0.9l32.3,32.3
		C203.4,144,203.4,174.9,184.4,193.9z"/>
	<path d="M125.4,175.3c-2.6-4.8-4-10.3-4-15.8c0-5.5,1.4-11,4-15.8c1.1-2.1,2.4-4,3.9-5.8c1.1-1.3,0.9-3.2-0.3-4.2
		c-1.3-1.1-3.2-0.9-4.2,0.3c-1.8,2.1-3.4,4.4-4.7,6.8c-3.1,5.7-4.7,12.1-4.7,18.6s1.6,12.9,4.7,18.6c1.3,2.4,2.9,4.7,4.7,6.8
		c0.6,0.7,1.4,1.1,2.3,1.1c0.7,0,1.4-0.2,1.9-0.7c1.3-1.1,1.4-3,0.3-4.2C127.8,179.4,126.5,177.4,125.4,175.3z"/>
</g>
</svg>
