<?xml version="1.0" encoding="utf-8"?>
<!-- Generator: Adobe Illustrator 24.2.3, SVG Export Plug-In . SVG Version: 6.00 Build 0)  -->
<svg version="1.1" id="Layer_1" xmlns="http://www.w3.org/2000/svg" xmlns:xlink="http://www.w3.org/1999/xlink" x="0px" y="0px"
	 viewBox="0 0 300 300" style="enable-background:new 0 0 300 300;" xml:space="preserve">
<g>
	<path d="M201.7,106.1h-9.8c-4.2,0-7.6-3.4-7.6-7.6c0-8.3-6.7-15-15-15h-38.6c-8.3,0-15,6.7-15,15c0,4.2-3.4,7.6-7.6,7.6h-9.8
		c-10.5,0-19,8.5-19,19v72.4c0,10.5,8.5,19,19,19h103.4c10.5,0,19-8.5,19-19v-72.4C220.7,114.6,212.2,106.1,201.7,106.1z
		 M214.7,197.5c0,7.2-5.8,13-13,13H98.3c-7.2,0-13-5.8-13-13v-72.4c0-7.2,5.8-13,13-13h9.8c7.5,0,13.6-6.1,13.6-13.6c0-5,4-9,9-9
		h38.6c5,0,9,4,9,9c0,2.8,0.9,5.4,2.3,7.6H152c-1.7,0-3,1.3-3,3s1.3,3,3,3h49.7c7.2,0,13,5.8,13,13V197.5z"/>
	<path d="M150,130c-8.4,0-16.2,3.3-22.1,9.2c-5.9,5.9-9.2,13.8-9.2,22.1c0,17.3,14,31.3,31.3,31.3c17.3,0,31.3-14,31.3-31.3
		C181.3,144,167.3,130,150,130z M150,186.6c-14,0-25.3-11.4-25.3-25.3c0-6.8,2.6-13.1,7.4-17.9c4.8-4.8,11.1-7.4,17.9-7.4
		c14,0,25.3,11.4,25.3,25.3S164,186.6,150,186.6z"/>
	<path d="M201.7,123c-1.7,0-3,1.3-3,3c0,1.7,1.3,3,3,3c1.7,0,3-1.3,3-3C204.7,124.4,203.3,123,201.7,123z"/>
</g>
</svg>
