<?xml version="1.0" encoding="utf-8"?>
<!-- Generator: Adobe Illustrator 24.2.3, SVG Export Plug-In . SVG Version: 6.00 Build 0)  -->
<svg version="1.1" id="Layer_1" xmlns="http://www.w3.org/2000/svg" xmlns:xlink="http://www.w3.org/1999/xlink" x="0px" y="0px"
	 viewBox="0 0 300 300" style="enable-background:new 0 0 300 300;" xml:space="preserve">
<path d="M234,134.1l-9.6-4.7c-2.4-1.2-4.3-3-5.7-5.2l-11-18.7c-3.5-5.9-9.9-9.5-16.7-9.5h-62.6c-6.5,0-12.6,3.3-16.2,8.7l-12.5,19
	c-1.7,2.6-4.3,4.6-7.4,5.5l-23.5,7c-8.1,2.4-13.8,10.1-13.8,18.6v10.9c0,10.7,8.7,19.4,19.4,19.4h4c2.8,0,5.5-0.7,7.9-2
	c0.5,11.7,10.2,21,22,21c11.8,0,21.5-9.3,22-21c2.4,1.3,5.1,2,7.9,2h28c2.8,0,5.5-0.7,7.9-2c0.5,11.7,10.2,21,22,21
	c11.1,0,20.4-8.3,21.8-19h7.7c10.7,0,19.4-8.7,19.4-19.4v-14.1C244.9,144.1,240.7,137.3,234,134.1z M108.3,198c-8.8,0-16-7.2-16-16
	s7.2-16,16-16c8.8,0,16,7.2,16,16S117.2,198,108.3,198z M196,198c-8.8,0-16-7.2-16-16s7.2-16,16-16c8.8,0,16,7.2,16,16
	S204.9,198,196,198z M238.9,165.6c0,7.4-6,13.4-13.4,13.4h-7.7c-1.5-10.7-10.7-19-21.8-19c-8.7,0-16.3,5.1-19.9,12.5
	c0,0,0,0.1-0.1,0.1c-1.8,3.9-5.7,6.4-9.9,6.4h-28c-4.3,0-8.2-2.5-9.9-6.4c0,0,0,0,0-0.1c-3.6-7.4-11.1-12.5-19.9-12.5
	c-8.8,0-16.3,5.1-19.9,12.5c0,0,0,0,0,0.1c-1.8,3.9-5.7,6.4-9.9,6.4h-4c-7.4,0-13.4-6-13.4-13.4v-10.9c0-5.9,3.9-11.1,9.6-12.8
	l15.1-4.5c18.4-2.4,37.2-2.3,58.9-2.3c3.7,0,7.6,0,11.5,0c1.7,0,3-1.3,3-3s-1.3-3-3-3c-3.9,0-7.8,0-11.5,0
	c-15.2,0-28.9-0.1-42.2,0.7c0.9-0.9,1.6-1.8,2.3-2.9l12.5-19c2.5-3.8,6.7-6,11.2-6h62.6c4.7,0,9.1,2.5,11.5,6.6l11,18.7
	c1.9,3.3,4.8,5.9,8.2,7.6l9.6,4.7c4.6,2.2,7.5,6.9,7.5,12V165.6z"/>
</svg>
