<?xml version="1.0" encoding="utf-8"?>
<!-- Generator: Adobe Illustrator 25.0.0, SVG Export Plug-In . SVG Version: 6.00 Build 0)  -->
<svg version="1.1" id="Layer_1" xmlns="http://www.w3.org/2000/svg" xmlns:xlink="http://www.w3.org/1999/xlink" x="0px" y="0px"
	 viewBox="0 0 300 300" style="enable-background:new 0 0 300 300;" xml:space="preserve">
<g>
	<path d="M200.9,84.6H99.1c-10.5,0-19,8.5-19,19v92.9c0,10.5,8.5,19,19,19h101.9c10.5,0,19-8.5,19-19v-92.9
		C219.9,93.1,211.4,84.6,200.9,84.6z M99.1,90.6h101.9c7.2,0,13,5.8,13,13s-5.8,13-13,13H99.1c-5,0-9.6,2-13,5.2v-18.2
		C86.1,96.4,91.9,90.6,99.1,90.6z M200.9,209.4H99.1c-7.2,0-13-5.8-13-13v-60.9c0-7.2,5.8-13,13-13h101.9c5,0,9.6-2,13-5.2v79.1
		C213.9,203.6,208.1,209.4,200.9,209.4z"/>
	<path d="M175.9,144.5c-2.5,0-4.9,1.5-6.5,3.8c7.4,4.8-1.7,28.8-15,28.8c-1.6,0-3-0.5-3.9-1.4c7.2-6.5,12.4-15.3,12.4-20.6
		c0-2.7-1.3-4.4-4.4-4.4c-8.9,0-18.2,14.5-16.5,25c-5.6,2-8.4-0.5-8.4-5.5c0-10.4,10.9-21.2,10.2-24.4c-11.3,3.5-20.1-4.6-24.1,8.6
		c5.5-3,10.5,1.8,16.8-1.7c-5.4,6.2-10.8,14.9-10.7,22.4c0.1,4.8,2.7,8.3,8.3,8.3c3.2,0,6.6-1.1,9.8-3c1.4,1.7,3.6,3,7,3
		c13.8,0,28.9-19.4,28.9-33.3C180,146.5,178.6,144.6,175.9,144.5z M149.3,171.3c0.1-7.5,5.4-15.4,8.1-15.4c0.8,0,1,0.5,1,1.1
		C158.4,159.5,154.6,166.4,149.3,171.3z"/>
</g>
</svg>
