<?xml version="1.0" encoding="utf-8"?>
<!-- Generator: Adobe Illustrator 24.2.3, SVG Export Plug-In . SVG Version: 6.00 Build 0)  -->
<svg version="1.1" id="Layer_1" xmlns="http://www.w3.org/2000/svg" xmlns:xlink="http://www.w3.org/1999/xlink" x="0px" y="0px"
	 viewBox="0 0 300 300" style="enable-background:new 0 0 300 300;" xml:space="preserve">
<style type="text/css">
</style>
<g>
	<path d="M220.4,117.4c0-18.2-14.8-33-33-33s-33,14.8-33,33c0,2.7,0.3,5.3,0.9,7.8h-45.6c0,0,0,0,0,0s0,0,0,0
		c-3.2,0-6-2-7.1-5l-3-7.3c0,0,0,0,0,0c-2.4-7.3-9.9-11.9-17.5-10.7c-1.6,0.3-2.8,1.8-2.5,3.4s1.8,2.7,3.4,2.5
		c4.8-0.8,9.5,2.1,10.9,6.8c0,0.1,0,0.1,0.1,0.2c0,0,0,0.1,0,0.1l3,7.4c0.1,0.2,0.2,0.4,0.3,0.6l5.4,13.1l13.2,35.8
		c0,0.2,0.1,0.4,0.1,0.7c0.2,0.5,0.4,1,0.7,1.5l4.4,11.9c1.9,5,5.7,8.9,10.4,11.1c-1.5,1.9-2.4,4.3-2.4,7c0,6.2,5,11.2,11.2,11.2
		c6.2,0,11.2-5,11.2-11.2c0-1.9-0.5-3.7-1.3-5.2h22c-0.8,1.6-1.3,3.3-1.3,5.2c0,6.2,5,11.2,11.2,11.2s11.2-5,11.2-11.2
		s-5-11.2-11.2-11.2h-42.6c-5.7,0-10.9-3.6-12.8-8.9l-1.2-3.2c0.8,0.2,1.6,0.2,2.4,0.2l58.3,0.2c5.4,0,10.2-3.4,12-8.5l9.8-29.7
		C215.5,137.1,220.4,127.9,220.4,117.4z M145.6,204.3c0,2.9-2.3,5.2-5.2,5.2s-5.2-2.3-5.2-5.2s2.3-5.2,5.2-5.2
		S145.6,201.5,145.6,204.3z M187.4,204.3c0,2.9-2.3,5.2-5.2,5.2s-5.2-2.3-5.2-5.2s2.3-5.2,5.2-5.2S187.4,201.5,187.4,204.3z
		 M187.4,90.4c14.9,0,27,12.1,27,27c0,8.4-3.9,16-9.9,20.9c-0.5,0.2-1,0.6-1.3,1c-4.4,3.2-9.9,5.1-15.7,5.1
		c-11.2,0-20.8-6.8-24.9-16.6c-0.1-0.5-0.2-0.9-0.5-1.3c-1-2.8-1.6-5.9-1.6-9.1C160.4,102.6,172.5,90.4,187.4,90.4z M192.6,171
		c-0.9,2.7-3.5,4.5-6.3,4.5l-58.3-0.2c-2.4,0-4.6-1.3-5.8-3.4l-13.9-37.6c0,0,0-0.1,0-0.1L107,131c0.9,0.2,1.8,0.3,2.7,0.3
		c0,0,0,0,0,0s0,0,0,0h47.7c5.2,11.3,16.7,19.2,30,19.2c4.5,0,8.8-0.9,12.7-2.6L192.6,171z"/>
	<path d="M176.5,120.5h8v8c0,1.7,1.3,3,3,3s3-1.3,3-3v-8h8c1.7,0,3-1.3,3-3s-1.3-3-3-3h-8v-8c0-1.7-1.3-3-3-3
		s-3,1.3-3,3v8h-8c-1.7,0-3,1.3-3,3S174.9,120.5,176.5,120.5z"/>
</g>
</svg>
