<?xml version="1.0" encoding="utf-8"?>
<!-- Generator: Adobe Illustrator 24.2.3, SVG Export Plug-In . SVG Version: 6.00 Build 0)  -->
<svg version="1.1" id="Layer_1" xmlns="http://www.w3.org/2000/svg" xmlns:xlink="http://www.w3.org/1999/xlink" x="0px" y="0px"
	 viewBox="0 0 300 300" style="enable-background:new 0 0 300 300;" xml:space="preserve">
<g>
	<path d="M200.3,84.5H99.7c-10.9,0-19.7,8.9-19.7,19.7v91.6c0,10.9,8.9,19.7,19.7,19.7h104.7c8.6,0,15.6-7,15.6-15.6v-41.7v-54.1
		C220,93.3,211.2,84.5,200.3,84.5z M86,104.2c0-7.6,6.2-13.7,13.7-13.7h100.5c7.6,0,13.7,6.2,13.7,13.7v54.1v2.5
		c-10.3,9.8-22,14.8-33.9,14.5c-8.6-0.2-17-3.1-24.8-8.7c-2.8-2-5.5-4.3-8.1-6.9c-0.1-0.2-0.3-0.3-0.4-0.5
		c-7.4-6.6-16.8-10.2-26.7-10.2c-14.4,0-27,7.6-34.1,19L86,104.2L86,104.2z M204.5,209.5H99.7c-7.6,0-13.7-6.2-13.7-13.7v-6.6
		c0-18.8,15.3-34.1,34.1-34.1c8.3,0,16.2,3,22.4,8.4c0,0.1,0.1,0.1,0.1,0.2c2.9,3,6,5.6,9.2,7.9c8.9,6.3,18.3,9.5,28.2,9.8
		c0.4,0,0.7,0,1.1,0c11.5,0,22.8-4.3,32.9-12.6V200C214,205.2,209.7,209.5,204.5,209.5z"/>
	<path d="M176.9,142.6c4.5,0,8.8-1.8,12-5c6.6-6.6,6.6-17.4,0-24s-17.4-6.6-24,0s-6.6,17.4,0,24
		C168.1,140.9,172.4,142.6,176.9,142.6z M169.1,117.9c2.1-2.1,4.9-3.2,7.8-3.2c2.8,0,5.6,1.1,7.8,3.2c4.3,4.3,4.3,11.2,0,15.5
		c-2.1,2.1-4.8,3.2-7.8,3.2c-2.9,0-5.7-1.1-7.8-3.2C164.8,129.2,164.8,122.2,169.1,117.9z"/>
</g>
</svg>
