<?xml version="1.0" encoding="utf-8"?>
<!-- Generator: Adobe Illustrator 24.2.3, SVG Export Plug-In . SVG Version: 6.00 Build 0)  -->
<svg version="1.1" id="Layer_1" xmlns="http://www.w3.org/2000/svg" xmlns:xlink="http://www.w3.org/1999/xlink" x="0px" y="0px"
	 viewBox="0 0 300 300" style="enable-background:new 0 0 300 300;" xml:space="preserve">
<g>
	<path d="M82.9,174.6c1.7,0,3-1.3,3-3v-22c0-1.7-1.3-3-3-3s-3,1.3-3,3v22C79.9,173.2,81.3,174.6,82.9,174.6z"/>
	<path d="M82.9,136.6c1.7,0,3-1.3,3-3v-22c0-1.7-1.3-3-3-3s-3,1.3-3,3v22C79.9,135.2,81.3,136.6,82.9,136.6z"/>
	<path d="M107,87.7c0-1.7-1.3-3-3-3h-5c-6.9,0-13.2,3.7-16.6,9.7c-0.8,1.4-0.3,3.3,1.2,4.1c0.5,0.3,1,0.4,1.5,0.4
		c1.1,0,2.1-0.6,2.6-1.5c2.3-4.1,6.7-6.7,11.4-6.7h5C105.6,90.7,107,89.4,107,87.7z"/>
	<path d="M196,90.7h5.1c4.7,0,9,2.5,11.3,6.6c0.6,1,1.6,1.5,2.6,1.5c0.5,0,1-0.1,1.5-0.4c1.4-0.8,1.9-2.7,1.1-4.1
		c-3.4-5.9-9.7-9.6-16.5-9.6H196c-1.7,0-3,1.3-3,3S194.3,90.7,196,90.7z"/>
	<path d="M120,90.7h22c1.7,0,3-1.3,3-3s-1.3-3-3-3h-22c-1.7,0-3,1.3-3,3S118.3,90.7,120,90.7z"/>
	<path d="M158,90.7h22c1.7,0,3-1.3,3-3s-1.3-3-3-3h-22c-1.7,0-3,1.3-3,3S156.3,90.7,158,90.7z"/>
	<path d="M85.9,196.3v-8.7c0-1.7-1.3-3-3-3s-3,1.3-3,3v8.7c0,5.3,2.2,10.4,6.2,14c0.6,0.5,1.3,0.8,2,0.8c0.8,0,1.6-0.3,2.2-1
		c1.1-1.2,1-3.1-0.2-4.2C87.5,203.4,85.9,199.9,85.9,196.3z"/>
	<path d="M217.1,184.5c-1.7,0-3,1.3-3,3v8.8c0,3.7-1.5,7-4.2,9.5c-1.2,1.1-1.3,3-0.2,4.2c0.6,0.6,1.4,1,2.2,1c0.7,0,1.5-0.3,2-0.8
		c3.9-3.6,6.1-8.7,6.1-13.9v-8.8C220.1,185.8,218.7,184.5,217.1,184.5z"/>
	<path d="M201.1,209.3h-22c-1.7,0-3,1.3-3,3s1.3,3,3,3h22c1.7,0,3-1.3,3-3S202.7,209.3,201.1,209.3z"/>
	<path d="M217.1,108.5c-1.7,0-3,1.3-3,3v22c0,1.7,1.3,3,3,3s3-1.3,3-3v-22C220.1,109.8,218.7,108.5,217.1,108.5z"/>
	<path d="M217.1,146.5c-1.7,0-3,1.3-3,3v22c0,1.7,1.3,3,3,3s3-1.3,3-3v-22C220.1,147.8,218.7,146.5,217.1,146.5z"/>
	<path d="M163.1,209.3h-22c-1.7,0-3,1.3-3,3s1.3,3,3,3h22c1.7,0,3-1.3,3-3S164.7,209.3,163.1,209.3z"/>
	<path d="M125.1,209.3h-22c-1.7,0-3,1.3-3,3s1.3,3,3,3h22c1.7,0,3-1.3,3-3S126.7,209.3,125.1,209.3z"/>
	<path d="M182.5,169.9c0.5,0.3,1,0.4,1.5,0.4c1,0,2.1-0.5,2.6-1.5c0.8-1.4,0.3-3.3-1.1-4.1l-27.1-15.4l26.7-16.6
		c1.4-0.9,1.8-2.7,1-4.1c-0.9-1.4-2.7-1.8-4.1-1L152.4,146l-17.5-9.9c0,0,0,0,0,0c-2.7-1.5-6-1.4-8.5,0.2c-0.2,0.1-0.3,0.2-0.5,0.3
		c-1.4,1-3.2,1.1-4.7,0.2c-2.1-1.2-2.8-3.8-1.6-5.9c1.2-2.1,3.8-2.8,5.9-1.6c0.6,0.4,1.1,0.8,1.5,1.4c0.9,1.4,2.8,1.8,4.1,0.9
		c1.4-0.9,1.8-2.8,0.9-4.1c-0.9-1.4-2.1-2.6-3.6-3.4c-5-2.8-11.3-1.1-14.1,3.9c-2.8,5-1.1,11.3,3.9,14.1c1.6,0.9,3.3,1.3,5.1,1.3
		c2.1,0,4.2-0.6,6-1.9l0,0c0.8-0.5,1.8-0.6,2.6-0.1l0,0l14.6,8.3l-14.1,8.7c-2.6,1.6-4.1,4.6-4,7.6c0,0.2,0,0.4,0,0.6
		c0.2,1.7-0.6,3.3-2,4.2c-2,1.3-4.7,0.6-6-1.4c-1.3-2-0.6-4.7,1.4-6c0.6-0.4,1.3-0.6,2-0.6c1.7-0.1,2.9-1.5,2.8-3.2
		c-0.1-1.7-1.6-2.9-3.2-2.8c-1.7,0.1-3.3,0.6-4.7,1.5c-4.9,3-6.3,9.4-3.3,14.3c2,3.2,5.3,4.9,8.8,4.9c1.9,0,3.7-0.5,5.4-1.6
		c3.4-2.1,5.3-6,4.8-10l0,0c-0.1-0.9,0.3-1.9,1.1-2.4l16.9-10.5L182.5,169.9z"/>
</g>
</svg>
