<?xml version="1.0" encoding="utf-8"?>
<!-- Generator: Adobe Illustrator 24.2.3, SVG Export Plug-In . SVG Version: 6.00 Build 0)  -->
<svg version="1.1" id="Layer_1" xmlns="http://www.w3.org/2000/svg" xmlns:xlink="http://www.w3.org/1999/xlink" x="0px" y="0px"
	 viewBox="0 0 300 300" style="enable-background:new 0 0 300 300;" xml:space="preserve">
<g>
	<path d="M218.4,142.5c-2.6-3.4-6.6-5.4-10.9-5.4h-12c2.9-4.6,5-9.6,6.5-14.8c1.2-4.2,0.3-8.7-2.4-12.2c-2.7-3.6-6.8-5.6-11.3-5.6
		H94.4c-4.5,0-8.6,2-11.3,5.6c-2.7,3.5-3.6,8-2.4,12.2c3.6,13,11.8,24.4,23.2,32.5c7,24.9,30.9,42.2,58.3,42.2
		c27.5,0,51.5-17.5,58.4-42.6C221.9,150.2,221,145.9,218.4,142.5z M86.5,120.7c-0.7-2.4-0.2-5,1.4-7c1.6-2.1,3.9-3.2,6.5-3.2h93.8
		c2.6,0,4.9,1.2,6.5,3.2c1.5,2,2,4.6,1.4,7c-1.6,5.9-4.3,11.4-7.9,16.4h-71.1c-4.3,0-8.3,2-10.9,5.4c-1.1,1.4-1.8,3-2.3,4.6
		C95.4,140.1,89.4,130.9,86.5,120.7z M215,152.7c-6.2,22.5-27.8,38.1-52.6,38.1c-24.7,0-46.2-15.5-52.5-37.7c0-0.5-0.1-1-0.3-1.5
		c-0.2-2,0.3-3.9,1.5-5.6c1.5-1.9,3.7-3.1,6.2-3.1h90.3c2.4,0,4.7,1.1,6.2,3.1C215.1,148,215.6,150.4,215,152.7z"/>
	<path d="M180.5,166.5c-5.5,3-11.8,4.6-18.2,4.6c-5.8,0-11.5-1.3-16.6-3.8c-1.5-0.7-3.3-0.1-4,1.4c-0.7,1.5-0.1,3.3,1.4,4
		c5.9,2.9,12.6,4.4,19.3,4.4c7.4,0,14.7-1.9,21.1-5.4c1.5-0.8,2-2.6,1.2-4.1C183.7,166.2,181.9,165.7,180.5,166.5z"/>
</g>
</svg>
