<?xml version="1.0" encoding="utf-8"?>
<!-- Generator: Adobe Illustrator 24.2.3, SVG Export Plug-In . SVG Version: 6.00 Build 0)  -->
<svg version="1.1" id="Layer_1" xmlns="http://www.w3.org/2000/svg" xmlns:xlink="http://www.w3.org/1999/xlink" x="0px" y="0px"
	 viewBox="0 0 300 300" style="enable-background:new 0 0 300 300;" xml:space="preserve">
<g>
	<path d="M208.5,88.6c-6.4-2.6-15.3-4.1-24.9-4.1c0,0-0.1,0-0.1,0c-17.8,0-28.6,4.3-33.5,9.8c-2-2.3-4.9-4.2-8.7-5.8
		c-6.4-2.6-15.3-4.1-24.9-4.1c0,0,0,0-0.1,0c-9.6,0-18.4,1.4-24.8,4c-7.6,3.1-11.7,7.8-11.7,13.2l-0.1,103.4c0,3.1,1.4,5.9,3.9,7.7
		c2.5,1.8,5.7,2.3,8.5,1.3c5.5-1.9,14.2-4.1,24.1-4.1c0,0,0,0,0.1,0c9.9,0,18.6,2.2,24.1,4.1c0,0,0,0,0,0c2.2,0.9,5.7,1.5,9.5,1.5
		c3.9,0,7.4-0.6,9.7-1.5c0,0,0,0,0,0c5.5-1.8,14.1-4,23.8-4c0,0,0,0,0,0c9.9,0,18.6,2.2,24.1,4.1c1,0.3,2,0.5,3,0.5
		c2,0,3.9-0.6,5.5-1.8c2.5-1.8,3.9-4.6,3.9-7.7l0.1-103v-0.4C220.2,96.3,216,91.6,208.5,88.6z M116.3,204c-10.7,0-20,2.4-26,4.4
		c-1.1,0.4-2.2,0.2-3.1-0.5c-0.9-0.7-1.4-1.7-1.4-2.8l0.1-103l0-0.4c0-3.8,5-6.4,8-7.7c5.7-2.3,13.7-3.6,22.5-3.6c0,0,0,0,0.1,0
		c8.8,0,16.9,1.3,22.6,3.6c3,1.2,8,3.8,8,7.7c0,0,0,0,0,0L147,205.2c0,1.1-0.5,2.1-1.4,2.8c-0.9,0.7-2.1,0.8-3.1,0.5
		C136.4,206.4,127.1,204,116.3,204C116.4,204,116.4,204,116.3,204z M214.2,101.8l-0.1,103.4c0,1.1-0.5,2.1-1.4,2.8
		c-0.9,0.7-2.1,0.8-3.1,0.5c-6-2-15.3-4.4-26-4.4c0,0,0,0,0,0c-10.7,0-20,2.4-26,4.4c-1.1,0.4-2.2,0.2-3.1-0.5
		c-0.9-0.7-1.4-1.7-1.4-2.8l0.1-103v-0.4c0-6.3,13.4-11.3,30.5-11.3c0,0,0,0,0.1,0c8.8,0,16.9,1.3,22.6,3.6
		C209.2,95.3,214.2,97.9,214.2,101.8C214.2,101.8,214.2,101.8,214.2,101.8z"/>
	<path d="M168.1,134.8c0.3,0,0.6-0.1,1-0.2c3.8-1.3,9.1-2,14.6-2c5.5,0,10.8,0.7,14.6,2c1.6,0.5,3.3-0.3,3.8-1.9
		c0.5-1.6-0.3-3.3-1.9-3.8c-4.5-1.5-10.3-2.3-16.5-2.3c-6.2,0-12.1,0.8-16.5,2.3c-1.6,0.5-2.4,2.2-1.9,3.8
		C165.6,134,166.8,134.8,168.1,134.8z"/>
	<path d="M168.1,153.8c0.3,0,0.6-0.1,1-0.2c3.8-1.3,9.1-2,14.6-2c5.5,0,10.8,0.7,14.6,2c1.6,0.5,3.3-0.3,3.8-1.9
		c0.5-1.6-0.3-3.3-1.9-3.8c-4.5-1.5-10.3-2.3-16.5-2.3c-6.2,0-12.1,0.8-16.5,2.3c-1.6,0.5-2.4,2.2-1.9,3.8
		C165.6,153,166.8,153.8,168.1,153.8z"/>
	<path d="M200.1,166.9c-4.4-1.5-10.3-2.3-16.5-2.3c-6.2,0-12.1,0.8-16.5,2.3c-1.6,0.5-2.4,2.2-1.9,3.8c0.4,1.3,1.6,2,2.8,2
		c0.3,0,0.6-0.1,1-0.2c3.8-1.3,9.1-2,14.6-2c5.5,0,10.8,0.7,14.6,2c1.6,0.5,3.3-0.3,3.8-1.9S201.7,167.4,200.1,166.9z"/>
	<path d="M133.1,129.7c-4.5-2.2-10.4-3.4-16.7-3.4c-6.3,0-12.2,1.2-16.7,3.4c-1,0.5-1.7,1.6-1.7,2.7v19.7c0,1,0.5,2,1.4,2.5
		c0.5,0.3,1,0.5,1.6,0.5c0.4,0,0.9-0.1,1.3-0.3c3.7-1.8,8.8-2.8,14.1-2.8c5.3,0,10.4,1,14.1,2.8c0.9,0.4,2,0.4,2.9-0.2
		c0.9-0.5,1.4-1.5,1.4-2.5v-19.7C134.8,131.3,134.1,130.2,133.1,129.7z M128.8,147.8c-3.7-1.1-8-1.7-12.4-1.7
		c-4.4,0-8.7,0.6-12.4,1.7v-13.4c3.5-1.3,7.9-2.1,12.4-2.1c4.5,0,8.9,0.7,12.4,2V147.8z"/>
	<path d="M132.8,166.9c-4.4-1.5-10.2-2.3-16.4-2.3c-6.2,0-12,0.8-16.4,2.3c-1.6,0.5-2.4,2.2-1.9,3.8c0.4,1.2,1.6,2,2.8,2
		c0.3,0,0.6-0.1,1-0.2c3.8-1.3,9-2,14.5-2c5.4,0,10.7,0.7,14.4,2c1.6,0.5,3.3-0.3,3.8-1.9C135.2,169.1,134.3,167.4,132.8,166.9z"/>
</g>
</svg>
