<?xml version="1.0" encoding="utf-8"?>
<!-- Generator: Adobe Illustrator 24.2.3, SVG Export Plug-In . SVG Version: 6.00 Build 0)  -->
<svg version="1.1" id="Layer_1" xmlns="http://www.w3.org/2000/svg" xmlns:xlink="http://www.w3.org/1999/xlink" x="0px" y="0px"
	 viewBox="0 0 300 300" style="enable-background:new 0 0 300 300;" xml:space="preserve">
<g>
	<path d="M104.9,87.7c0-1.7-1.3-3-3-3h-2.9c-7.7,0-14.6,4.6-17.6,11.7c-0.6,1.5,0.1,3.3,1.6,3.9c0.4,0.2,0.8,0.2,1.1,0.2
		c1.2,0,2.3-0.7,2.8-1.9c2-4.9,6.7-8,12-8h2.9C103.5,90.7,104.9,89.4,104.9,87.7z"/>
	<path d="M90.7,206.4c-3.1-2.5-4.8-6.2-4.8-10.1v-7.6c0-1.7-1.3-3-3-3s-3,1.3-3,3v7.6c0,5.7,2.6,11.1,7,14.7
		c0.6,0.5,1.2,0.7,1.9,0.7c0.9,0,1.7-0.4,2.3-1.1C92.2,209.3,92,207.4,90.7,206.4z"/>
	<path d="M155.4,90.7h21.8c1.7,0,3-1.3,3-3s-1.3-3-3-3h-21.8c-1.7,0-3,1.3-3,3S153.8,90.7,155.4,90.7z"/>
	<path d="M117.7,90.7h21.8c1.7,0,3-1.3,3-3s-1.3-3-3-3h-21.8c-1.7,0-3,1.3-3,3S116.1,90.7,117.7,90.7z"/>
	<path d="M82.9,175.8c1.7,0,3-1.3,3-3V151c0-1.7-1.3-3-3-3s-3,1.3-3,3v21.8C79.9,174.5,81.3,175.8,82.9,175.8z"/>
	<path d="M82.9,138.1c1.7,0,3-1.3,3-3v-21.8c0-1.7-1.3-3-3-3s-3,1.3-3,3v21.8C79.9,136.8,81.3,138.1,82.9,138.1z"/>
	<path d="M125.7,209.3h-21.8c-1.7,0-3,1.3-3,3s1.3,3,3,3h21.8c1.7,0,3-1.3,3-3S127.4,209.3,125.7,209.3z"/>
	<path d="M217.1,143c-1.7,0-3,1.3-3,3v21.8c0,1.7,1.3,3,3,3s3-1.3,3-3V146C220.1,144.3,218.7,143,217.1,143z"/>
	<path d="M217.1,105.3c-1.7,0-3,1.3-3,3v21.8c0,1.7,1.3,3,3,3s3-1.3,3-3v-21.8C220.1,106.6,218.7,105.3,217.1,105.3z"/>
	<path d="M217.1,180.7c-1.7,0-3,1.3-3,3v12.6c0,2.5-0.7,5-2.1,7.1c-0.9,1.4-0.5,3.2,0.9,4.2c0.5,0.3,1.1,0.5,1.6,0.5
		c1,0,1.9-0.5,2.5-1.4c2-3.1,3.1-6.7,3.1-10.3v-12.6C220.1,182,218.7,180.7,217.1,180.7z"/>
	<path d="M201.1,209.3C201.1,209.3,201.1,209.3,201.1,209.3l-21.9,0c-1.7,0-3,1.3-3,3s1.3,3,3,3l21.9,0l0-3v3c1.7,0,3-1.3,3-3
		S202.8,209.3,201.1,209.3z"/>
	<path d="M163.4,209.3h-21.8c-1.7,0-3,1.3-3,3s1.3,3,3,3h21.8c1.7,0,3-1.3,3-3S165,209.3,163.4,209.3z"/>
	<path d="M215.2,95.6c1.3-1.1,1.4-3,0.3-4.2c-3.6-4.3-8.9-6.7-14.5-6.7h-8c-1.7,0-3,1.3-3,3s1.3,3,3,3h8c3.8,0,7.4,1.7,9.9,4.6
		c0.6,0.7,1.4,1.1,2.3,1.1C213.9,96.4,214.6,96.1,215.2,95.6z"/>
	<path d="M153,145v-18.4c3.7,1.3,6.3,4.7,6.3,8.8c0,1.7,1.3,3,3,3s3-1.3,3-3c0-7.4-5.3-13.6-12.3-15v-3.3c0-1.7-1.3-3-3-3
		c-1.7,0-3,1.3-3,3v3.3c-7,1.4-12.3,7.6-12.3,15c0,7.4,5.3,13.6,12.3,15v23.1c-4.9-1.3-8.6-5.8-8.6-11.2c0-1.7-1.3-3-3-3s-3,1.3-3,3
		c0,8.7,6.3,15.9,14.6,17.3v3.3c0,1.7,1.3,3,3,3c1.7,0,3-1.3,3-3v-3.3c8.3-1.4,14.6-8.6,14.6-17.3S161.3,146.5,153,145z
		 M140.7,135.4c0-4.1,2.7-7.6,6.3-8.8v17.7C143.3,143,140.7,139.5,140.7,135.4z M153,173.5v-22.3c4.9,1.3,8.6,5.8,8.6,11.2
		C161.6,167.7,157.9,172.2,153,173.5z"/>
</g>
</svg>
