<?xml version="1.0" encoding="utf-8"?>
<!-- Generator: Adobe Illustrator 24.2.3, SVG Export Plug-In . SVG Version: 6.00 Build 0)  -->
<svg version="1.1" id="Layer_1" xmlns="http://www.w3.org/2000/svg" xmlns:xlink="http://www.w3.org/1999/xlink" x="0px" y="0px"
	 viewBox="0 0 300 300" style="enable-background:new 0 0 300 300;" xml:space="preserve">
<path d="M217.2,195.5h-12.4v-78.7c0-4-1.3-7.7-3.5-10.7l17.4-16.4c1.2-1.1,1.3-3,0.1-4.2c-1.1-1.2-3-1.3-4.2-0.1l-17.6,16.5
	c-3-2.2-6.7-3.4-10.6-3.4h-85.4V87.8c0-1.7-1.3-3-3-3s-3,1.3-3,3v10.7H82.8c-1.7,0-3,1.3-3,3s1.3,3,3,3h12.3v78.7
	c0,5.2,2.1,9.8,5.6,13.1c0,0,0,0,0,0c0.1,0.1,0.1,0.1,0.2,0.2c3.3,3.1,7.7,5,12.5,5h85.4v10.9c0,1.7,1.3,3,3,3s3-1.3,3-3v-10.9h12.4
	c1.7,0,3-1.3,3-3S218.9,195.5,217.2,195.5z M186.4,104.5c2.2,0,4.3,0.6,6.1,1.7L103.1,190c-1.3-1.9-2-4.3-2-6.8v-78.7H186.4z
	 M113.4,195.5c-2.1,0-4.1-0.5-5.9-1.5l89.4-83.8c1.2,1.9,1.9,4.1,1.9,6.5v78.7H113.4z"/>
</svg>
