<?xml version="1.0" encoding="utf-8"?>
<!-- Generator: Adobe Illustrator 24.2.3, SVG Export Plug-In . SVG Version: 6.00 Build 0)  -->
<svg version="1.1" id="Layer_1" xmlns="http://www.w3.org/2000/svg" xmlns:xlink="http://www.w3.org/1999/xlink" x="0px" y="0px"
	 viewBox="0 0 300 300" style="enable-background:new 0 0 300 300;" xml:space="preserve">
<g>
	<path d="M131.1,145.4c0.3,0.3,0.5,0.8,0.4,1.2l-1.7,9.9c-0.5,2.8,0.6,5.5,2.9,7.2c2.3,1.7,5.2,1.9,7.7,0.6l8.9-4.7
		c0.4-0.2,0.9-0.2,1.2,0l8.9,4.7c1.1,0.6,2.3,0.9,3.4,0.9c1.5,0,3-0.5,4.3-1.4c2.3-1.7,3.4-4.4,2.9-7.2l-1.7-9.9
		c-0.1-0.4,0.1-0.9,0.4-1.2l7.2-7c2-2,2.7-4.8,1.9-7.5s-3.1-4.6-5.9-5l-10-1.4c-0.4-0.1-0.8-0.3-1-0.7l-4.5-9
		c-1.2-2.5-3.8-4.1-6.6-4.1c-2.8,0-5.3,1.6-6.6,4.1l-4.5,9c-0.2,0.4-0.6,0.7-1,0.7l-10,1.4c-2.8,0.4-5.1,2.3-5.9,5
		c-0.9,2.7-0.2,5.6,1.9,7.5L131.1,145.4z M127.7,132.6c0.1-0.3,0.4-0.8,1.1-0.9l10-1.4c2.4-0.3,4.5-1.8,5.5-4l4.5-9
		c0.3-0.7,0.9-0.7,1.2-0.7s0.9,0.1,1.2,0.7l4.5,9c1.1,2.2,3.1,3.7,5.5,4l10,1.4c0.7,0.1,1,0.6,1.1,0.9c0.1,0.3,0.2,0.9-0.3,1.4
		l-7.2,7c-1.7,1.7-2.5,4.1-2.1,6.5l1.7,9.9c0.1,0.7-0.3,1.1-0.5,1.3c-0.3,0.2-0.8,0.4-1.4,0.1l-8.9-4.7c-1.1-0.6-2.2-0.8-3.4-0.8
		c-1.2,0-2.3,0.3-3.4,0.8l-8.9,4.7c-0.6,0.3-1.2,0.1-1.4-0.1c-0.3-0.2-0.7-0.6-0.5-1.3l1.7-9.9c0.4-2.4-0.4-4.8-2.1-6.5l-7.2-7
		C127.6,133.5,127.6,132.9,127.7,132.6z"/>
	<path d="M203.5,137.8c0-29.5-24-53.5-53.5-53.5s-53.5,24-53.5,53.5c0,16.6,7.6,31.4,19.5,41.3c0.2,0.2,0.4,0.4,0.7,0.6
		c0.8,0.5,1.2,1.3,1.2,2.2v24.4c0,3.1,1.5,6.1,3.9,7.8c2.3,1.7,5.1,2.1,7.8,1.2l16.9-5.6c2.3-0.8,4.8-0.8,7.1,0l16.9,5.6
		c0.9,0.3,1.8,0.4,2.7,0.4c1.8,0,3.5-0.6,5.1-1.7c2.5-1.8,3.9-4.7,3.9-7.8v-24.4c0-0.8,0.3-1.5,0.9-2c0.1-0.1,0.2-0.2,0.2-0.2
		C195.6,169.8,203.5,154.7,203.5,137.8z M102.5,137.8c0-26.2,21.3-47.5,47.5-47.5s47.5,21.3,47.5,47.5c0,26.2-21.3,47.5-47.5,47.5
		S102.5,164,102.5,137.8z M174.7,209.2c-0.4,0.3-1.3,0.8-2.4,0.4l-16.9-5.6c-3.5-1.2-7.4-1.2-10.9,0l-16.9,5.6
		c-1.1,0.4-2-0.1-2.4-0.4c-0.9-0.6-1.4-1.8-1.4-3v-21.8c7.7,4.4,16.7,6.9,26.2,6.9c9.5,0,18.4-2.5,26.2-6.9v21.8
		C176.2,207.5,175.6,208.6,174.7,209.2z"/>
</g>
</svg>
