<?xml version="1.0" encoding="utf-8"?>
<!-- Generator: Adobe Illustrator 24.2.3, SVG Export Plug-In . SVG Version: 6.00 Build 0)  -->
<svg version="1.1" id="Layer_1" xmlns="http://www.w3.org/2000/svg" xmlns:xlink="http://www.w3.org/1999/xlink" x="0px" y="0px"
	 viewBox="0 0 300 300" style="enable-background:new 0 0 300 300;" xml:space="preserve">
<g>
	<path d="M217.4,182.6c-1.7,0-3,1.3-3,3v11.1c0,7.2-5.8,13-13,13H98.6c-7.2,0-13-5.8-13-13v-11.1c0-1.7-1.3-3-3-3s-3,1.3-3,3v11.1
		c0,10.5,8.5,19,19,19h102.9c10.5,0,19-8.5,19-19v-11.1C220.4,183.9,219.1,182.6,217.4,182.6z"/>
	<path d="M144.5,180.3c1.5,1.5,3.4,2.2,5.4,2.3c0,0,0,0,0.1,0c0,0,0,0,0.1,0c2,0,3.9-0.8,5.4-2.3l18.5-18.5c1.2-1.2,1.2-3.1,0-4.2
		c-1.2-1.2-3.1-1.2-4.2,0L153,174.3v-87c0-1.7-1.3-3-3-3c-1.7,0-3,1.3-3,3v87l-16.7-16.7c-1.2-1.2-3.1-1.2-4.2,0
		c-1.2,1.2-1.2,3.1,0,4.2L144.5,180.3z"/>
</g>
</svg>
