<?xml version="1.0" encoding="utf-8"?>
<!-- Generator: Adobe Illustrator 24.2.3, SVG Export Plug-In . SVG Version: 6.00 Build 0)  -->
<svg version="1.1" id="Layer_1" xmlns="http://www.w3.org/2000/svg" xmlns:xlink="http://www.w3.org/1999/xlink" x="0px" y="0px"
	 viewBox="0 0 300 300" style="enable-background:new 0 0 300 300;" xml:space="preserve">
<g>
	<path d="M170.5,136.2c0-4-1.5-7.7-4.4-10.5c-5.8-5.8-15.2-5.8-21,0l-23.6,23.6c-2.8,2.8-4.4,6.5-4.4,10.5s1.5,7.7,4.4,10.5
		c2.9,2.9,6.7,4.3,10.5,4.3s7.6-1.4,10.5-4.3l11.8-11.8l0,0l0,0l11.8-11.8v0C169,143.9,170.5,140.1,170.5,136.2z M161.9,142.4
		C161.9,142.4,161.9,142.4,161.9,142.4l-9.7,9.7l-12.5-12.5l9.7-9.7c1.7-1.7,4-2.6,6.3-2.6s4.5,0.9,6.3,2.6c1.7,1.7,2.6,3.9,2.6,6.3
		C164.5,138.5,163.6,140.8,161.9,142.4z"/>
	<path d="M190.3,156.7c-16.2,0-29.4,13.2-29.4,29.4c0,7.1,2.6,13.9,7.1,19.2c-1.6,0.7-3.3,1.2-5,1.8c-5.5,1.7-11.3,2.5-17.1,2.5
		c-32.8,0-59.6-26.7-59.6-59.6s26.7-59.6,59.6-59.6c29.7,0,55.1,22.2,59,51.6c0.2,1.6,1.7,2.8,3.4,2.6c1.6-0.2,2.8-1.7,2.6-3.4
		c-4.3-32.4-32.3-56.8-65-56.8c-36.2,0-65.6,29.4-65.6,65.6s29.4,65.6,65.6,65.6c6.4,0,12.8-0.9,18.8-2.7c2.7-0.8,5.5-1.8,8.1-3
		c2.1,1.6,4.4,2.9,6.9,3.8c3.4,1.3,6.9,2,10.6,2c16.2,0,29.4-13.2,29.4-29.4C219.7,169.9,206.5,156.7,190.3,156.7z M190.3,209.6
		c-2.9,0-5.7-0.5-8.4-1.6c-2.6-1-5-2.4-7.1-4.3c-5.1-4.5-7.9-10.9-7.9-17.6c0-12.9,10.5-23.4,23.4-23.4c12.9,0,23.4,10.5,23.4,23.4
		C213.7,199.1,203.2,209.6,190.3,209.6z"/>
	<path d="M190.3,174.3c-1.7,0-3.1,1.4-3.1,3.1c0,1.7,1.4,3.1,3.1,3.1s3.1-1.4,3.1-3.1C193.3,175.7,192,174.3,190.3,174.3z"/>
	<path d="M190.3,183.1c-1.7,0-3,1.3-3,3v9.2c0,1.7,1.3,3,3,3s3-1.3,3-3v-9.2C193.3,184.4,191.9,183.1,190.3,183.1z"/>
</g>
</svg>
