<?xml version="1.0" encoding="utf-8"?>
<!-- Generator: Adobe Illustrator 24.2.3, SVG Export Plug-In . SVG Version: 6.00 Build 0)  -->
<svg version="1.1" id="Layer_1" xmlns="http://www.w3.org/2000/svg" xmlns:xlink="http://www.w3.org/1999/xlink" x="0px" y="0px"
	 viewBox="0 0 300 300" style="enable-background:new 0 0 300 300;" xml:space="preserve">
<style type="text/css">
</style>
<path  d="M214,209.8l-2.2-2.2c-0.6-0.6-0.8-1.5-0.5-2.3c0.1-0.3,0.1-0.5,0.2-0.8c0.4-1.5,0.4-3,0-4.5l-4.1-16.9
	c0-0.1,0-0.2,0-0.3c-0.5-1.9-1.5-3.7-2.9-5.1l-87-87c0,0,0,0,0,0c-3.6-3.6-8.3-5.6-13.4-5.6c-5.1,0-9.8,2-13.4,5.6
	c-3.6,3.6-5.6,8.3-5.6,13.4c0,5.1,2,9.8,5.6,13.4l87,87c0.1,0.1,0.2,0.2,0.3,0.2c1.2,1.4,2.8,2.4,4.7,2.8l17.2,4.2
	c0.7,0.2,1.5,0.3,2.2,0.3c1.3,0,2.5-0.3,3.7-0.7c0.7-0.1,1.4,0.1,1.9,0.6l2.2,2.2c0.6,0.6,1.4,0.9,2.1,0.9s1.5-0.3,2.1-0.9
	C215.2,212.9,215.2,211,214,209.8z M91.1,104.1c0-3.5,1.3-6.7,3.8-9.2c2.4-2.4,5.7-3.8,9.2-3.8c3.5,0,6.7,1.3,9.2,3.8c0,0,0,0,0,0
	l77.9,77.9c0,0,0,0,0,0c1.8,1.8,1.8,4.7,0,6.4l-6.6,6.6l-5.9,5.9c-0.9,0.9-1.6,1.9-2.1,3.1l-71.2-71.2c-1.8-1.8-1.8-4.6,0-6.4
	l6.6-6.6c1.2-1.2,1.2-3.1,0-4.2s-3.1-1.2-4.2,0l-6.6,6.6c-1.2,1.2-2,2.5-2.5,3.9l-3.8-3.8C92.4,110.8,91.1,107.5,91.1,104.1z
	 M184,201.7c-1.6-0.4-2.1-1.6-2.2-2.1c-0.3-1.2,0-2.6,1-3.6l6.5-6.5c0,0,0,0,0,0l6.1-6.1c1.2-1.2,2-2.5,2.5-3.9l2.4,2.4
	c0.6,0.6,1,1.3,1.3,2.2c0,0.1,0,0.1,0,0.2l4.2,17.2c0.3,1.2-0.1,2.5-1,3.5c-0.3,0.3-0.6,0.5-1,0.7c-0.2,0.1-0.3,0.1-0.5,0.1
	c-0.1,0-0.2,0.1-0.3,0.2c-0.5,0.1-1.1,0.1-1.6,0L184,201.7z"/>
</svg>
