<?xml version="1.0" encoding="utf-8"?>
<!-- Generator: Adobe Illustrator 24.2.3, SVG Export Plug-In . SVG Version: 6.00 Build 0)  -->
<svg version="1.1" id="Layer_1" xmlns="http://www.w3.org/2000/svg" xmlns:xlink="http://www.w3.org/1999/xlink" x="0px" y="0px"
	 viewBox="0 0 300 300" style="enable-background:new 0 0 300 300;" xml:space="preserve">
<path d="M220.2,104.4c0-0.8-0.1-1.6-0.2-2.4c-0.8-9.7-9-17.3-18.9-17.3H98.8c-10.5,0-19,8.5-19,19v92.7c0,10.5,8.5,19,19,19h102.2
	c10.5,0,19-8.5,19-19v-90.2C220.1,105.6,220.2,105,220.2,104.4z M209,115.1c-0.2,0.2-0.4,0.3-0.5,0.5l-10.3,10.3l-35,35
	c-3.5,3.5-8.2,5.5-13.2,5.5s-9.7-1.9-13.2-5.5l-48.1-48.1c-1.8-2.4-2.9-5.3-2.9-8.4c0-7.6,6.2-13.8,13.8-13.8h100.7
	c7,0,12.7,5.2,13.6,11.9c0,0.3,0.1,0.7,0.1,1.1v2.2C213.7,109.5,211.9,112.8,209,115.1z M201.1,209.3H98.8c-7.2,0-13-5.8-13-13
	v-77.8c0.4,0.4,0.9,0.9,1.4,1.3c0,0,0,0,0,0l45.4,45.4c4.7,4.7,10.8,7.2,17.4,7.2c6.6,0,12.8-2.6,17.4-7.2l35-35c0,0,0,0,0,0
	l10.6-10.6c0,0,0.1-0.1,0.1-0.1c0.3-0.3,0.6-0.5,0.9-0.8v77.7C214.1,203.5,208.2,209.3,201.1,209.3z"/>
</svg>
