<?xml version="1.0" encoding="utf-8"?>
<!-- Generator: Adobe Illustrator 24.2.3, SVG Export Plug-In . SVG Version: 6.00 Build 0)  -->
<svg version="1.1" id="Layer_1" xmlns="http://www.w3.org/2000/svg" xmlns:xlink="http://www.w3.org/1999/xlink" x="0px" y="0px"
	 viewBox="0 0 300 300" style="enable-background:new 0 0 300 300;" xml:space="preserve">
<path d="M184.5,102.3L184.5,102.3c-2.9,0-5.3-2.4-5.3-5.3v-1.5c0-6.2-5.1-11.3-11.3-11.3h-16.1H139c-6.2,0-11.3,5.1-11.3,11.3V97
	c0,2.9-2.4,5.3-5.3,5.3v0c-5.9,0.3-10.7,5.2-10.7,11.2v1.5v5.8c0,4.3,2.5,8.1,6.1,10c1.5,1,2.5,2.7,2.5,4.6l0.4,12.3h-12.8
	c-1.7,0-3,1.3-3,3c0,1.7,1.3,3,3,3h13l0.4,13.8h-8.5c-1.7,0-3,1.3-3,3s1.3,3,3,3h8.7l0.4,13.8h-12.5c-1.7,0-3,1.3-3,3s1.3,3,3,3H122
	l0.3,11.3c0,6.2,5.1,11.3,11.3,11.3h39.6c6.2,0,11.3-5.1,11.3-11.2l2.1-69.3c0-1.8,1-3.5,2.5-4.5c3.6-1.9,6.1-5.7,6.1-10v-7.3
	C195.1,107.6,190.4,102.7,184.5,102.3z M117.8,113.6c0-2.9,2.4-5.3,5.3-5.3h31.7c1.7,0,3-1.3,3-3s-1.3-3-3-3h-22.4
	c0.8-1.6,1.3-3.4,1.3-5.3v-1.5c0-2.9,2.4-5.3,5.3-5.3h12.9h16.1c2.9,0,5.3,2.4,5.3,5.3V97c0,5.8,4.4,10.6,10,11.2
	c0.2,0,0.4,0.1,0.7,0.1c2.9,0,5.3,2.4,5.3,5.3v7.3c0,2.9-2.4,5.3-5.3,5.3H123c-2.9,0-5.3-2.4-5.3-5.3v-5.8V113.6z M178.5,204.5
	c0,2.9-2.4,5.3-5.3,5.3h-39.6c-2.9,0-5.3-2.4-5.3-5.4l-0.3-11.2h13c1.7,0,3-1.3,3-3s-1.3-3-3-3h-13.2l-0.4-13.8h19.1
	c1.7,0,3-1.3,3-3s-1.3-3-3-3h-19.2l-0.4-13.8h12.8c1.7,0,3-1.3,3-3c0-1.7-1.3-3-3-3h-13l-0.4-12.4c0-1.1-0.2-2.2-0.5-3.2H181
	c-0.3,1-0.5,2-0.5,3.1L178.5,204.5z"/>
</svg>
