<?xml version="1.0" encoding="utf-8"?>
<!-- Generator: Adobe Illustrator 24.2.3, SVG Export Plug-In . SVG Version: 6.00 Build 0)  -->
<svg version="1.1" id="Layer_1" xmlns="http://www.w3.org/2000/svg" xmlns:xlink="http://www.w3.org/1999/xlink" x="0px" y="0px"
	 viewBox="0 0 300 300" style="enable-background:new 0 0 300 300;" xml:space="preserve">
<path d="M206.1,168.4c-0.1,0-0.1-0.1-0.2-0.1l-19.9-8.4l2.4-1c0,0,0.1,0,0.1,0c7.4-3.3,12.4-10.4,13.1-18.4c0-0.5,0.1-1.1,0.1-1.6
	c0-0.3,0-3.1,0-3.5c-0.1-3.3-0.9-6.5-2.3-9.4c-3.8-8.1-11.5-13.5-20.2-14.1c0,0-0.1,0-0.1,0c0,0,0,0-0.1,0l-0.7,0l-0.7,0
	c0,0,0,0-0.1,0c0,0-0.1,0-0.1,0c-4.4,0.3-8.6,1.8-12.1,4.3c0-1.2,0-3.2,0-3.6c-0.2-4-1.1-7.9-2.8-11.6c-4.6-9.9-14-16.6-24.7-17.2
	c0,0,0,0-0.1,0c0,0,0,0-0.1,0l-0.8,0l-0.8,0c0,0,0,0-0.1,0c0,0,0,0-0.1,0c-10.6,0.7-20,7.3-24.7,17.2c-1.7,3.6-2.6,7.5-2.8,11.6
	c0,0.5,0,4.1,0,4.4c0,0.7,0,1.3,0.1,2c0.8,9.8,6.9,18.4,16,22.4c0,0,0.1,0,0.1,0l4.2,1.7l-32.5,13.2c-0.1,0-0.1,0.1-0.2,0.1
	c-8.8,4.3-14.4,13.6-14.4,23.5v13c0,3.9,1.7,23.5,35.1,23.5h36.2h3.9h32.1c27.2,0,28.6-16.1,28.6-19.3v-9.3
	C217.9,179.5,213.3,172,206.1,168.4z M178,117.7l0.5,0l0.5,0c6.4,0.4,12.2,4.5,15,10.6c1,2.3,1.6,4.7,1.7,7.2c0,0.3,0,2.9,0,3.3
	c0,0.4,0,0.8-0.1,1.2c-0.5,5.8-4.1,11-9.5,13.4l-7.8,3.2c-0.1-0.1-0.3-0.2-0.4-0.2c-0.1,0-0.1-0.1-0.2-0.1l-6.3-2.6l-0.6-0.3
	c-5.4-2.4-9.1-7.6-9.6-13.4c0-0.4,0-0.8-0.1-1.2c0-0.3,0-2.9,0-3.3c0.1-2.5,0.7-4.9,1.7-7.2C165.8,122.2,171.5,118.2,178,117.7z
	 M155.2,138.8c0,0.5,0,1.1,0.1,1.6c0.2,2.6,0.9,5.1,2,7.4l-12.1-4.9l4.2-1.7c0,0,0.1,0,0.1,0c2-0.9,3.9-2.1,5.7-3.4
	C155.2,138.3,155.2,138.8,155.2,138.8z M127.3,135.8c-7-3.2-11.8-9.8-12.4-17.4c0-0.5-0.1-1-0.1-1.5c0-0.5,0-3.8,0-4.1
	c0.1-3.2,0.9-6.3,2.2-9.3c3.7-7.9,11.1-13.2,19.5-13.8l0.7,0l0.7,0c8.4,0.6,15.8,5.8,19.5,13.8c1.4,2.9,2.1,6,2.2,9.3
	c0,0.4,0,3.6,0,4.1c0,0.5,0,1-0.1,1.5c-0.2,2.7-1,5.3-2.3,7.8c-2.2,4.2-5.8,7.7-10.1,9.6l-9.9,4L127.3,135.8z M117.1,210.3
	c-27,0-29.1-13.4-29.1-17.5v-13c0-7.7,4.3-14.8,11-18.1l38.2-15.4l31.9,12.9l7.3,3.1c6.1,3.5,10,10.3,10,17.6v13
	c0,4.1-2.1,17.5-29.1,17.5h-3.9H117.1z M211.9,197c0,3.1-1.6,13.3-22.6,13.3h-6.9c9.2-6.1,9.9-15,9.9-17.5v-13c0-4.2-1-8.3-2.9-12
	l14,6c5.1,2.6,8.4,8,8.4,13.9V197z"/>
</svg>
