<?xml version="1.0" encoding="utf-8"?>
<!-- Generator: Adobe Illustrator 24.2.3, SVG Export Plug-In . SVG Version: 6.00 Build 0)  -->
<svg version="1.1" id="Layer_1" xmlns="http://www.w3.org/2000/svg" xmlns:xlink="http://www.w3.org/1999/xlink" x="0px" y="0px"
	 viewBox="0 0 300 300" style="enable-background:new 0 0 300 300;" xml:space="preserve">
<path d="M190.2,84.5h-80.3c-8.3,0-15,6.7-15,15v22.7c0,3,0.9,5.9,2.6,8.4c0.1,0.2,0.3,0.4,0.5,0.5l30.5,27.8
	c0.5,0.8,0.8,1.8,0.8,2.8v30.7c0,4.1,2.5,7.9,6.3,9.8l18.1,11.9l0.4,0.2c1.6,0.8,3.4,1.1,5.1,1.1c2.3,0,4.6-0.6,6.6-1.9
	c3.2-2,5.1-5.4,5.1-9.1v-42.7c0-1,0.3-2,0.8-2.8l30.6-27.8c0.2-0.2,0.4-0.5,0.6-0.8c1.6-2.4,2.4-5.3,2.4-8.2V99.5
	C205.2,91.2,198.4,84.5,190.2,84.5z M199.2,122.2c0,1.7-0.5,3.4-1.4,4.8l-30.5,27.8c-0.2,0.2-0.3,0.3-0.4,0.5c-1.3,1.9-2,4.2-2,6.5
	v42.7c0,1.6-0.9,3.1-2.3,4c-1.7,1.1-3.8,1.3-5.7,0.5l-18.1-11.9l-0.4-0.2c-1.9-0.9-3.1-2.6-3.1-4.4v-30.7c0-2.3-0.7-4.6-2-6.5
	c-0.1-0.2-0.3-0.4-0.4-0.5L102.2,127c-0.9-1.4-1.4-3.1-1.4-4.8V99.5c0-5,4-9,9-9h80.3c5,0,9,4,9,9V122.2z"/>
</svg>
