<?xml version="1.0" encoding="utf-8"?>
<!-- Generator: Adobe Illustrator 24.2.3, SVG Export Plug-In . SVG Version: 6.00 Build 0)  -->
<svg version="1.1" id="Layer_1" xmlns="http://www.w3.org/2000/svg" xmlns:xlink="http://www.w3.org/1999/xlink" x="0px" y="0px"
	 viewBox="0 0 300 300" style="enable-background:new 0 0 300 300;" xml:space="preserve">
<g>
	<path d="M215.3,114.6c0-8-3.1-15.5-8.7-21.1c-11.6-11.6-30.6-11.6-42.2,0L138,119.8h0l-44.5,44.5c-11.6,11.6-11.6,30.6,0,42.2
		c5.6,5.6,13.1,8.7,21.1,8.7c8,0,15.5-3.1,21.1-8.7l27.2-27.2c0,0,0,0,0,0l17.3-17.3c0,0,0,0,0,0l26.3-26.3
		C212.2,130,215.3,122.6,215.3,114.6z M176,157.8l-17.3,17.3c-4.7,4.7-12.4,4.7-17.1,0l-16.6-16.6h0c-2.3-2.3-3.6-5.3-3.6-8.6
		s1.3-6.3,3.6-8.6l17.3-17.3c2.3-2.3,5.3-3.6,8.6-3.6s6.3,1.3,8.6,3.6l16.6,16.6C180.7,145.3,180.7,153,176,157.8z M131.4,202.3
		c-4.5,4.5-10.5,7-16.9,7c-6.4,0-12.4-2.5-16.9-7c-9.3-9.3-9.3-24.4,0-33.7l17.7-17.7c0.2,4.5,2.1,8.7,5.3,11.9l16.6,16.6
		c3.3,3.3,7.6,5,11.9,5.3L131.4,202.3z M185.5,148.3c-0.2-4.3-2-8.6-5.3-11.9l-16.6-16.6c-3.2-3.2-7.4-5-11.9-5.3l16.8-16.8
		c4.6-4.6,10.8-7,16.9-7s12.2,2.3,16.9,7c4.5,4.5,7,10.5,7,16.9c0,6.4-2.5,12.4-7,16.9L185.5,148.3z"/>
	<circle cx="150.3" cy="138.4" r="4"/>
	<circle cx="161.6" cy="149.7" r="4"/>
	<circle cx="139.4" cy="149.3" r="4"/>
	<circle cx="150.7" cy="160.6" r="4"/>
</g>
</svg>
