<?xml version="1.0" encoding="utf-8"?>
<!-- Generator: Adobe Illustrator 24.2.3, SVG Export Plug-In . SVG Version: 6.00 Build 0)  -->
<svg version="1.1" id="Layer_1" xmlns="http://www.w3.org/2000/svg" xmlns:xlink="http://www.w3.org/1999/xlink" x="0px" y="0px"
	 viewBox="0 0 300 300" style="enable-background:new 0 0 300 300;" xml:space="preserve">
<path d="M203.1,84.7c-9.5,0-17.3,7.7-17.3,17.3c0,6.4,3.5,12,8.7,15c-0.3,0.5-0.6,1-0.8,1.6c0,0,0,0,0,0L171,179.4c0,0,0,0,0,0
	c-0.2,0.6-0.4,1.2-0.4,1.7c-1.1-0.2-2.2-0.3-3.3-0.3c-1.8,0-3.6,0.3-5.2,0.8c-0.1-0.6-0.3-1.1-0.6-1.7l-16.8-33.1c0,0,0,0,0,0
	c-0.3-0.6-0.7-1.2-1.2-1.8c4-3.2,6.5-8,6.5-13.5c0-9.5-7.7-17.3-17.3-17.3s-17.3,7.7-17.3,17.3c0,4,1.4,7.7,3.7,10.7
	c-0.4,0.3-0.7,0.5-1.1,0.9c-0.1,0.1-0.2,0.2-0.3,0.3l-10.3,11.2c-0.1,0.1-0.2,0.3-0.3,0.4c-0.3,0.3-0.5,0.7-0.8,1.1
	c-2.7-1.8-6-2.9-9.5-2.9c-9.5,0-17.3,7.8-17.3,17.3s7.8,17.3,17.3,17.3s17.3-7.8,17.3-17.3c0-3.2-0.9-6.2-2.4-8.8
	c0-0.1-0.1-0.2-0.1-0.3c-0.5-0.9-0.4-2,0.3-2.7c0,0,0,0,0-0.1l10.2-11.1c0,0,0,0,0.1,0c0.7-0.7,1.8-1,2.7-0.5c0.1,0,0.2,0.1,0.3,0.1
	c2.3,1.1,4.9,1.8,7.6,1.8c1.4,0,2.7-0.2,4-0.5c0,0,0.1,0,0.1,0c1-0.2,2,0.3,2.5,1.2c0,0,0,0,0,0l16.8,33.1c0.5,0.9,0.3,2-0.5,2.7
	c-0.1,0.1-0.1,0.1-0.2,0.2c-3.3,3.2-5.4,7.6-5.4,12.5c0,9.5,7.8,17.3,17.3,17.3s17.3-7.8,17.3-17.3c0-5.6-2.7-10.6-6.9-13.8
	c-0.1-0.1-0.2-0.2-0.2-0.2c-0.8-0.6-1.1-1.7-0.8-2.6c0,0,0,0,0,0l22.8-60.8c0,0,0,0,0,0c0,0,0,0,0,0c0.4-1,1.3-1.6,2.3-1.5
	c0,0,0,0,0,0c0.5,0,1,0.1,1.5,0.1c9.5,0,17.3-7.8,17.3-17.3S212.7,84.7,203.1,84.7z M96.9,181.7c-6.2,0-11.3-5.1-11.3-11.3
	s5.1-11.3,11.3-11.3c6.2,0,11.3,5.1,11.3,11.3S103.1,181.7,96.9,181.7z M121.4,131.6c0-6.2,5.1-11.3,11.3-11.3
	c6.2,0,11.3,5.1,11.3,11.3s-5.1,11.3-11.3,11.3C126.4,142.8,121.4,137.8,121.4,131.6z M167.2,209.3c-6.2,0-11.3-5.1-11.3-11.3
	s5.1-11.3,11.3-11.3s11.3,5.1,11.3,11.3S173.4,209.3,167.2,209.3z M203.1,113.2c-0.3,0-0.6,0-0.9,0c0,0,0,0,0,0c-0.1,0-0.1,0-0.2,0
	c-5.7-0.6-10.1-5.4-10.1-11.2c0-6.2,5.1-11.3,11.3-11.3s11.3,5.1,11.3,11.3C214.4,108.2,209.3,113.2,203.1,113.2z"/>
</svg>
