<?xml version="1.0" encoding="utf-8"?>
<!-- Generator: Adobe Illustrator 24.2.3, SVG Export Plug-In . SVG Version: 6.00 Build 0)  -->
<svg version="1.1" id="Layer_1" xmlns="http://www.w3.org/2000/svg" xmlns:xlink="http://www.w3.org/1999/xlink" x="0px" y="0px"
	 viewBox="0 0 300 300" style="enable-background:new 0 0 300 300;" xml:space="preserve">
<path d="M219.7,129.9c0.1-1.3,0.2-2.7,0.2-4c0-20.1-16.4-36.5-36.5-36.5c-14.3,0-27.2,8.2-33.4,20.3c-6.2-12.1-19.1-20.3-33.4-20.3
	c-20.1,0-36.5,16.4-36.5,36.5c0,1.3,0.1,2.7,0.2,4c0,0,0,0.1,0,0.1c0,0.2,0,0.4,0,0.7c0.1,1.8,4.4,45,68.3,79.5
	c0.4,0.2,0.9,0.4,1.4,0.4s1-0.1,1.4-0.4c63.9-34.5,68.2-77.7,68.3-79.5C219.8,130.5,219.8,130.3,219.7,129.9
	C219.7,130,219.7,130,219.7,129.9z M150,204.2c-29.7-16.3-45.6-34.7-54.1-49H125c2.2,0,3.6,0.8,3.9,1.2l4.3,15.4
	c0,0.1,0.1,0.2,0.1,0.4c0.6,1.5,2.1,2.4,3.9,2.4c0.1,0,0.2,0,0.3,0c1.8-0.1,3.3-1.2,3.7-2.7c0-0.1,0-0.1,0-0.2l7.9-35.1l6.9,22
	c0,0,0,0.1,0,0.1c0.5,1.4,1.9,2.4,3.6,2.5c1.8,0.1,3.3-0.7,4.1-2.1l5.5-10.8l2.7,2.5c1.8,1.7,4.7,2.7,7.9,2.7h25.4
	c-0.3,0.6-0.6,1.1-1,1.7C196.6,168.2,180.9,187.2,150,204.2z M208.1,147.9c-0.5-0.3-1-0.5-1.6-0.5h-26.6c-1.8,0-3.2-0.6-3.8-1.1
	l-5.6-5.2c-0.7-0.6-1.6-0.9-2.6-0.8c-0.9,0.2-1.7,0.8-2.2,1.6l-5.3,10.5l-7.6-24.2c0,0,0-0.1,0-0.1c-0.6-1.6-2.2-2.6-4.1-2.5
	c-1.9,0.1-3.4,1.1-3.8,2.7c0,0.1,0,0.1,0,0.2l-7.9,34.7l-2.4-8.7c0-0.1-0.1-0.2-0.1-0.4c-1.3-3-5-5-9.5-5H93.5
	c-0.3,0-0.6,0.1-0.8,0.1c-5.6-11.3-6.4-18.9-6.4-19.1c0-0.1,0-0.1,0-0.2c0-0.2,0.1-0.5,0-0.8c-0.1-1.1-0.2-2.2-0.2-3.4
	c0-16.8,13.7-30.5,30.5-30.5c14.4,0,27.2,9.8,30.5,23.4c0.2,1.2,1.1,2.2,2.3,2.5c1.6,0.4,3.2-0.6,3.6-2.2
	c3.2-13.7,16-23.6,30.5-23.6c16.8,0,30.5,13.7,30.5,30.5c0,1.1-0.1,2.3-0.2,3.4c0,0.3,0,0.5,0,0.8c0,0.1,0,0.1,0,0.2
	C213.8,130.3,213.1,137.4,208.1,147.9z"/>
</svg>
