<?xml version="1.0" encoding="utf-8"?>
<!-- Generator: Adobe Illustrator 25.0.0, SVG Export Plug-In . SVG Version: 6.00 Build 0)  -->
<svg version="1.1" id="Layer_1" xmlns="http://www.w3.org/2000/svg" xmlns:xlink="http://www.w3.org/1999/xlink" x="0px" y="0px"
	 viewBox="0 0 300 300" style="enable-background:new 0 0 300 300;" xml:space="preserve">
<path d="M219.7,129.9c0.1-1.3,0.2-2.7,0.2-4c0-20.1-16.4-36.5-36.5-36.5c-14.3,0-27.2,8.2-33.4,20.3c-6.2-12.1-19.1-20.3-33.4-20.3
	c-20.1,0-36.5,16.4-36.5,36.5c0,1.3,0.1,2.7,0.2,4v0.1c0,0.2,0,0.4,0,0.7c0.1,1.8,4.4,45,68.3,79.5c0.4,0.2,0.9,0.4,1.4,0.4
	s1-0.1,1.4-0.4c63.9-34.5,68.2-77.7,68.3-79.5C219.8,130.5,219.8,130.3,219.7,129.9C219.7,130,219.7,130,219.7,129.9z"/>
</svg>
