<?xml version="1.0" encoding="utf-8"?>
<!-- Generator: Adobe Illustrator 24.2.3, SVG Export Plug-In . SVG Version: 6.00 Build 0)  -->
<svg version="1.1" id="Layer_1" xmlns="http://www.w3.org/2000/svg" xmlns:xlink="http://www.w3.org/1999/xlink" x="0px" y="0px"
	 viewBox="0 0 300 300" style="enable-background:new 0 0 300 300;" xml:space="preserve">
<g>
	<path d="M200.9,84.6H99.1c-10.5,0-19,8.5-19,19v92.9c0,10.5,8.5,19,19,19h101.9c10.5,0,19-8.5,19-19v-92.9
		C219.9,93.1,211.4,84.6,200.9,84.6z M99.1,90.6h101.9c7.2,0,13,5.8,13,13s-5.8,13-13,13H99.1c-5,0-9.6,2-13,5.2v-18.2
		C86.1,96.4,91.9,90.6,99.1,90.6z M200.9,209.4H99.1c-7.2,0-13-5.8-13-13v-60.9c0-7.2,5.8-13,13-13h101.9c5,0,9.6-2,13-5.2v79.1
		C213.9,203.6,208.1,209.4,200.9,209.4z"/>
	<path d="M141,155.2h-5.9v-5.9c0-3.8-3.1-6.9-6.9-6.9h-7.5c-3.8,0-6.9,3.1-6.9,6.9v5.9h-5.9c-3.8,0-6.9,3.1-6.9,6.9v7.5
		c0,3.8,3.1,6.9,6.9,6.9h5.9v5.9c0,3.8,3.1,6.9,6.9,6.9h7.5c3.8,0,6.9-3.1,6.9-6.9v-5.9h5.9c3.8,0,6.9-3.1,6.9-6.9V162
		C147.9,158.2,144.8,155.2,141,155.2z M141.9,169.6c0,0.5-0.4,0.9-0.9,0.9h-6.7c-2.8,0-5.2,2.3-5.2,5.2v6.7c0,0.5-0.4,0.9-0.9,0.9
		h-7.5c-0.5,0-0.9-0.4-0.9-0.9v-6.7c0-2.8-2.3-5.2-5.2-5.2h-6.7c-0.5,0-0.9-0.4-0.9-0.9V162c0-0.5,0.4-0.9,0.9-0.9h6.7
		c2.8,0,5.2-2.3,5.2-5.2v-6.7c0-0.5,0.4-0.9,0.9-0.9h7.5c0.5,0,0.9,0.4,0.9,0.9v6.7c0,2.8,2.3,5.2,5.2,5.2h6.7
		c0.5,0,0.9,0.4,0.9,0.9V169.6z"/>
	<path d="M196,152h-28.6c-1.7,0-3,1.3-3,3s1.3,3,3,3H196c1.7,0,3-1.3,3-3S197.6,152,196,152z"/>
	<path d="M196,172h-28.6c-1.7,0-3,1.3-3,3s1.3,3,3,3H196c1.7,0,3-1.3,3-3S197.6,172,196,172z"/>
</g>
</svg>
