<?xml version="1.0" encoding="utf-8"?>
<!-- Generator: Adobe Illustrator 24.2.3, SVG Export Plug-In . SVG Version: 6.00 Build 0)  -->
<svg version="1.1" id="Layer_1" xmlns="http://www.w3.org/2000/svg" xmlns:xlink="http://www.w3.org/1999/xlink" x="0px" y="0px"
	 viewBox="0 0 300 300" style="enable-background:new 0 0 300 300;" xml:space="preserve">
<g>
	<path d="M149.9,149.3c-1.7,0-3,1.3-3,3c0,1.7,1.3,3,3,3c1.7,0,3-1.3,3-3C152.9,150.6,151.6,149.3,149.9,149.3z"/>
	<path d="M186,84.2H114c-10.5,0-19,8.5-19,19v45.4c0,10.5,8.5,19,19,19h0.6c7.8,0,14.9,4.3,18.6,11.1c1.6,3,2.5,6.5,2.5,9.9
		c0,11.6-9.4,21-21,21c-1.7,0-3,1.3-3,3s1.3,3,3,3h70.8c1.7,0,3-1.3,3-3c0,0,0,0,0,0s0,0,0,0c0-1.7-1.3-3-3-3
		c-6.6,0-12.6-3-16.7-8.2c-2.9-3.7-4.4-8.2-4.4-12.9c0-11.6,9.4-21,21-21h0.1c0,0,0,0,0,0l0.6,0c10.5,0,19-8.5,19-19v-45.4
		C205,92.8,196.5,84.2,186,84.2z M158.4,188.7c0,6,1.9,11.8,5.6,16.5c1.3,1.7,2.8,3.2,4.4,4.5h-36.8c6.1-5,10.1-12.6,10.1-21
		c0-4.4-1.1-8.9-3.2-12.8c-1.7-3.3-4.1-6.1-6.9-8.3h36.9C162.3,172.6,158.4,180.2,158.4,188.7z M199,148.7c0,7.2-5.8,13-13,13
		l-0.7,0c0,0-0.1,0-0.1,0H114c-7.2,0-13-5.8-13-13v-45.4c0-7.2,5.8-13,13-13H186c7.2,0,13,5.8,13,13V148.7z"/>
</g>
</svg>
