<?xml version="1.0" encoding="utf-8"?>
<!-- Generator: Adobe Illustrator 24.2.3, SVG Export Plug-In . SVG Version: 6.00 Build 0)  -->
<svg version="1.1" id="Layer_1" xmlns="http://www.w3.org/2000/svg" xmlns:xlink="http://www.w3.org/1999/xlink" x="0px" y="0px"
	 viewBox="0 0 300 300" style="enable-background:new 0 0 300 300;" xml:space="preserve">
<g>
	<path d="M206.6,93.4c-11.9-11.9-31.3-11.9-43.1,0l-26.4,26.4c-5.8,5.8-8.9,13.4-8.9,21.6s3.2,15.8,8.9,21.6
		c0.6,0.6,1.4,0.9,2.1,0.9s1.5-0.3,2.1-0.9c1.2-1.2,1.2-3.1,0-4.2c-4.6-4.6-7.2-10.8-7.2-17.3c0-6.5,2.5-12.7,7.2-17.3l26.4-26.4
		c9.6-9.6,25.1-9.6,34.7,0s9.6,25.1,0,34.7l-16.9,16.9c-1.2,1.2-1.2,3.1,0,4.2s3.1,1.2,4.2,0l16.9-16.9
		C218.5,124.7,218.5,105.3,206.6,93.4z"/>
	<path d="M158.7,137.1c-1.2,1.2-1.2,3.1,0,4.2c9.6,9.6,9.6,25.1,0,34.7l-26.4,26.4c-9.6,9.6-25.1,9.6-34.7,0
		c-9.6-9.6-9.6-25.1,0-34.7l14.6-14.6c1.2-1.2,1.2-3.1,0-4.2c-1.2-1.2-3.1-1.2-4.2,0l-14.6,14.6c-11.9,11.9-11.9,31.3,0,43.1
		c5.9,5.9,13.8,8.9,21.6,8.9s15.6-3,21.6-8.9l26.4-26.4c11.9-11.9,11.9-31.3,0-43.1C161.8,135.9,159.9,135.9,158.7,137.1z"/>
</g>
</svg>
