<?xml version="1.0" encoding="utf-8"?>
<!-- Generator: Adobe Illustrator 24.2.3, SVG Export Plug-In . SVG Version: 6.00 Build 0)  -->
<svg version="1.1" id="Layer_1" xmlns="http://www.w3.org/2000/svg" xmlns:xlink="http://www.w3.org/1999/xlink" x="0px" y="0px"
	 viewBox="0 0 300 300" style="enable-background:new 0 0 300 300;" xml:space="preserve">
<g>
	<path d="M145.4,154.6C145.4,154.6,145.3,154.6,145.4,154.6c-1.6-1.5-3.6-2.4-5.9-2.4h-29.3c-1.7,0-3,1.3-3,3s1.3,3,3,3h27.4
		l-52.1,52.1c-1.2,1.2-1.2,3.1,0,4.2c0.6,0.6,1.4,0.9,2.1,0.9s1.5-0.3,2.1-0.9l52.1-52.1v27.4c0,1.7,1.3,3,3,3s3-1.3,3-3v-29.3
		C147.8,158.2,146.9,156.2,145.4,154.6C145.4,154.7,145.4,154.6,145.4,154.6z"/>
	<path d="M214.5,85.5c-1.2-1.2-3.1-1.2-4.2,0l-52.1,52.1v-27.4c0-1.7-1.3-3-3-3s-3,1.3-3,3v29.3c0,2.3,0.9,4.3,2.4,5.8
		c0,0,0,0,0,0.1c0,0,0,0,0.1,0c1.5,1.5,3.6,2.4,5.8,2.4h29.3c1.7,0,3-1.3,3-3s-1.3-3-3-3h-27.4l52.1-52.1
		C215.7,88.6,215.7,86.7,214.5,85.5z"/>
</g>
</svg>
