<?xml version="1.0" encoding="utf-8"?>
<!-- Generator: Adobe Illustrator 24.2.3, SVG Export Plug-In . SVG Version: 6.00 Build 0)  -->
<svg version="1.1" id="Layer_1" xmlns="http://www.w3.org/2000/svg" xmlns:xlink="http://www.w3.org/1999/xlink" x="0px" y="0px"
	 viewBox="0 0 300 300" style="enable-background:new 0 0 300 300;" xml:space="preserve">
<g>
	<path d="M184.2,84.1h-68.4c-10.5,0-19,8.5-19,19v93.9c0,10.5,8.5,19,19,19h68.4c10.5,0,19-8.5,19-19v-93.9
		C203.2,92.6,194.7,84.1,184.2,84.1z M197.2,196.9c0,7.2-5.8,13-13,13h-68.4c-7.2,0-13-5.8-13-13v-93.9c0-7.2,5.8-13,13-13h68.4
		c7.2,0,13,5.8,13,13V196.9z"/>
	<path d="M163.4,195.6h-26.8c-1.7,0-3,1.3-3,3s1.3,3,3,3h26.8c1.7,0,3-1.3,3-3S165.1,195.6,163.4,195.6z"/>
	<path d="M162.2,158.8l7-8.8c1-1.3,0.8-3.2-0.5-4.2c-1.3-1-3.2-0.8-4.2,0.5l-6.2,7.8l-9.6-11.9c5.5-1.2,9.6-6,9.6-11.8v-1.7
		c0-6.7-5.4-12.1-12.1-12.1h-4.9c-6.7,0-12.1,5.4-12.1,12.1v8.6v5.2v9.9c0,1.7,1.3,3,3,3s3-1.3,3-3v-9.9h6l13.3,16.5l-7.7,9.6
		c-1,1.3-0.8,3.2,0.5,4.2c0.6,0.4,1.2,0.7,1.9,0.7c0.9,0,1.8-0.4,2.3-1.1l6.8-8.6l7,8.7c0.6,0.7,1.5,1.1,2.3,1.1
		c0.7,0,1.3-0.2,1.9-0.7c1.3-1,1.5-2.9,0.5-4.2L162.2,158.8z M135.3,128.6c0-3.4,2.7-6.1,6.1-6.1h4.9c3.4,0,6.1,2.7,6.1,6.1v1.7
		c0,3.4-2.7,6.1-6.1,6.1h-11V128.6z"/>
</g>
</svg>
