<?xml version="1.0" encoding="utf-8"?>
<!-- Generator: Adobe Illustrator 24.2.3, SVG Export Plug-In . SVG Version: 6.00 Build 0)  -->
<svg version="1.1" id="Layer_1" xmlns="http://www.w3.org/2000/svg" xmlns:xlink="http://www.w3.org/1999/xlink" x="0px" y="0px"
	 viewBox="0 0 300 300" style="enable-background:new 0 0 300 300;" xml:space="preserve">
<path d="M218.2,154.6L218.2,154.6l-35.4-42.9c0,0,0,0,0,0c-2.2-2.7-5.6-4.3-9.1-4.3c-6.5,0-11.8,5.3-11.8,11.8c0,1.7,1.3,3,3,3
	s3-1.3,3-3c0-3.2,2.6-5.8,5.8-5.8c1.7,0,3.4,0.8,4.5,2.1c0,0,0,0,0,0l29.3,35.5h-42c-2.9,0-5.4,1.3-7.2,3.3c-2.1-2-5-3.3-8.2-3.3
	c-3.2,0-6.1,1.3-8.2,3.3c-1.7-2-4.3-3.3-7.2-3.3h-42l29.3-35.5l0,0c0,0,0,0,0,0c1.1-1.3,2.7-2.1,4.5-2.1c3.2,0,5.8,2.6,5.8,5.8
	c0,1.7,1.3,3,3,3s3-1.3,3-3c0-6.5-5.3-11.8-11.8-11.8c-3.5,0-6.8,1.6-9.1,4.3l0,0L82,154.4c0,0.1-0.1,0.1-0.1,0.2l-0.1,0.1l0,0
	c-1.3,1.6-2,3.7-2,5.9c0,17.7,14.4,32.1,32.1,32.1c16.9,0,30.8-13.1,32-29.7h0.1c0-3.3,2.7-6,6-6c3.3,0,6,2.7,6,6h0.1
	c1.3,16.6,15.2,29.7,32,29.7c17.7,0,32.1-14.4,32.1-32.1C220.2,158.3,219.5,156.2,218.2,154.6z M111.9,186.6L111.9,186.6
	c-14.4,0-26.1-11.7-26.1-26.1c0-1.9,1.6-3.5,3.5-3.5h45.3c1.9,0,3.5,1.6,3.5,3.5C138,174.9,126.3,186.6,111.9,186.6z M188.1,186.6
	c-14.4,0-26.1-11.7-26.1-26.1c0-1.9,1.6-3.5,3.5-3.5h45.3c1.9,0,3.5,1.6,3.5,3.5C214.2,174.9,202.5,186.6,188.1,186.6z"/>
</svg>
