<?xml version="1.0" encoding="utf-8"?>
<!-- Generator: Adobe Illustrator 24.2.3, SVG Export Plug-In . SVG Version: 6.00 Build 0)  -->
<svg version="1.1" id="Layer_1" xmlns="http://www.w3.org/2000/svg" xmlns:xlink="http://www.w3.org/1999/xlink" x="0px" y="0px"
	 viewBox="0 0 300 300" style="enable-background:new 0 0 300 300;" xml:space="preserve">
<g>
	<path d="M86,114.4c-0.5-3.4,0.4-6.9,2.5-9.6c2.1-2.8,5.1-4.6,8.6-5l61.6-8.7c1.6-0.2,2.8-1.7,2.6-3.4c-0.2-1.6-1.7-2.8-3.4-2.6
		l-61.6,8.7c-5,0.7-9.5,3.3-12.5,7.4s-4.3,9.1-3.6,14.1l5.4,38.3c0.2,1.5,1.5,2.6,3,2.6c0.1,0,0.3,0,0.4,0c1.6-0.2,2.8-1.7,2.6-3.4
		L86,114.4z"/>
	<path d="M219.8,178c-1.2-8.5-5.6-16.1-12.5-21.3c0-1.1,0-2.3-0.2-3.4l-5.8-41.3c-1.5-10.4-11.1-17.6-21.5-16.2l-68.1,9.6
		c-5,0.7-9.5,3.3-12.5,7.4s-4.3,9.1-3.6,14.1l5.8,41.3c1.3,9.5,9.5,16.4,18.8,16.4c0.9,0,1.8-0.1,2.7-0.2l32.5-4.6
		c-0.2,2.4-0.2,4.8,0.2,7.3c1.2,8.6,5.7,16.2,12.6,21.4c5.7,4.3,12.5,6.5,19.4,6.5c1.5,0,3-0.1,4.6-0.3
		C209.9,212.1,222.3,195.7,219.8,178z M122,178.4c-7.1,1-13.7-4-14.7-11.1l-5.8-41.3c-0.5-3.4,0.4-6.9,2.5-9.6
		c2.1-2.8,5.1-4.6,8.6-5l68.1-9.6c7.1-1,13.7,4,14.7,11.1l5.6,40.1c-5.5-2.5-11.7-3.4-17.9-2.6c-13,1.8-23.2,11.2-26.6,23.1
		L122,178.4z M191.4,208.7c-7,1-13.9-0.8-19.6-5.1c-5.6-4.2-9.3-10.4-10.3-17.4c-2-14.4,8.1-27.8,22.5-29.8c1.2-0.2,2.5-0.3,3.7-0.3
		c5.7,0,11.2,1.8,15.8,5.3c5.6,4.2,9.3,10.4,10.3,17.4C215.9,193.3,205.8,206.7,191.4,208.7z"/>
	<path d="M198.7,179.5h-7.8v-7.8c0-1.7-1.3-3-3-3s-3,1.3-3,3v7.8H177c-1.7,0-3,1.3-3,3s1.3,3,3,3h7.8v7.8c0,1.7,1.3,3,3,3s3-1.3,3-3
		v-7.8h7.8c1.7,0,3-1.3,3-3S200.3,179.5,198.7,179.5z"/>
</g>
</svg>
