<?xml version="1.0" encoding="utf-8"?>
<!-- Generator: Adobe Illustrator 24.2.3, SVG Export Plug-In . SVG Version: 6.00 Build 0)  -->
<svg version="1.1" id="Layer_1" xmlns="http://www.w3.org/2000/svg" xmlns:xlink="http://www.w3.org/1999/xlink" x="0px" y="0px"
	 viewBox="0 0 300 300" style="enable-background:new 0 0 300 300;" xml:space="preserve">
<g>
	<path d="M171.1,149.8l0.4-14.5c0-1.8,1-3.5,2.5-4.5c3.6-1.9,6.1-5.7,6.1-10v-7.3c0-6-4.7-10.9-10.7-11.2v0c-2.9,0-5.3-2.4-5.3-5.3
		v-1.5c0-6.2-5.1-11.3-11.3-11.3h-16.1h-12.9c-6.2,0-11.3,5.1-11.3,11.3V97c0,2.9-2.4,5.3-5.3,5.3v0c-5.9,0.3-10.7,5.2-10.7,11.2
		v1.5v5.8c0,4.3,2.5,8.1,6.1,10c1.5,1,2.5,2.7,2.5,4.6l2.1,69.1c0,6.2,5.1,11.3,11.3,11.3h39.6c1.5,0,3-0.3,4.4-0.9
		c2.5,0.6,5,0.9,7.7,0.9c18.2,0,33-14.8,33-33C203.3,164.9,188.9,150.3,171.1,149.8z M102.7,113.6c0-2.9,2.4-5.3,5.3-5.3h32.3
		c1.7,0,3-1.3,3-3s-1.3-3-3-3h-22.9c0.8-1.6,1.3-3.4,1.3-5.3v-1.5c0-2.9,2.4-5.3,5.3-5.3h12.9h16.1c2.9,0,5.3,2.4,5.3,5.3V97
		c0,5.8,4.4,10.6,10,11.2c0.2,0,0.4,0.1,0.7,0.1c2.9,0,5.3,2.4,5.3,5.3v7.3c0,2.9-2.4,5.3-5.3,5.3H108c-2.9,0-5.3-2.4-5.3-5.3v-5.8
		V113.6z M118.6,209.8c-2.9,0-5.3-2.4-5.3-5.4l-2.1-69.1c0-1.1-0.2-2.2-0.5-3.2H166c-0.3,1-0.5,2-0.5,3.1l-0.4,15
		c-15.7,2.5-27.8,16.2-27.8,32.6c0,11.2,5.6,21,14.1,27H118.6z M170.3,209.8c-14.9,0-27-12.1-27-27s12.1-27,27-27s27,12.1,27,27
		S185.2,209.8,170.3,209.8z"/>
	<path d="M176.2,187.2c-3.4,0-6.1-2.8-6.1-6.1v-6.4c0-1.7-1.3-3-3-3s-3,1.3-3,3v6.4c0,6.7,5.4,12.1,12.1,12.1c1.7,0,3-1.3,3-3
		S177.9,187.2,176.2,187.2z"/>
</g>
</svg>
