<?xml version="1.0" encoding="utf-8"?>
<!-- Generator: Adobe Illustrator 24.2.3, SVG Export Plug-In . SVG Version: 6.00 Build 0)  -->
<svg version="1.1" id="Layer_1" xmlns="http://www.w3.org/2000/svg" xmlns:xlink="http://www.w3.org/1999/xlink" x="0px" y="0px"
	 viewBox="0 0 300 300" style="enable-background:new 0 0 300 300;" xml:space="preserve">
<path d="M171.7,148.6l0.4-13.2c0-1.8,1-3.5,2.5-4.5c3.6-1.9,6.1-5.7,6.1-10v-7.3c0-6-4.7-10.9-10.7-11.2v0c-2.9,0-5.3-2.4-5.3-5.3
	v-1.5c0-6.2-5.1-11.3-11.3-11.3h-16.1h-12.9c-6.2,0-11.3,5.1-11.3,11.3V97c0,2.9-2.4,5.3-5.3,5.3v0c-5.9,0.3-10.7,5.2-10.7,11.2v1.5
	v5.8c0,4.3,2.5,8.1,6.1,10c1.5,1,2.5,2.7,2.5,4.6l2.1,69.1c0,6.2,5.1,11.3,11.3,11.3h39.6c0.5,0,1,0,1.4-0.1h8.9
	c18.5,0,33.6-15.1,33.6-33.6C202.7,164.4,189,149.9,171.7,148.6z M103.3,113.6c0-2.9,2.4-5.3,5.3-5.3h31.7c1.7,0,3-1.3,3-3
	s-1.3-3-3-3h-22.4c0.8-1.6,1.3-3.4,1.3-5.3v-1.5c0-2.9,2.4-5.3,5.3-5.3h12.9h16.1c2.9,0,5.3,2.4,5.3,5.3V97c0,5.8,4.4,10.6,10,11.2
	c0.2,0,0.4,0.1,0.7,0.1c2.9,0,5.3,2.4,5.3,5.3v7.3c0,2.9-2.4,5.3-5.3,5.3h-60.8c-2.9,0-5.3-2.4-5.3-5.3v-5.8V113.6z M169.1,209.7
	h-0.3c0.8-1.5,1.3-3.3,1.3-5.1l0.8-25.7c0-1.7-1.3-3-2.9-3.1c-1.7,0-3,1.3-3.1,2.9l-0.8,25.8c0,2.6-1.8,4.7-4.3,5.2h-4.1
	c-0.3,0-0.5,0-0.7,0.1h-35.7c-2.9,0-5.3-2.4-5.3-5.4l-2.1-69.1c0-1.1-0.2-2.2-0.5-3.2h55.2c-0.3,1-0.5,2-0.5,3.1l-0.4,13.4
	c-15.8,1.6-28.4,14.1-30.1,29.9l-1.8-1.8c-1.2-1.2-3.1-1.2-4.2,0c-1.2,1.2-1.2,3.1,0,4.2l5.7,5.7c0.9,0.9,2,1.3,3.1,1.3
	c1.1,0,2.3-0.4,3.1-1.3l5.7-5.7c1.2-1.2,1.2-3.1,0-4.2s-3.1-1.2-4.2,0l-1.3,1.3c2-13.3,13.5-23.5,27.3-23.5
	c15.2,0,27.6,12.4,27.6,27.6C196.7,197.3,184.3,209.7,169.1,209.7z"/>
</svg>
