<?xml version="1.0" encoding="utf-8"?>
<!-- Generator: Adobe Illustrator 24.2.3, SVG Export Plug-In . SVG Version: 6.00 Build 0)  -->
<svg version="1.1" id="Layer_1" xmlns="http://www.w3.org/2000/svg" xmlns:xlink="http://www.w3.org/1999/xlink" x="0px" y="0px"
	 viewBox="0 0 300 300" style="enable-background:new 0 0 300 300;" xml:space="preserve">
<path d="M181,102.3L181,102.3c-2.9,0-5.3-2.4-5.3-5.3v-1.8c0-6.1-4.9-11-11-11h-16.4h-13.1c-6.1,0-11,4.9-11,11V97
	c0,2.9-2.4,5.3-5.3,5.3v0c-5.9,0.2-10.7,5-10.7,11v1.8v6c0,4.5,2.7,8.3,6.5,10c1.2,1,2,2.5,2,4.2l2.1,69.1c0,6.2,5.1,11.3,11.3,11.3
	h39.6c6.2,0,11.3-5.1,11.3-11.2l2.1-69.3c0-1.6,0.8-3.1,2-4.1c3.8-1.7,6.5-5.6,6.5-10v-7.6C191.7,107.6,187,102.7,181,102.3z
	 M114.3,113.3c0-2.8,2.2-5,5-5h32c1.7,0,3-1.3,3-3s-1.3-3-3-3h-22.4c0.8-1.6,1.3-3.4,1.3-5.3v-1.8c0-2.8,2.2-5,5-5h13.1h16.4
	c2.8,0,5,2.2,5,5V97c0,5.8,4.4,10.6,10,11.2c0.2,0,0.4,0.1,0.7,0.1c2.9,0,5.3,2.4,5.3,5.3v7.6c0,1.7-0.9,3.2-2.2,4.1
	c-0.3,0.1-0.5,0.2-0.7,0.3c-0.1,0.1-0.3,0.2-0.4,0.3c-0.5,0.2-1.1,0.3-1.7,0.3h-61.4c-0.6,0-1.2-0.1-1.7-0.3
	c-0.1-0.1-0.3-0.2-0.4-0.3c-0.2-0.1-0.5-0.2-0.7-0.3c-1.3-0.9-2.2-2.4-2.2-4.1v-6V113.3z M175.1,204.5c0,2.9-2.4,5.3-5.3,5.3h-39.6
	c-2.9,0-5.3-2.4-5.3-5.4l-2.1-69.1c0-1.1-0.2-2.2-0.5-3.2h55.2c-0.3,1-0.5,2-0.5,3.1L175.1,204.5z"/>
</svg>
