<?xml version="1.0" encoding="utf-8"?>
<!-- Generator: Adobe Illustrator 24.2.3, SVG Export Plug-In . SVG Version: 6.00 Build 0)  -->
<svg version="1.1" id="Layer_1" xmlns="http://www.w3.org/2000/svg" xmlns:xlink="http://www.w3.org/1999/xlink" x="0px" y="0px"
	 viewBox="0 0 300 300" style="enable-background:new 0 0 300 300;" xml:space="preserve">
<style type="text/css">
	.st0{fill:#FFFFFF;}
</style>
<g id="art">
	<g>
		<circle class="st0" cx="150" cy="150.4" r="65.9"/>
		<g>
			<path d="M150,84.5c-36.4,0-65.9,29.5-65.9,65.9c0,28,17.4,51.8,41.9,61.4c-0.6-5.2-1.1-13.2,0.2-18.9c1.2-5.2,7.7-32.8,7.7-32.8
				s-2-4-2-9.8c0-9.2,5.3-16,11.9-16c5.6,0,8.4,4.2,8.4,9.3c0,5.6-3.6,14.1-5.5,22c-1.6,6.6,3.3,11.9,9.8,11.9
				c11.7,0,20.7-12.4,20.7-30.2c0-15.8-11.3-26.8-27.6-26.8c-18.8,0-29.8,14.1-29.8,28.6c0,5.6,2.2,11.7,4.9,15
				c0.5,0.7,0.6,1.2,0.4,1.9c-0.5,2.1-1.6,6.6-1.8,7.5c-0.3,1.2-1,1.5-2.2,0.9c-8.2-3.9-13.4-15.8-13.4-25.6
				c0-20.8,15.1-39.9,43.6-39.9c22.9,0,40.7,16.3,40.7,38.1c0,22.7-14.3,41-34.2,41c-6.7,0-13-3.5-15.1-7.6c0,0-3.3,12.6-4.1,15.7
				c-1.5,5.8-5.5,12.9-8.2,17.3c6.2,1.9,12.7,2.9,19.5,2.9c36.4,0,65.9-29.5,65.9-65.9C215.9,114,186.4,84.5,150,84.5z"/>
		</g>
	</g>
</g>
</svg>
