<?xml version="1.0" encoding="utf-8"?>
<!-- Generator: Adobe Illustrator 24.2.3, SVG Export Plug-In . SVG Version: 6.00 Build 0)  -->
<svg version="1.1" id="Layer_1" xmlns="http://www.w3.org/2000/svg" xmlns:xlink="http://www.w3.org/1999/xlink" x="0px" y="0px"
	 viewBox="0 0 300 300" style="enable-background:new 0 0 300 300;" xml:space="preserve">
<path d="M210.5,147H153V89.5c0-1.7-1.3-3-3-3c-1.7,0-3,1.3-3,3V147H89.5c-1.7,0-3,1.3-3,3c0,1.7,1.3,3,3,3H147v57.5c0,1.7,1.3,3,3,3
	c1.7,0,3-1.3,3-3V153h57.5c1.7,0,3-1.3,3-3C213.5,148.3,212.2,147,210.5,147z"/>
</svg>
