<?xml version="1.0" encoding="utf-8"?>
<!-- Generator: Adobe Illustrator 24.2.3, SVG Export Plug-In . SVG Version: 6.00 Build 0)  -->
<svg version="1.1" id="Layer_1" xmlns="http://www.w3.org/2000/svg" xmlns:xlink="http://www.w3.org/1999/xlink" x="0px" y="0px"
	 viewBox="0 0 300 300" style="enable-background:new 0 0 300 300;" xml:space="preserve">
<path d="M204.3,117.5H169c7.2-2.1,12.2-8.6,12.2-16.2c0-9.3-7.6-16.9-16.9-16.9c-5.7,0-10.8,2.9-13.9,7.3c-3.1-4.4-8.1-7.3-13.9-7.3
	c-9.3,0-16.9,7.6-16.9,16.9c0,7.6,5,14.1,12.2,16.2H95.7c-8.1,0-14.8,6.6-14.8,14.8c0,0.3,0,0.6,0.1,0.9l10.9,68.1
	c0.3,7.9,6.8,14.2,14.8,14.2h43.1c0.2,0.1,0.5,0.1,0.7,0.1c0.3,0,0.5,0,0.7-0.1h42.1c8,0,14.5-6.3,14.8-14.2l10.9-68.1
	c0.1-0.3,0.1-0.6,0.1-0.9C219.1,124.1,212.5,117.5,204.3,117.5z M213.1,132.3l-3.4,21.2h-56.2v-30h50.8
	C209.2,123.5,213.1,127.4,213.1,132.3z M164.3,90.4c6,0,10.9,4.9,10.9,10.9c0,5.1-3.4,9.4-8.3,10.6l0,0c0,0,0,0-0.1,0
	c-4.6,1.2-9,2.7-13.4,4.6v-15.2h0c0-0.2,0-0.4,0-0.7C153.8,94.9,158.5,90.4,164.3,90.4z M125.7,101.3c0-6,4.9-10.9,10.9-10.9
	c5.8,0,10.5,4.5,10.9,10.3c0,0.2,0,0.4,0,0.6h0.1v15.3c-4.3-1.9-8.8-3.5-13.4-4.6c0,0,0,0-0.1,0l0,0
	C129.1,110.7,125.7,106.3,125.7,101.3z M95.7,123.5h51.8v30H90.3l-3.4-21.2C86.9,127.4,90.8,123.5,95.7,123.5z M97.9,200.8
	l-6.6-41.2h56.2v50h-40.9C101.8,209.5,97.9,205.6,97.9,200.8z M202.1,200.8c0,4.8-3.9,8.8-8.8,8.8h-39.9v-50h55.2L202.1,200.8z"/>
</svg>
