<?xml version="1.0" encoding="utf-8"?>
<!-- Generator: Adobe Illustrator 24.2.3, SVG Export Plug-In . SVG Version: 6.00 Build 0)  -->
<svg version="1.1" id="Layer_1" xmlns="http://www.w3.org/2000/svg" xmlns:xlink="http://www.w3.org/1999/xlink" x="0px" y="0px"
	 viewBox="0 0 300 300" style="enable-background:new 0 0 300 300;" xml:space="preserve">
<g>
	<path d="M154.4,75.7c-36,0-65.3,29.3-65.3,65.3s29.3,65.3,65.3,65.3s65.3-29.3,65.3-65.3S190.4,75.7,154.4,75.7z M154.4,200.2
		c-32.7,0-59.3-26.6-59.3-59.3s26.6-59.3,59.3-59.3s59.3,26.6,59.3,59.3S187.1,200.2,154.4,200.2z"/>
	<path d="M157.4,135.8v-20.1c4.1,1.3,7.1,5.1,7.1,9.7c0,1.7,1.3,3,3,3s3-1.3,3-3c0-7.9-5.7-14.4-13.1-15.8v-3.7c0-1.7-1.3-3-3-3
		s-3,1.3-3,3v3.7c-7.5,1.4-13.1,8-13.1,15.8c0,7.9,5.7,14.4,13.1,15.8v25c-5.5-1.3-9.5-6.3-9.5-12.1c0-1.7-1.3-3-3-3s-3,1.3-3,3
		c0,9.2,6.7,16.8,15.5,18.3v3.6c0,1.7,1.3,3,3,3s3-1.3,3-3v-3.6c8.8-1.4,15.5-9.1,15.5-18.3C172.9,144.9,166.2,137.3,157.4,135.8z
		 M144.2,125.4c0-4.5,3-8.4,7.1-9.7v19.4C147.2,133.8,144.2,130,144.2,125.4z M157.4,166.2v-24.3c5.5,1.3,9.5,6.3,9.5,12.2
		C166.9,160,162.8,164.9,157.4,166.2z"/>
</g>
</svg>
