<?xml version="1.0" encoding="utf-8"?>
<!-- Generator: Adobe Illustrator 24.2.3, SVG Export Plug-In . SVG Version: 6.00 Build 0)  -->
<svg version="1.1" id="Layer_1" xmlns="http://www.w3.org/2000/svg" xmlns:xlink="http://www.w3.org/1999/xlink" x="0px" y="0px"
	 viewBox="0 0 300 300" style="enable-background:new 0 0 300 300;" xml:space="preserve">
<path d="M217.1,148.1h-17.3c-3.1,0-5.9-1.5-7.6-4.1l-9.7-15c-0.6-1-1.8-1.5-2.9-1.3c-1.2,0.2-2.1,1-2.5,2.1l-11.5,37.5L150.9,89
	c-0.5-2.4-2.6-4-5-3.9c-2.4,0.1-4.4,1.8-4.8,4.2c0,0,0,0.1,0,0.1l-15.5,114l-6.5-38.5c0-0.1,0-0.2-0.1-0.2
	c-1.7-6.7-7.7-11.3-14.5-11.3H82.9c-1.7,0-3,1.3-3,3s1.3,3,3,3h21.4c4.1,0,7.6,2.7,8.7,6.7l7.6,45c0,0.1,0,0.2,0.1,0.2
	c0.6,2.2,2.5,3.8,4.8,3.8c0.1,0,0.1,0,0.2,0c2.4-0.1,4.3-1.8,4.7-4.1c0,0,0-0.1,0-0.1l15.6-114.4l14.4,76.2c0.5,2.2,2.4,3.8,4.6,3.9
	c2.3,0.1,4.3-1.3,5-3.5l10.8-35.3l6.2,9.6c2.8,4.3,7.5,6.9,12.6,6.9h17.3c1.7,0,3-1.3,3-3C220.1,149.4,218.7,148.1,217.1,148.1z"/>
</svg>
