<?xml version="1.0" encoding="utf-8"?>
<!-- Generator: Adobe Illustrator 24.2.3, SVG Export Plug-In . SVG Version: 6.00 Build 0)  -->
<svg version="1.1" id="Layer_1" xmlns="http://www.w3.org/2000/svg" xmlns:xlink="http://www.w3.org/1999/xlink" x="0px" y="0px"
	 viewBox="0 0 300 300" style="enable-background:new 0 0 300 300;" xml:space="preserve">
<g>
	<path d="M150,84.7c-36,0-65.3,29.3-65.3,65.3c0,36,29.3,65.3,65.3,65.3c36,0,65.3-29.3,65.3-65.3C215.3,114,186,84.7,150,84.7z
		 M150,209.3c-32.7,0-59.3-26.6-59.3-59.3c0-32.7,26.6-59.3,59.3-59.3c32.7,0,59.3,26.6,59.3,59.3
		C209.3,182.7,182.7,209.3,150,209.3z"/>
	<ellipse transform="matrix(0.9732 -0.2298 0.2298 0.9732 -36.6986 39.282)" cx="150.3" cy="177.2" rx="4.5" ry="4.5"/>
	<path d="M150,119.1c-9.4,0-17.1,7.7-17.1,17.1c0,1.7,1.3,3,3,3s3-1.3,3-3c0-6.1,5-11.1,11.1-11.1c6.1,0,11.1,5,11.1,11.1
		c0,4.5-2.7,8.5-6.8,10.2c0,0,0,0,0,0c-4.3,1.7-7,5.8-7,10.3v5.1c0,1.7,1.3,3,3,3s3-1.3,3-3v-5.1c0-2.1,1.3-4,3.2-4.8
		c0,0,0.1,0,0.1,0c0,0,0,0,0.1,0c6.3-2.7,10.4-8.9,10.4-15.8C167.1,126.7,159.4,119.1,150,119.1z"/>
</g>
</svg>
