<?xml version="1.0" encoding="utf-8"?>
<!-- Generator: Adobe Illustrator 24.2.3, SVG Export Plug-In . SVG Version: 6.00 Build 0)  -->
<svg version="1.1" id="Layer_1" xmlns="http://www.w3.org/2000/svg" xmlns:xlink="http://www.w3.org/1999/xlink" x="0px" y="0px"
	 viewBox="0 0 300 300" style="enable-background:new 0 0 300 300;" xml:space="preserve">
<g>
	<path d="M209.1,151.8h-21h-6h-40.1L101.3,111c-1.2-1.2-3.1-1.2-4.2,0c-1.2,1.2-1.2,3.1,0,4.2l36.5,36.5H90.9c-6.1,0-11,4.9-11,11
		v11.3c0,6.1,4.9,11,11,11h76.3l31.8,31.8c0.6,0.6,1.4,0.9,2.1,0.9s1.5-0.3,2.1-0.9c1.2-1.2,1.2-3.1,0-4.2l-27.5-27.5h6.4h6h21
		c6.1,0,11-4.9,11-11v-11.3C220.1,156.7,215.2,151.8,209.1,151.8z M182.1,179.1H90.9c-2.8,0-5-2.2-5-5v-11.3c0-2.8,2.2-5,5-5h91.2
		V179.1z M214.1,174.1c0,2.8-2.2,5-5,5h-21v-21.3h21c2.8,0,5,2.2,5,5V174.1z"/>
	<path d="M181.1,116.2c13.8,0,25,11.2,25,25c0,1.7,1.3,3,3,3s3-1.3,3-3c0-17.1-13.9-31-31-31c-13.8,0-25-11.2-25-25c0-1.7-1.3-3-3-3
		s-3,1.3-3,3C150.2,102.3,164,116.2,181.1,116.2z"/>
	<path d="M178.3,130.9c5.6,0,10.2,4.6,10.2,10.2c0,1.7,1.3,3,3,3s3-1.3,3-3c0-9-7.3-16.2-16.2-16.2c-19.5,0-35.4-15.9-35.4-35.4
		c0-1.7-1.3-3-3-3s-3,1.3-3,3C136.9,112.4,155.4,130.9,178.3,130.9z"/>
</g>
</svg>
