<?xml version="1.0" encoding="utf-8"?>
<!-- Generator: Adobe Illustrator 24.2.3, SVG Export Plug-In . SVG Version: 6.00 Build 0)  -->
<svg version="1.1" id="Layer_1" xmlns="http://www.w3.org/2000/svg" xmlns:xlink="http://www.w3.org/1999/xlink" x="0px" y="0px"
	 viewBox="0 0 300 300" style="enable-background:new 0 0 300 300;" xml:space="preserve">
<g>
	<path d="M206.7,130.4h-64.2c1.5-3.3,2.4-6.8,2.8-10.5h72.4c1.7,0,3-1.3,3-3s-1.3-3-3-3h-72.4c-1.5-16.8-15.7-30-32.9-30
		c-18.2,0-33,14.8-33,33c0,10.5,5,19.9,12.7,26c-0.2,1-0.3,2-0.3,3v54.8c0,8.5,6.2,15.4,13.9,15.4h101c7.7,0,13.9-6.9,13.9-15.4
		v-54.8C220.6,137.4,214.4,130.4,206.7,130.4z M85.4,116.9c0-14.9,12.1-27,27-27s27,12.1,27,27s-12.1,27-27,27
		S85.4,131.8,85.4,116.9z M214.6,200.7c0,5.2-3.5,9.4-7.9,9.4h-101c-4.4,0-7.9-4.2-7.9-9.4v-54.2c4.4,2.2,9.3,3.4,14.6,3.4
		c10.9,0,20.6-5.3,26.6-13.5h67.8c4.4,0,7.9,4.2,7.9,9.4V200.7z"/>
	<path d="M202.1,148.9h-27.8c-1.7,0-3,1.3-3,3c0,1.7,1.3,3,3,3h27.8c1.7,0,3-1.3,3-3C205.1,150.2,203.8,148.9,202.1,148.9z"/>
	<path d="M101.5,120h8v8c0,1.7,1.3,3,3,3s3-1.3,3-3v-8h8c1.7,0,3-1.3,3-3s-1.3-3-3-3h-8v-8c0-1.7-1.3-3-3-3s-3,1.3-3,3v8h-8
		c-1.7,0-3,1.3-3,3S99.9,120,101.5,120z"/>
</g>
</svg>
