<?xml version="1.0" encoding="utf-8"?>
<!-- Generator: Adobe Illustrator 24.2.3, SVG Export Plug-In . SVG Version: 6.00 Build 0)  -->
<svg version="1.1" id="Layer_1" xmlns="http://www.w3.org/2000/svg" xmlns:xlink="http://www.w3.org/1999/xlink" x="0px" y="0px"
	 viewBox="0 0 300 300" style="enable-background:new 0 0 300 300;" xml:space="preserve">
<g>
	<path d="M162.8,104.7c-8.7,0-16.9,3.4-23,9.5c-1.2,1.2-1.2,3.1,0,4.2c1.2,1.2,3.1,1.2,4.2,0c5-5,11.7-7.8,18.8-7.8
		c7.1,0,13.7,2.8,18.8,7.8c0.6,0.6,1.4,0.9,2.1,0.9s1.5-0.3,2.1-0.9c1.2-1.2,1.2-3.1,0-4.2C179.6,108.1,171.5,104.7,162.8,104.7z"/>
	<path d="M162.8,84.9c-28.9,0-52.4,23.5-52.4,52.4c0,6.6,1.2,13,3.5,18.8c2.1,5.3,0.9,11.3-3.2,15.4l-22.2,22.2
		c-4.9,4.9-4.9,12.9,0,17.8c2.4,2.4,5.5,3.7,8.9,3.7s6.5-1.3,8.9-3.7l22.2-22.2l0.6-0.7c3.7-3.3,8.9-4.4,13.6-2.9
		c6.1,2.5,12.9,4,19.9,4c28.9,0,52.4-23.5,52.4-52.4S191.6,84.9,162.8,84.9z M124.3,185l-2.1,2.2l-20.1,20.1
		c-1.2,1.2-2.9,1.9-4.7,1.9c-1.8,0-3.4-0.7-4.7-1.9c-1.2-1.2-1.9-2.9-1.9-4.7c0-1.8,0.7-3.4,1.9-4.7l22.2-22.2c2.4-2.4,4-5.2,5-8.3
		c3.4,4.9,7.7,9.1,12.6,12.6C129.5,180.9,126.7,182.6,124.3,185z M162.8,183.6c-5.8,0-11.4-1.1-16.5-3.1l0,0c-0.5-0.2-1-0.4-1.5-0.5
		c-11.6-4.9-20.8-14.4-25.3-26.1c0,0,0-0.1-0.1-0.1l0,0c-1.9-5.1-3-10.7-3-16.4c0-25.6,20.8-46.4,46.4-46.4s46.4,20.8,46.4,46.4
		S188.3,183.6,162.8,183.6z"/>
</g>
</svg>
