<?xml version="1.0" encoding="utf-8"?>
<!-- Generator: Adobe Illustrator 24.2.3, SVG Export Plug-In . SVG Version: 6.00 Build 0)  -->
<svg version="1.1" id="Layer_1" xmlns="http://www.w3.org/2000/svg" xmlns:xlink="http://www.w3.org/1999/xlink" x="0px" y="0px"
	 viewBox="0 0 300 300" style="enable-background:new 0 0 300 300;" xml:space="preserve">
<g>
	<path d="M204.7,135.5c-2.6-0.9-4.6-2.9-5.7-5.5s-1-5.4,0.2-7.9c2.9-6.1,1.8-13.1-3-17.9c-4.7-4.8-11.7-6-17.8-3.2
		c-2.5,1.2-5.3,1.2-7.9,0.2c-2.6-1.1-4.5-3.1-5.4-5.7c-2.2-6.4-8-10.5-14.8-10.5c0,0-0.1,0-0.1,0c-6.7,0-12.5,4.1-14.8,10.4
		c-0.9,2.6-2.9,4.6-5.5,5.7c-2.6,1.1-5.4,1-7.9-0.2c-6.1-2.9-13.1-1.7-17.9,3c-4.8,4.7-6,11.7-3.2,17.8c1.2,2.5,1.2,5.3,0.2,7.9
		c-1.1,2.6-3.1,4.5-5.7,5.4c-6.4,2.2-10.5,8-10.5,14.8s4,12.6,10.4,14.9c2.6,0.9,4.6,2.9,5.7,5.5c1.1,2.6,1,5.4-0.2,7.9
		c-2.9,6.1-1.7,13.1,3,17.9c4.7,4.8,11.7,6,17.8,3.2c2.5-1.2,5.3-1.2,7.9-0.2c2.6,1.1,4.5,3.1,5.4,5.7c2.2,6.4,8,10.5,14.8,10.5
		c0,0,0.1,0,0.1,0c6.7,0,12.5-4.1,14.8-10.4c0.9-2.6,2.9-4.6,5.5-5.7c2.6-1.1,5.4-1,7.9,0.2c6.1,2.9,13.1,1.8,17.9-3
		c4.8-4.7,6-11.7,3.2-17.8c-1.2-2.5-1.2-5.3-0.2-7.9c1.1-2.6,3.1-4.5,5.7-5.4c6.4-2.2,10.5-8,10.5-14.8
		C215.1,143.6,211,137.8,204.7,135.5z M202.5,159.4c-4.2,1.5-7.6,4.7-9.3,8.7c-1.7,4.1-1.6,8.7,0.3,12.8c2.1,4.6,0.4,8.7-2,11
		c-2.4,2.3-6.5,4-11.1,1.8c-4-1.9-8.6-2.1-12.8-0.4c-4.1,1.7-7.3,5-8.8,9.2c-1.7,4.7-5.8,6.4-9.1,6.4c0,0,0,0,0,0
		c-3.3,0-7.5-1.7-9.1-6.5c-1.5-4.2-4.7-7.6-8.7-9.3c-1.9-0.8-4-1.2-6.1-1.2c-2.3,0-4.6,0.5-6.7,1.5c-4.6,2.1-8.7,0.4-11-2
		s-4-6.5-1.8-11.1c1.9-4,2.1-8.6,0.4-12.8c-1.7-4.1-5-7.3-9.2-8.8c-4.8-1.7-6.4-5.9-6.4-9.2c0-3.3,1.7-7.5,6.5-9.1
		c4.2-1.5,7.6-4.7,9.3-8.7c1.7-4.1,1.6-8.7-0.3-12.8c-2.1-4.6-0.4-8.7,2-11c2.4-2.3,6.5-4,11.1-1.8c4,1.9,8.6,2.1,12.8,0.4
		s7.3-5,8.8-9.2c1.7-4.7,5.8-6.4,9.1-6.4c0,0,0,0,0,0c3.3,0,7.5,1.7,9.1,6.5c1.5,4.2,4.7,7.6,8.7,9.3s8.7,1.6,12.8-0.3
		c4.6-2.1,8.7-0.4,11,2c2.3,2.4,4,6.5,1.8,11.1c-1.9,4-2.1,8.6-0.4,12.8c1.7,4.1,5,7.3,9.2,8.8c4.8,1.7,6.4,5.9,6.4,9.2
		C209,153.6,207.3,157.8,202.5,159.4z"/>
	<path d="M150,124.7c-14,0-25.3,11.4-25.3,25.3c0,14,11.4,25.3,25.3,25.3c14,0,25.3-11.4,25.3-25.3C175.3,136,164,124.7,150,124.7z
		 M150,169.3c-10.7,0-19.3-8.7-19.3-19.3c0-10.7,8.7-19.3,19.3-19.3c10.7,0,19.3,8.7,19.3,19.3C169.3,160.7,160.7,169.3,150,169.3z"
		/>
</g>
</svg>
