<?xml version="1.0" encoding="utf-8"?>
<!-- Generator: Adobe Illustrator 24.2.3, SVG Export Plug-In . SVG Version: 6.00 Build 0)  -->
<svg version="1.1" id="Layer_1" xmlns="http://www.w3.org/2000/svg" xmlns:xlink="http://www.w3.org/1999/xlink" x="0px" y="0px"
	 viewBox="0 0 300 300" style="enable-background:new 0 0 300 300;" xml:space="preserve">
<path d="M238.4,139.7L212,110.2c-0.1-0.2-0.3-0.3-0.5-0.4c-3.6-3.5-8.3-5.4-13.3-5.5c0,0,0,0,0,0c0,0,0,0,0,0h-9.4
	c-1.6,0-3-0.6-4.1-1.8c-1-1.1-1.6-2.5-1.5-4.1l0-0.2c0.5-3.3-0.4-6.7-2.6-9.3c-2.2-2.6-5.4-4.1-8.8-4.1H98.9
	c-6.8,0-12.5,4.9-13.5,11.5L83.3,109H64.5c-1.7,0-3,1.3-3,3s1.3,3,3,3h17.7l-2.4,13.8H69.4c-1.7,0-3,1.3-3,3s1.3,3,3,3h9.4
	l-2.4,13.8H58c-1.7,0-3,1.3-3,3s1.3,3,3,3h17.4l-1.8,10.6c-0.5,3.3,0.4,6.7,2.6,9.3c2.2,2.6,5.4,4.1,8.8,4.1h22
	c-4,3.9-6.5,9.3-6.5,15.3c0,11.7,9.5,21.3,21.3,21.3s21.3-9.5,21.3-21.3c0-6-2.5-11.4-6.5-15.3h16.7h4.6H176
	c-4,3.9-6.5,9.3-6.5,15.3c0,11.7,9.5,21.3,21.3,21.3c11.7,0,21.3-9.5,21.3-21.3c0-6-2.5-11.4-6.5-15.3h16.7c0.1,0,0.3,0,0.4,0
	c5.9-0.1,11.5-2.4,15.7-6.6c4.3-4.3,6.6-10,6.6-16.1C245,149.6,242.7,143.9,238.4,139.7z M137,193.7c0,8.4-6.9,15.3-15.3,15.3
	s-15.3-6.9-15.3-15.3c0-8.4,6.9-15.3,15.3-15.3S137,185.3,137,193.7z M153.2,172.4H84.9c-1.6,0-3.2-0.7-4.2-2
	c-1.1-1.2-1.5-2.9-1.3-4.4l2-11.6h13.3c1.7,0,3-1.3,3-3s-1.3-3-3-3H82.5l2.4-13.8h21.3c1.7,0,3-1.3,3-3s-1.3-3-3-3H85.9l2.4-13.8h13
	c1.7,0,3-1.3,3-3s-1.3-3-3-3h-12l2-11.5c0.6-3.8,3.8-6.5,7.6-6.5h72.9c1.6,0,3.2,0.7,4.2,2c1.1,1.2,1.5,2.9,1.3,4.6l-11.9,68.4
	c-0.6,3.8-3.8,6.5-7.6,6.5H153.2z M206.1,193.7c0,8.4-6.9,15.3-15.3,15.3c-8.4,0-15.3-6.9-15.3-15.3c0-8.4,6.9-15.3,15.3-15.3
	C199.3,178.4,206.1,185.3,206.1,193.7z M234.1,167.5c-3.1,3.1-7.4,4.9-11.8,4.9c-0.1,0-0.3,0-0.4,0h-52.8c1.1-1.6,1.9-3.5,2.2-5.5
	l10.3-59.1c2,1.6,4.5,2.5,7.2,2.5h9.4c0,0,0,0,0,0c3.5,0,6.8,1.4,9.3,3.9c0,0,0.1,0.1,0.1,0.1l26.4,29.4c0,0,0.1,0.1,0.1,0.1
	c3.1,3.1,4.9,7.4,4.9,11.8C239,160.2,237.3,164.4,234.1,167.5z"/>
</svg>
