<?xml version="1.0" encoding="utf-8"?>
<!-- Generator: Adobe Illustrator 24.2.3, SVG Export Plug-In . SVG Version: 6.00 Build 0)  -->
<svg version="1.1" id="Layer_1" xmlns="http://www.w3.org/2000/svg" xmlns:xlink="http://www.w3.org/1999/xlink" x="0px" y="0px"
	 viewBox="0 0 300 300" style="enable-background:new 0 0 300 300;" xml:space="preserve">
<path d="M220.5,105.2c0-0.1,0-0.1,0-0.2c0-0.1-0.1-0.2-0.1-0.3c0-0.1,0-0.1-0.1-0.2c-0.1-0.1-0.1-0.2-0.2-0.3c0,0,0-0.1-0.1-0.1
	c-0.1-0.1-0.2-0.3-0.3-0.4c0,0,0,0-0.1-0.1c-0.1-0.1-0.2-0.2-0.3-0.3c-0.1,0-0.1-0.1-0.2-0.1c-0.1-0.1-0.2-0.1-0.3-0.2
	c-0.1,0-0.1-0.1-0.2-0.1c0,0-0.1,0-0.1,0l-54.2-18.6c-1.5-0.5-3.1-0.5-4.6,0l-54.2,19.6c0,0-0.1,0-0.1,0c-0.1,0-0.1,0.1-0.2,0.1
	c-0.1,0-0.2,0.1-0.3,0.2c-0.1,0-0.1,0.1-0.2,0.1c-0.1,0.1-0.2,0.2-0.3,0.2c0,0-0.1,0.1-0.1,0.1c-0.1,0.1-0.2,0.3-0.3,0.4
	c0,0,0,0.1-0.1,0.1c-0.1,0.1-0.1,0.2-0.2,0.3c0,0.1,0,0.1-0.1,0.2c0,0.1-0.1,0.2-0.1,0.4c0,0.1,0,0.1,0,0.2c0,0.2-0.1,0.4-0.1,0.5v1
	v23.5h-21c-1.7,0-3,1.3-3,3s1.3,3,3,3h21V151H85.3c-1.7,0-3,1.3-3,3s1.3,3,3,3h18.1v13.8H83.9c-1.7,0-3,1.3-3,3s1.3,3,3,3h19.6v13.7
	c0,2.9,1.9,5.6,4.6,6.6l51.4,18.6c0.8,0.3,1.6,0.4,2.4,0.4c1,0,1.9-0.2,2.8-0.6l51.7-22.5c2.6-1.1,4.2-3.6,4.2-6.4v-79.9v-1
	C220.5,105.5,220.5,105.3,220.5,105.2z M161.7,89.9c0.2-0.1,0.4-0.1,0.7,0l47.6,16.3l-47.5,17.1c-0.2,0.1-0.5,0.1-0.8,0l-47.5-16.2
	L161.7,89.9z M109.5,190.5v-13.7h8.2c1.7,0,3-1.3,3-3s-1.3-3-3-3h-8.2V157h14.6c1.7,0,3-1.3,3-3s-1.3-3-3-3h-14.6v-13.8h6.8
	c1.7,0,3-1.3,3-3s-1.3-3-3-3h-6.8v-19.3l49.5,16.9v80.4l-48.9-17.7C109.7,191.3,109.5,190.9,109.5,190.5z M213.9,187.5L165,208.8
	v-80.1l49.5-17.8v75.6C214.5,187,214.3,187.4,213.9,187.5z"/>
</svg>
