<?xml version="1.0" encoding="utf-8"?>
<!-- Generator: Adobe Illustrator 24.2.3, SVG Export Plug-In . SVG Version: 6.00 Build 0)  -->
<svg version="1.1" id="Layer_1" xmlns="http://www.w3.org/2000/svg" xmlns:xlink="http://www.w3.org/1999/xlink" x="0px" y="0px"
	 viewBox="0 0 300 300" style="enable-background:new 0 0 300 300;" xml:space="preserve">
<g>
	<path d="M211.6,188.2c-25.9-2.8-49.4-14.1-67.9-32.6c-18.5-18.5-29.7-42-32.6-67.9c-0.1-0.8-0.5-1.5-1.1-2
		c-0.6-0.5-1.4-0.7-2.2-0.6c-0.7,0.1-1.3,0.4-1.7,0.9c-14.3,14.3-22.2,33.4-22.2,53.7c0,20.3,7.9,39.4,22.2,53.7
		c14.3,14.3,33.4,22.2,53.7,22.2c20.3,0,39.4-7.9,53.7-22.2c0.5-0.5,0.8-1.2,0.9-1.8C214.4,189.8,213.2,188.3,211.6,188.2z
		 M159.7,209.6c-18.7,0-36.2-7.3-49.5-20.5s-20.5-30.8-20.5-49.5c0-16.6,5.7-32.3,16.3-44.8c4,24.5,15.8,47.4,33.4,65.1
		c17.7,17.7,40.6,29.4,65.2,33.4C192,203.8,176.3,209.6,159.7,209.6z"/>
	<path d="M216,107.2c-0.6-1.8-2.1-3.1-4-3.4l-15.8-2.3l-7.1-14.3c-0.8-1.7-2.5-2.7-4.4-2.7h0c-1.9,0-3.6,1.1-4.4,2.7l-7.1,14.3
		l-15.8,2.3c-1.9,0.3-3.4,1.6-4,3.4c-0.6,1.8-0.1,3.7,1.2,5l11.5,11.2l-2.7,15.8c-0.3,1.9,0.4,3.7,2,4.8c0.9,0.6,1.9,0.9,2.9,0.9
		c0.8,0,1.6-0.2,2.3-0.6l14.2-7.4l14.2,7.4c1.7,0.9,3.7,0.7,5.2-0.4c1.5-1.1,2.3-3,2-4.8l-2.7-15.8l11.5-11.2
		C216.1,110.9,216.6,109,216,107.2z M198.7,119.5c-1.2,1.1-1.7,2.8-1.4,4.4l2.4,14.2l-12.7-6.7c-1.4-0.8-3.1-0.8-4.6,0l-12.7,6.7
		l2.4-14.2c0.3-1.6-0.3-3.2-1.4-4.4l-10.3-10l14.2-2.1c1.6-0.2,3-1.2,3.7-2.7l6.4-12.9l6.4,12.9c0.7,1.5,2.1,2.5,3.7,2.7l14.2,2.1
		L198.7,119.5z"/>
</g>
</svg>
