<?xml version="1.0" encoding="utf-8"?>
<!-- Generator: Adobe Illustrator 24.2.3, SVG Export Plug-In . SVG Version: 6.00 Build 0)  -->
<svg version="1.1" id="Layer_1" xmlns="http://www.w3.org/2000/svg" xmlns:xlink="http://www.w3.org/1999/xlink" x="0px" y="0px"
	 viewBox="0 0 300 300" style="enable-background:new 0 0 300 300;" xml:space="preserve">
<g>
	<path d="M152.9,162V87c0-1.7-1.3-3-3-3s-3,1.3-3,3v75c-8.1,1.4-14.3,8.5-14.3,17s6.2,15.6,14.3,17v17c0,1.7,1.3,3,3,3s3-1.3,3-3
		v-17c8.1-1.4,14.2-8.5,14.2-17S161,163.5,152.9,162z M149.8,190.3c-6.2,0-11.3-5.1-11.3-11.3s5.1-11.3,11.3-11.3
		s11.3,5.1,11.3,11.3S156.1,190.3,149.8,190.3z"/>
	<path d="M100.1,129V87c0-1.7-1.3-3-3-3s-3,1.3-3,3v42c-8.1,1.4-14.3,8.5-14.3,17c0,8.5,6.2,15.6,14.3,17v50c0,1.7,1.3,3,3,3
		s3-1.3,3-3v-50c8.1-1.4,14.3-8.5,14.3-17C114.3,137.5,108.2,130.4,100.1,129z M97.1,157.3c-6.2,0-11.3-5.1-11.3-11.3
		c0-6.2,5.1-11.3,11.3-11.3s11.3,5.1,11.3,11.3C108.3,152.2,103.3,157.3,97.1,157.3z"/>
	<path d="M220.2,125.4c0-8.5-6.2-15.6-14.3-17V87c0-1.7-1.3-3-3-3s-3,1.3-3,3v21.4c-8.1,1.4-14.3,8.5-14.3,17s6.2,15.6,14.3,17V213
		c0,1.7,1.3,3,3,3s3-1.3,3-3v-70.6C214,141,220.2,133.9,220.2,125.4z M202.9,136.7c-6.2,0-11.3-5.1-11.3-11.3s5.1-11.3,11.3-11.3
		s11.3,5.1,11.3,11.3S209.2,136.7,202.9,136.7z"/>
</g>
</svg>
