<?xml version="1.0" encoding="utf-8"?>
<!-- Generator: Adobe Illustrator 24.2.3, SVG Export Plug-In . SVG Version: 6.00 Build 0)  -->
<svg version="1.1" id="Layer_1" xmlns="http://www.w3.org/2000/svg" xmlns:xlink="http://www.w3.org/1999/xlink" x="0px" y="0px"
	 viewBox="0 0 300 300" style="enable-background:new 0 0 300 300;" xml:space="preserve">
<path d="M171.3,121.4c-0.1,0-0.1-0.1-0.2-0.1l-13.3-5.4c4.5-2.4,7.5-7,8-12.1c0-0.4,0-0.7,0-1.1c0-0.2,0-2.1,0-2.3
	c-0.1-2.2-0.6-4.4-1.5-6.4c-2.6-5.5-7.8-9.2-13.8-9.6c0,0-0.1,0-0.1,0c0,0,0,0,0,0l-0.4,0c0,0-0.1,0-0.1,0h-0.4c0,0,0,0,0,0
	c0,0-0.1,0-0.1,0c-5.9,0.4-11.2,4.1-13.8,9.6c-0.9,2-1.5,4.2-1.5,6.4c0,0.2,0,2.1,0,2.3c0,0.4,0,0.7,0.1,1.1c0.4,5.1,3.4,9.7,8,12.1
	l-13.3,5.4c-0.1,0-0.1,0.1-0.2,0.1c-4.9,2.5-8.1,7.7-8.1,13.3v24.7c0,0.2,0,0.5,0.1,0.7c0.6,4.3,4.3,7.6,8.7,7.6
	c1.1,0,2.1-0.2,3.1-0.6l1.4,38.9c0,0,0,0,0,0c0.1,5.2,4.4,9.5,9.6,9.5c2.6,0,4.9-1,6.6-2.7c1.7,1.6,4.1,2.7,6.6,2.7
	c4.6,0,8.4-3.2,9.4-7.5c0.1-0.3,0.2-0.6,0.2-0.9l0-0.5c0-0.2,0-0.5,0-0.7c0,0,0-0.1,0-0.1l1.4-38.7c1,0.4,2,0.6,3.1,0.6
	c4.5,0,8.1-3.4,8.7-7.7c0-0.1,0-0.1,0-0.2c0,0,0,0,0,0c0-0.1,0-0.3,0-0.4v-24.7C179.5,129.1,176.3,123.9,171.3,121.4z M145.5,111
	c-3.1-1.4-5.1-4.3-5.4-7.6c0-0.2,0-0.4,0-0.7c0-0.2,0-1.8,0-2c0.1-1.4,0.4-2.8,1-4.1c1.6-3.5,4.9-5.9,8.6-6.1l0.2,0c0,0,0.1,0,0.1,0
	h0.3c3.7,0.3,7,2.6,8.6,6.1c0.6,1.3,0.9,2.7,1,4.1c0,0.3,0,1.8,0,2c0,0.2,0,0.4,0,0.7c-0.3,3.3-2.3,6.2-5.4,7.6l-4.5,1.8L145.5,111z
	 M170.7,161.8c-1.5,0-2.8-1.2-2.8-2.8c0,0,0,0,0-0.1l0.7-20.2c0.1-1.7-1.2-3-2.9-3.1c-1.6-0.1-3,1.2-3.1,2.9l-2.4,67.7
	c-0.1,1.9-1.7,3.4-3.6,3.4c-2,0-3.6-1.6-3.6-3.6v-43.4c0-1.7-1.3-3-3-3c-1.7,0-3,1.3-3,3V206c0,2-1.6,3.6-3.6,3.6
	c-2,0-3.6-1.6-3.6-3.6c0,0,0,0,0-0.1c0,0,0,0,0-0.1l-2.4-67.4c-0.1-1.7-1.5-3-3.1-2.9c-1.7,0.1-3,1.4-2.9,3.1l0.7,20.2
	c0,0,0,0,0,0.1c0,1.5-1.3,2.8-2.8,2.8c-1.5,0-2.8-1.3-2.8-2.8v-24.3c0-3.3,1.8-6.4,4.7-7.9l18.8-7.6l18.8,7.6
	c2.9,1.5,4.7,4.5,4.7,7.9V159C173.5,160.5,172.2,161.8,170.7,161.8z"/>
</svg>
