<?xml version="1.0" encoding="utf-8"?>
<!-- Generator: Adobe Illustrator 24.2.3, SVG Export Plug-In . SVG Version: 6.00 Build 0)  -->
<svg version="1.1" id="Layer_1" xmlns="http://www.w3.org/2000/svg" xmlns:xlink="http://www.w3.org/1999/xlink" x="0px" y="0px"
	 viewBox="0 0 300 300" style="enable-background:new 0 0 300 300;" xml:space="preserve">
<path d="M187.1,215.7c-1.4,0-2.8-0.3-4-1L151.2,198c-0.8-0.4-1.7-0.4-2.5,0l-31.9,16.7c-2.9,1.5-6.4,1.3-9.1-0.7
	c-2.7-1.9-4-5.2-3.4-8.5l6.1-35.5c0.1-0.9-0.1-1.7-0.8-2.3l-25.8-25.1c-2.4-2.3-3.2-5.7-2.2-8.9c1-3.2,3.7-5.4,7-5.9l35.6-5.2
	c0.9-0.1,1.6-0.7,2-1.4l15.9-32.3c1.5-3,4.4-4.8,7.8-4.8s6.3,1.8,7.8,4.8l15.9,32.3c0.4,0.8,1.1,1.3,2,1.4l35.6,5.2
	c3.3,0.5,6,2.7,7,5.9s0.2,6.5-2.2,8.9l-25.8,25.1c-0.6,0.6-0.9,1.5-0.8,2.3l6.1,35.5c0.6,3.3-0.8,6.5-3.4,8.5
	C190.7,215.2,188.9,215.7,187.1,215.7z M150,191.7c1.4,0,2.8,0.3,4,1l31.9,16.7c1.3,0.7,2.4,0.1,2.8-0.2c0.4-0.3,1.3-1.1,1.1-2.6
	l-6.1-35.5c-0.5-2.8,0.4-5.7,2.5-7.7l25.8-25.1c1.1-1,0.8-2.2,0.7-2.7c-0.2-0.5-0.7-1.6-2.1-1.8l-35.6-5.2c-2.8-0.4-5.2-2.2-6.5-4.7
	l-15.9-32.3l0,0c-0.7-1.3-1.9-1.5-2.4-1.5s-1.7,0.1-2.4,1.5L131.7,124c-1.3,2.6-3.7,4.3-6.5,4.7l-35.6,5.2c-1.5,0.2-2,1.3-2.1,1.8
	c-0.2,0.5-0.4,1.7,0.7,2.7l25.8,25.1c2,2,3,4.8,2.5,7.7l-6.1,35.5c-0.3,1.5,0.7,2.3,1.1,2.6c0.4,0.3,1.5,0.9,2.8,0.2l31.9-16.7
	C147.2,192,148.6,191.7,150,191.7z"/>
</svg>
