<?xml version="1.0" encoding="utf-8"?>
<!-- Generator: Adobe Illustrator 24.2.3, SVG Export Plug-In . SVG Version: 6.00 Build 0)  -->
<svg version="1.1" id="Layer_1" xmlns="http://www.w3.org/2000/svg" xmlns:xlink="http://www.w3.org/1999/xlink" x="0px" y="0px"
	 viewBox="0 0 300 300" style="enable-background:new 0 0 300 300;" xml:space="preserve">
<g>
	<path d="M165.2,113.6c8,0,14.6-6.5,14.6-14.6s-6.5-14.6-14.6-14.6S150.6,91,150.6,99S157.2,113.6,165.2,113.6z M165.2,90.4
		c4.7,0,8.6,3.9,8.6,8.6s-3.9,8.6-8.6,8.6c-4.7,0-8.6-3.9-8.6-8.6S160.5,90.4,165.2,90.4z"/>
	<path d="M195.7,147.7L165,120.9c0,0,0,0,0,0c-1.9-1.7-4.2-2.6-6.8-2.6c-2.8,0-5.5,1.2-7.4,3.3l-36.5-26.4c-1.3-1-3.2-0.7-4.2,0.7
		c-1,1.3-0.7,3.2,0.7,4.2l36.9,26.7l-10.1,19.4l0,0c-0.2,0.3-0.4,0.7-0.5,1l-33.5,64.1c-0.8,1.5-0.2,3.3,1.3,4
		c0.4,0.2,0.9,0.3,1.4,0.3c1.1,0,2.1-0.6,2.7-1.6l27.8-53.3c1.2,3,3.3,5.6,6.1,7.5c0,0,0,0,0,0l13.3,9.4c0.1,0.1,0.2,0.1,0.3,0.2
		c2.4,1.3,4.1,3.7,4.5,6.3l3.7,28.3c0.2,1.5,1.5,2.6,3,2.6c0.1,0,0.3,0,0.4,0c1.6-0.2,2.8-1.7,2.6-3.4l-3.7-28.4
		c-0.7-4.5-3.4-8.4-7.4-10.6l-13.2-9.3c0,0,0,0,0,0l0,0c-3-2-4.8-5.4-4.8-9c0-1.7,0.4-3.4,1.2-4.9l11.3-21.7c0,0,0,0,0,0
		c0.2-0.2,0.3-0.5,0.4-0.7l0,0c0.6-1.6,2.1-2.6,3.8-2.6c1,0,2,0.4,2.8,1.1l0,0c0,0,0,0.1,0.1,0.1l30.7,26.9c0.6,0.5,1.3,0.7,2,0.7
		c0.8,0,1.7-0.3,2.3-1C197.1,150.7,197,148.8,195.7,147.7z"/>
</g>
</svg>
