<?xml version="1.0" encoding="utf-8"?>
<!-- Generator: Adobe Illustrator 24.2.3, SVG Export Plug-In . SVG Version: 6.00 Build 0)  -->
<svg version="1.1" id="Layer_1" xmlns="http://www.w3.org/2000/svg" xmlns:xlink="http://www.w3.org/1999/xlink" x="0px" y="0px"
	 viewBox="0 0 300 300" style="enable-background:new 0 0 300 300;" xml:space="preserve">
<path d="M205,114c-1.1-10.4-8.3-23.6-19.5-27.8c-4.1-1.5-13-3.3-26.4,1.9c-1.8,0.8-3,1.3-4.2,2c-1.7,1-2.5,1.3-4.9,1.3
	c-2.1,0-3-0.4-4.8-1.3l-0.3-0.1c-0.4-0.2-0.8-0.4-1.3-0.6c-0.8-0.4-1.6-0.8-2.8-1.3c-12.7-4.9-21.3-3.7-26.3-1.9
	C103.4,90.4,96.3,103.4,95,114c-1.4,12.3,3.4,22.5,7.6,31.5l0.4,0.9c2.3,4.9,4.4,9.6,5.4,14.3l0,0.1c0.5,2.1,1,4.4,1.4,6.6l0.3,1.6
	c2.1,10.9,4.3,22.1,10.9,32.5c5.8,9.4,11.3,13.9,16.7,13.9h0.3c2.1,0,5.2-0.6,7.7-3.7c3.6-4.6,2.7-11.1,1.7-17.9l-0.1-0.9
	c-0.3-1.6-0.6-3.7-0.8-5.6c-1-10,0.9-17.3,3.1-19.9c0.1-0.2,0.4-0.5,0.6-0.5s0.5,0.3,0.6,0.5c2.1,2.5,3.9,10.1,3,19.8
	c-0.2,1.6-0.5,3.6-0.8,5.6c-1.1,6.8-2.3,13.8,1.6,18.8c2.5,3,5.5,3.7,7.7,3.7c0,0,0,0,0,0c3.5,0,9.1-1.5,16.9-13.9
	c6.5-10.4,8.7-21.7,10.9-32.5l0.3-1.6c0.4-2.2,0.8-4.5,1.4-6.6l0-0.1c1-4.8,3.1-9.5,5.8-15.1l0.6-1.5
	C202.1,135.5,206.3,125.7,205,114z M192.8,141.7l-0.6,1.3c-2.5,5.1-5,10.6-6.2,16.3c-0.6,2.3-1,4.6-1.4,6.9l-0.3,1.6
	c-2,10.3-4.1,21-10.1,30.5c-3.2,5.1-7.8,11.1-11.9,11.1c0,0,0,0,0,0c-1.3,0-2.2-0.5-3-1.4c-2.1-2.7-1.5-7.5-0.4-14.2
	c0.3-2,0.7-4.2,0.8-6c0.9-10.6-0.9-20.1-4.4-24.2c-1.4-1.7-3.2-2.6-5.2-2.6c-2,0-3.8,0.9-5.2,2.6c-3.8,4.4-5.5,13.8-4.5,24.3
	c0.2,2.1,0.5,4.3,0.8,6l0.1,0.8c0.8,5.8,1.5,10.7-0.4,13.3c-0.8,1-1.8,1.5-3,1.5h-0.3c-3,0-7.2-4-11.6-11.1
	c-5.9-9.5-8-20.2-10.1-30.5l-0.3-1.6c-0.4-2.3-0.9-4.6-1.4-6.9c-1.1-5.3-3.5-10.5-5.8-15.4l-0.4-0.9c-4.1-8.7-8.3-17.8-7-28.3
	c1-8.6,6.8-19.5,15.6-22.9c3.3-1.2,10.5-2.6,22,1.8c0.9,0.4,1.6,0.7,2.3,1.1c0.5,0.3,1,0.5,1.5,0.7l0.2,0.1c0.3,0.2,0.7,0.3,1,0.5
	c-7.2,3.1-15.8,5.7-21.9,4.2c-1.6-0.4-3.2,0.6-3.6,2.2c-0.4,1.6,0.6,3.2,2.2,3.6c1.7,0.4,3.6,0.6,5.5,0.6c14,0,31-10.6,32.2-11.4
	c1-0.6,1.9-1,3.4-1.6c11.5-4.5,18.8-3.1,22.1-1.9c8.6,3.2,14.7,14.1,15.6,22.8l0,0C200.1,124.8,196.4,133.4,192.8,141.7z"/>
</svg>
