<?xml version="1.0" encoding="utf-8"?>
<!-- Generator: Adobe Illustrator 24.2.3, SVG Export Plug-In . SVG Version: 6.00 Build 0)  -->
<svg version="1.1" id="Layer_1" xmlns="http://www.w3.org/2000/svg" xmlns:xlink="http://www.w3.org/1999/xlink" x="0px" y="0px"
	 viewBox="0 0 300 300" style="enable-background:new 0 0 300 300;" xml:space="preserve">
<path d="M194.9,102.3L194.9,102.3c-2.9,0-5.3-2.4-5.3-5.3v-1.5c0-6.2-5.1-11.3-11.3-11.3h-16.1h-12.9c-6.2,0-11.3,5.1-11.3,11.3V97
	c0,2.9-2.4,5.3-5.3,5.3v0c-5.9,0.3-10.7,5.2-10.7,11.2v1.5v5.8c0,1.9,0.5,3.7,1.3,5.3h-3.7H112c-4.4,0-8,3.6-8,8v0.9
	c0,1.1-0.9,2-2,2v0c-4.2,0.2-7.6,3.7-7.6,8v0.9v3.5c0,3,1.7,5.7,4.2,7c0.6,0.4,0.9,1,0.9,1.7l2.2,41.8c0,4.4,3.6,7.9,8,7.9h22.8
	c0.2,0,0.4,0,0.6-0.1c1.4,4.6,5.7,8,10.8,8h39.6c6.2,0,11.3-5.1,11.3-11.2l2.1-69.3c0-1.8,1-3.5,2.5-4.5c3.6-1.9,6.1-5.7,6.1-10
	v-7.3C205.6,107.6,200.8,102.7,194.9,102.3z M128.2,113.6c0-2.9,2.4-5.3,5.3-5.3h31.7c1.7,0,3-1.3,3-3s-1.3-3-3-3h-22.4
	c0.8-1.6,1.3-3.4,1.3-5.3v-1.5c0-2.9,2.4-5.3,5.3-5.3h12.9h16.1c2.9,0,5.3,2.4,5.3,5.3V97c0,5.8,4.4,10.6,10,11.2
	c0.2,0,0.4,0.1,0.7,0.1c2.9,0,5.3,2.4,5.3,5.3v7.3c0,2.9-2.4,5.3-5.3,5.3h-60.8c-2.9,0-5.3-2.4-5.3-5.3v-5.8V113.6z M100.4,145
	c0-1.1,0.9-2,2-2c0.1,0,0.3,0,0.4,0c0,0,0.1,0,0.1,0c0,0,0.1,0,0.1,0c3.9-0.5,7-3.9,7-7.9v-0.9c0-1.1,0.9-2,2-2h7.8h9.9
	c0.7,0.9,1.1,2.1,1.1,3.3l0.5,16h-28.9c-0.3,0-0.5-0.1-0.8-0.2c0,0,0,0,0,0c0,0,0,0-0.1,0c-0.7-0.3-1.1-1-1.1-1.8V146V145z
	 M189,204.5c0,2.9-2.4,5.3-5.3,5.3h-39.6c-2.9,0-5.3-2.4-5.3-5.3l-0.3-20.3c0-1.7-1.4-3-3-3c-1.7,0-3,1.4-3,3l0.2,17.6
	c0,0-0.1,0-0.1,0h-22.8c-1.1,0-2-0.9-2-2l-0.7-12.7c0-0.1,0-0.1,0-0.1c0-6.4,5.2-11.5,11.5-11.5h42.7l-5.7,5.7
	c-1.2,1.2-1.2,3.1,0,4.2c0.6,0.6,1.4,0.9,2.1,0.9s1.5-0.3,2.1-0.9l10.8-10.8c0.6-0.6,0.9-1.3,0.9-2.1s-0.3-1.6-0.9-2.1L160,159.5
	c-1.2-1.2-3.1-1.2-4.2,0c-1.2,1.2-1.2,3.1,0,4.2l5.7,5.7h-42.7c-4.8,0-9.1,1.9-12.2,5l-0.9-16.4c0-0.2,0-0.4,0-0.6h25.9l0.1,3.3
	c0.1,1.6,1.4,2.9,3,2.9c0,0,0.1,0,0.1,0c1.7-0.1,3-1.4,2.9-3.1l-0.8-25.2c0-1.1-0.2-2.2-0.5-3.2h55.2c-0.3,1-0.5,2-0.5,3.1
	L189,204.5z"/>
</svg>
