<?xml version="1.0" encoding="utf-8"?>
<!-- Generator: Adobe Illustrator 24.2.3, SVG Export Plug-In . SVG Version: 6.00 Build 0)  -->
<svg version="1.1" id="Layer_1" xmlns="http://www.w3.org/2000/svg" xmlns:xlink="http://www.w3.org/1999/xlink" x="0px" y="0px"
	 viewBox="0 0 300 300" style="enable-background:new 0 0 300 300;" xml:space="preserve">
<path d="M123.8,209.3c53.2,0,82.3-44.1,82.3-82.3c0-1.3,0-2.5-0.1-3.7c5.7-4.1,10.5-9.2,14.4-15c-5.3,2.3-10.9,3.9-16.6,4.6
	c6-3.6,10.6-9.3,12.7-16c-5.7,3.4-11.9,5.7-18.4,7c-11-11.6-29.3-12.2-40.9-1.3c-7.5,7.1-10.7,17.6-8.4,27.6
	c-23.3-1.2-44.9-12.2-59.6-30.2c-7.7,13.2-3.8,30.1,9,38.6c-4.6-0.1-9.1-1.4-13.1-3.6c0,0.1,0,0.2,0,0.4c0,13.8,9.7,25.6,23.2,28.4
	c-4.3,1.2-8.7,1.3-13.1,0.5c3.8,11.8,14.7,19.9,27,20.1c-10.2,8.1-22.9,12.4-35.9,12.4c-2.3,0-4.6-0.1-6.9-0.4
	C92.7,204.8,108.1,209.3,123.8,209.3"/>
</svg>
