<?xml version="1.0" encoding="utf-8"?>
<!-- Generator: Adobe Illustrator 24.2.3, SVG Export Plug-In . SVG Version: 6.00 Build 0)  -->
<svg version="1.1" id="Layer_1" xmlns="http://www.w3.org/2000/svg" xmlns:xlink="http://www.w3.org/1999/xlink" x="0px" y="0px"
	 viewBox="0 0 300 300" style="enable-background:new 0 0 300 300;" xml:space="preserve">
<g>
	<path d="M212.4,101.2l-13.6-13.6c-1.9-1.9-4.6-2.9-7.4-2.7c-2.7,0.2-5.3,1.3-7.3,3.3l-15.2,15.2l0,0c0,0,0,0,0,0
		c-1.2,1.2-3.2,1.3-4.6,0.3c-0.1-0.1-0.2-0.2-0.3-0.2c0,0-0.1-0.1-0.1-0.1c-0.3-0.3-0.6-0.5-0.9-0.6c-4.2-2.6-9.9-2.1-13.5,1.6
		l-59,59c-3.6,3.6-5.6,8.4-5.6,13.4s2,9.8,5.6,13.4l19.3,19.3h0c3.6,3.6,8.4,5.6,13.4,5.6c5.1,0,9.8-2,13.4-5.6l59-59
		c3.7-3.7,4.2-9.3,1.6-13.5c-0.1-0.3-0.3-0.6-0.6-0.9c0,0,0-0.1-0.1-0.1c-0.1-0.1-0.2-0.3-0.3-0.4c-1-1.4-0.8-3.3,0.4-4.5l0,0
		l15.2-15.2c2-2,3.2-4.6,3.3-7.3C215.3,105.8,214.3,103.2,212.4,101.2z M191.3,146.4l-59,59c-2.5,2.5-5.7,3.8-9.2,3.8
		c-3.5,0-6.7-1.4-9.2-3.8L94.6,186c-2.5-2.5-3.8-5.7-3.8-9.2s1.4-6.7,3.8-9.2l59-59c1-1,2.3-1.5,3.5-1.5c1.1,0,2.2,0.4,3,1.1
		c0,0,0.1,0.1,0.1,0.1c0.1,0.1,0.2,0.2,0.3,0.3l30.6,30.6c0.1,0.1,0.2,0.2,0.3,0.3c0,0,0.1,0.1,0.1,0.1
		C193.3,141.7,193.2,144.6,191.3,146.4z M207.5,111.7L192.3,127l0,0c0,0,0,0,0,0c-0.9,0.9-1.5,1.8-2,2.9l-20.2-20.2
		c1.1-0.5,2-1.1,2.9-2l0,0l15.2-15.2c1-1,2.2-1.5,3.4-1.6c1.1-0.1,2.1,0.3,2.8,1l13.6,13.6c0.7,0.7,1.1,1.7,1,2.8
		C209.1,109.6,208.5,110.8,207.5,111.7z"/>
	<path d="M194.6,108.3l-4.5,4.5c-1.2,1.2-1.2,3.1,0,4.2c0.6,0.6,1.4,0.9,2.1,0.9s1.5-0.3,2.1-0.9l4.5-4.5c1.2-1.2,1.2-3.1,0-4.2
		C197.7,107.1,195.8,107.1,194.6,108.3z"/>
	<path d="M191.7,101.2c-1.2-1.2-3.1-1.2-4.2,0l-4.5,4.5c-1.2,1.2-1.2,3.1,0,4.2c0.6,0.6,1.4,0.9,2.1,0.9s1.5-0.3,2.1-0.9l4.5-4.5
		C192.9,104.2,192.9,102.3,191.7,101.2z"/>
</g>
</svg>
