<?xml version="1.0" encoding="utf-8"?>
<!-- Generator: Adobe Illustrator 24.2.3, SVG Export Plug-In . SVG Version: 6.00 Build 0)  -->
<svg version="1.1" id="Layer_1" xmlns="http://www.w3.org/2000/svg" xmlns:xlink="http://www.w3.org/1999/xlink" x="0px" y="0px"
	 viewBox="0 0 300 300" style="enable-background:new 0 0 300 300;" xml:space="preserve">
<g>
	<path d="M200,134.3v-10.2c0-12.5-10-22.6-22.4-23v0c-2.8,0-5.1-2.3-5.1-5.1c0-6.8-5.5-12.2-12.2-12.2h-25.8
		c-6.8,0-12.2,5.5-12.2,12.2c0,2.8-2.3,5.1-5.1,5.1v0c-12.4,0.3-22.4,10.5-22.4,23v51.8c0,12.5,10,22.6,22.4,23v0
		c2.8,0,5.1,2.3,5.1,5.1c0,6.8,5.5,12.2,12.2,12.2h25.8c6.8,0,12.2-5.5,12.2-12.2c0-2.8,2.3-5.1,5.1-5.1v0
		c12.4-0.3,22.4-10.5,22.4-23v-10.2c2.9-0.1,5.3-2.5,5.3-5.5v-20.5C205.3,136.8,202.9,134.4,200,134.3z M160.3,210.3h-25.8
		c-3.4,0-6.2-2.8-6.2-6.2c0-1.9-0.5-3.6-1.3-5.1h40.8c-0.8,1.5-1.3,3.3-1.3,5.1C166.5,207.5,163.7,210.3,160.3,210.3z M194,175.9
		c0,9.4-7.6,17-17,17h-59.3c-9.4,0-17-7.6-17-17v-51.8c0-9.4,7.6-17,17-17c0.3,0,0.6-0.1,0.8-0.1c5.4-0.7,9.7-5.4,9.7-11
		c0-3.4,2.8-6.2,6.2-6.2h25.8c3.4,0,6.2,2.8,6.2,6.2c0,1.9,0.5,3.6,1.3,5.2h-20.4c-1.7,0-3,1.3-3,3s1.3,3,3,3H177
		c9.4,0,17,7.6,17,17V175.9z"/>
	<path d="M147.4,123c-7.2,0-14,2.8-19.1,7.9s-7.9,11.9-7.9,19.1c0,14.9,12.1,27,27,27c14.9,0,27-12.1,27-27S162.2,123,147.4,123z
		 M147.4,171c-11.6,0-21-9.4-21-21c0-5.6,2.2-10.9,6.1-14.8c4-4,9.2-6.1,14.8-6.1c11.6,0,21,9.4,21,21S158.9,171,147.4,171z"/>
</g>
</svg>
