<?xml version="1.0" encoding="utf-8"?>
<!-- Generator: Adobe Illustrator 24.2.3, SVG Export Plug-In . SVG Version: 6.00 Build 0)  -->
<svg version="1.1" id="Layer_1" xmlns="http://www.w3.org/2000/svg" xmlns:xlink="http://www.w3.org/1999/xlink" x="0px" y="0px"
	 viewBox="0 0 300 300" style="enable-background:new 0 0 300 300;" xml:space="preserve">
<g>
	<path d="M192.4,98.4v-2.9c0-6.1-5.4-11.1-12-11.1c-1,0-2.1,0.1-3.1,0.4l0,0l-67,12.9c-0.1,0-0.2,0-0.2,0l-0.1,0l0,0
		c-8.6,1.8-15,9.5-15,18.6v80.3c0,10.5,8.5,19,19,19H186c10.5,0,19-8.5,19-19v-80.3C205,108,199.8,101,192.4,98.4z M186.4,95.5v1.8
		c-0.1,0-0.3,0-0.4,0h-42l33-6.3c0.4,0,0.7,0,1.1-0.2c0.7-0.2,1.5-0.4,2.3-0.4C183.7,90.4,186.4,92.7,186.4,95.5z M199,196.6
		c0,7.2-5.8,13-13,13H114c-7.2,0-13-5.8-13-13v-80.3c0-6.2,4.4-11.5,10.3-12.7l0.2,0c0.8-0.2,1.6-0.2,2.5-0.2H186
		c7.2,0,13,5.8,13,13V196.6z"/>
	<path d="M174.6,133.4H119c-1.7,0-3,1.3-3,3s1.3,3,3,3h55.6c1.7,0,3-1.3,3-3S176.2,133.4,174.6,133.4z"/>
	<path d="M148,150.6h-29c-1.7,0-3,1.3-3,3s1.3,3,3,3h29c1.7,0,3-1.3,3-3S149.7,150.6,148,150.6z"/>
</g>
</svg>
