<?xml version="1.0" encoding="utf-8"?>
<!-- Generator: Adobe Illustrator 24.2.3, SVG Export Plug-In . SVG Version: 6.00 Build 0)  -->
<svg version="1.1" id="Layer_1" xmlns="http://www.w3.org/2000/svg" xmlns:xlink="http://www.w3.org/1999/xlink" x="0px" y="0px"
	 viewBox="0 0 300 300" style="enable-background:new 0 0 300 300;" xml:space="preserve">
<g>
	<path d="M206.8,119.9H192c-4.2-19.3-21.4-33.8-42-33.8s-37.8,14.5-42,33.8H93.2c-6.7,0-12.2,5.5-12.2,12.2c0,0.2,0,0.3,0,0.5
		L92.5,204c0.1,6.6,5.5,11.9,12.2,11.9h90.7c6.6,0,12-5.3,12.2-11.9l11.4-71.4c0-0.2,0-0.3,0-0.5C219,125.4,213.5,119.9,206.8,119.9
		z M150,92.1c20.4,0,36.9,16.6,36.9,36.9c0,20.4-16.6,36.9-36.9,36.9s-36.9-16.6-36.9-36.9C113.1,108.7,129.6,92.1,150,92.1z
		 M201.6,203.2c0,0.2,0,0.3,0,0.5c0,3.4-2.8,6.2-6.2,6.2h-41.8v-24.7c0-1.7-1.3-3-3-3c-1.7,0-3,1.3-3,3v24.7h-42.9
		c-3.4,0-6.2-2.8-6.2-6.2c0-0.2,0-0.3,0-0.5L87,131.9c0.1-3.3,2.8-5.9,6.2-5.9h14c-0.1,1-0.1,2.1-0.1,3.1
		c0,23.7,19.3,42.9,42.9,42.9s42.9-19.3,42.9-42.9c0-1.1-0.1-2.1-0.1-3.1h14c3.3,0,6,2.6,6.2,5.9L201.6,203.2z"/>
	<path d="M144.1,127.4c-0.6,2.1-0.1,4.4,1.5,6c2.4,2.4,6.3,2.4,8.7,0c2.4-2.4,2.4-6.3,0-8.7c-1.6-1.6-3.9-2.1-6-1.5l-8.2-8.2
		c-1.2-1.2-3.1-1.2-4.2,0c-1.2,1.2-1.2,3.1,0,4.2L144.1,127.4z"/>
</g>
</svg>
