<?xml version="1.0" encoding="utf-8"?>
<!-- Generator: Adobe Illustrator 21.1.0, SVG Export Plug-In . SVG Version: 6.00 Build 0)  -->
<svg version="1.1" id="Layer_1" xmlns="http://www.w3.org/2000/svg" xmlns:xlink="http://www.w3.org/1999/xlink" x="0px" y="0px"
	 viewBox="0 0 358.4 232.1" style="enable-background:new 0 0 358.4 232.1;" xml:space="preserve">
<style type="text/css">
	.st0{clip-path:url(#SVGID_2_);fill:#E63214;}
</style>
<g>
	<defs>
		<rect id="SVGID_1_" width="358.4" height="232.1"/>
	</defs>
	<clipPath id="SVGID_2_">
		<use xlink:href="#SVGID_1_"  style="overflow:visible;"/>
	</clipPath>
	<path class="st0" d="M333.7,0c-14.9-0.1-29.3,8.9-38.6,22.5c44,28.8-9.9,172-89.4,172c-9.5,0-17.6-2.8-23-8.4
		c43-38.8,74.1-91.5,74.1-122.6c0-15.9-7.8-26-26-26c-52.8,0-108.5,86.6-98.1,149.1c-33.3,11.8-49.8-3-49.8-32.7
		c0-62,64.8-126.4,61.1-145.7C76.8,29,24.2-19.3,0,59.2c32.6-17.8,62.8,10.6,100-10.1C68,86,35.8,138.2,36.2,182.4
		c0.3,28.9,15.9,49.7,49.7,49.7c19.2,0,39.1-6.7,58.3-17.7c8.2,10.3,21.4,17.7,41.7,17.7c82.5,0,172.6-115.9,172.6-198.5
		C358.4,11.6,349.7,0.1,333.7,0 M175.1,159.3c0.7-44.7,32.2-91.6,48.2-91.6c4.7,0,5.7,3.1,5.7,6.3
		C229.1,89.3,206.4,130.2,175.1,159.3"/>
</g>
</svg>
